<svg width="246" height="209" viewBox="0 0 246 209" fill="none" xmlns="http://www.w3.org/2000/svg">
<g clip-path="url(#clip0_83_1467)">
<path d="M123 234.851C185.369 234.851 235.929 206.856 235.929 172.323C235.929 137.79 185.369 109.795 123 109.795C60.6312 109.795 10.0712 137.79 10.0712 172.323C10.0712 206.856 60.6312 234.851 123 234.851Z" fill="#F5F5F5"/>
<path d="M29.0281 190.896C42.6515 197.784 64.7325 197.784 78.3511 190.896C91.9696 184.008 91.9745 172.815 78.3511 165.912C64.7276 159.009 42.6515 159.024 29.0281 165.912C15.4046 172.8 15.4193 184.008 29.0281 190.896Z" fill="#E6E6E6"/>
<path d="M216.972 190.896C203.353 197.784 181.268 197.784 167.649 190.896C154.03 184.008 154.03 172.815 167.649 165.912C181.268 159.009 203.353 159.024 216.972 165.912C230.591 172.8 230.581 184.008 216.972 190.896Z" fill="#E6E6E6"/>
<path d="M151.044 170.35L123 154.158L94.9561 170.35L123 186.537L151.044 170.35Z" fill="#E6E6E6"/>
<path d="M163.074 76.5799C172.323 68.2552 182.262 57.815 182.399 51.5764C178.104 51.478 177.12 51.5764 174.311 53.7068C171.811 55.6059 161.553 68.5898 158.075 70.8382C153.47 71.9944 145.184 73.3425 141.194 73.4163C140.488 73.4238 139.803 73.1717 139.271 72.7078C137.829 71.468 136.707 71.5074 135.138 70.7398C133.908 70.1298 133.431 69.4311 133.17 69.6476C132.909 69.8641 132.407 70.7644 133.091 71.7632C133.54 72.3483 134.068 72.8682 134.661 73.3081C133.176 73.1389 131.722 72.763 130.341 72.1912C127.03 70.8628 125.381 71.2761 126.705 75.6352C127.531 78.3609 129.888 80.0091 136.545 80.1813C138.992 80.2934 141.443 80.2293 143.881 79.9894C148.751 79.3548 154.35 79.2564 158.326 78.7545C160.092 78.5269 161.748 77.7686 163.074 76.5799Z" fill="#FFB3B2"/>
<path d="M182.862 51.3058C179.683 50.7203 175.885 51.5518 173.351 54.0068C170.818 56.4619 165.327 62.8628 165.327 62.8628C165.327 62.8628 167.969 67.8173 171.944 68.7964L175.88 64.5012L182.862 51.3058Z" fill="#E2288D"/>
<path opacity="0.1" d="M182.862 51.3058C179.683 50.7203 175.885 51.5518 173.351 54.0068C170.818 56.4619 165.327 62.8628 165.327 62.8628C165.327 62.8628 167.969 67.8173 171.944 68.7964L175.88 64.5012L182.862 51.3058Z" fill="black"/>
<path d="M200.564 169.1H194.921V177.317H200.564V169.1Z" fill="#FFB3B2"/>
<path d="M180.713 158.932L175.073 159.126L175.356 167.338L180.996 167.144L180.713 158.932Z" fill="#FFB3B2"/>
<path d="M200.19 88.8799C200.19 94.2919 200.889 129.125 200.889 129.125C201.021 130.68 202.473 133.553 202.158 139.492C201.73 147.58 201.031 170.055 201.031 170.055C201.031 170.055 198.384 172.677 194.635 170.055C194.635 170.055 189.528 139.521 188.515 131.502C187.634 124.506 186.134 105.5 186.134 105.5L183.26 128.314C183.26 128.314 184.18 133.573 184.387 137.288C184.594 141.002 181.071 161.996 181.071 161.996C180.157 162.568 179.11 162.891 178.032 162.933C176.955 162.974 175.886 162.733 174.931 162.232C174.931 162.232 172.766 131.364 172.2 127.994C171.634 124.624 173.814 88.8799 173.814 88.8799H200.19Z" fill="#37474F"/>
<path d="M191.698 51.5616C192.121 51.6649 194.547 52.2357 196.854 52.8457C197.811 53.098 198.657 53.6602 199.261 54.4444C199.864 55.2286 200.191 56.1907 200.19 57.1803V88.8798C196.254 93.1848 182.439 95.1922 173.799 88.8798V61.3721C173.799 56.9785 176.259 51.6994 182.985 51.3058L191.698 51.5616Z" fill="#EBEBEB"/>
<path d="M193.597 29.0674C194.051 29.014 194.512 29.0652 194.943 29.2169C195.375 29.3687 195.766 29.6171 196.087 29.9431C197.154 31.0354 196.933 33.0575 196.087 37.7069L192.785 38.0857L193.597 29.0674Z" fill="#263238"/>
<path d="M174.34 27.7242C173.63 27.7272 172.926 27.5831 172.274 27.3011C171.26 26.7205 170.995 27.8718 171.551 28.8755C171.919 29.5919 172.465 30.2021 173.135 30.6482C173.806 31.0943 174.58 31.3614 175.383 31.424C175.413 31.2814 176.333 28.846 176.333 28.846L174.34 27.7242Z" fill="#263238"/>
<path d="M179.487 39.0747C183.049 39.0747 185.937 36.1869 185.937 32.6246C185.937 29.0623 183.049 26.1744 179.487 26.1744C175.924 26.1744 173.036 29.0623 173.036 32.6246C173.036 36.1869 175.924 39.0747 179.487 39.0747Z" fill="#263238"/>
<path d="M192.047 38.0857C192.539 38.3809 193.238 37.4363 193.843 36.8065C194.448 36.1767 196.421 35.3305 197.405 37.3821C198.389 39.4338 196.534 42.3021 194.98 42.7941C192.303 43.6355 191.9 41.9184 191.9 41.9184L191.698 51.5763C191.698 51.5763 189.942 55.8666 185.194 56.4963C180.446 57.1261 181.425 53.2245 182.985 51.3057V48.3537C182.985 48.3537 180.559 48.7227 179.378 48.5358C177.41 48.2307 176.166 46.6809 175.57 44.5457C174.611 41.1017 174.247 38.3563 175.078 31.6257C175.974 24.2457 184.559 24.167 189.194 27.0846C193.828 30.0021 192.047 38.0857 192.047 38.0857Z" fill="#FFB3B2"/>
<path d="M191.801 39.4535C192.033 39.365 193.233 37.3625 193.843 36.8066C194.689 36.0341 193.597 29.0674 193.597 29.0674C193.597 29.0674 194.453 26.4254 192.78 24.6738C191.108 22.9223 187.86 23.1978 185.504 23.129C183.044 23.0404 180.397 22.8928 177.036 21.4316C173.676 19.9703 173.42 19.7981 173.002 21.2741C172.584 22.7501 172.426 26.1351 174.434 28.4032L176.107 29.0133C176.107 29.0133 177.007 29.8152 180.146 30.199C182.504 30.456 184.883 30.456 187.24 30.199C188.151 30.076 189.12 30.691 189.425 33.584C189.651 35.6799 190.404 39.98 191.801 39.4535Z" fill="#263238"/>
<path d="M193.592 29.6086L196.544 28.0194C196.45 27.8191 196.316 27.6401 196.15 27.4933C195.984 27.3465 195.79 27.235 195.579 27.1655C195.369 27.096 195.147 27.07 194.926 27.0891C194.706 27.1082 194.491 27.1719 194.296 27.2765C193.902 27.5006 193.609 27.8677 193.478 28.3019C193.347 28.736 193.388 29.2039 193.592 29.6086Z" fill="#263238"/>
<path d="M182.99 48.3685C182.99 48.3685 187.388 47.4829 188.923 46.6662C189.827 46.1942 190.568 45.4603 191.049 44.5604C190.816 45.4529 190.406 46.2894 189.843 47.0204C188.716 48.4571 182.99 49.5149 182.99 49.5149V48.3685Z" fill="#F59595"/>
<path d="M182.99 36.9887C182.996 37.1624 183.054 37.3303 183.156 37.4714C183.257 37.6126 183.398 37.7207 183.561 37.7823C183.723 37.8439 183.9 37.8563 184.07 37.818C184.24 37.7796 184.394 37.6922 184.514 37.5666C184.635 37.441 184.715 37.2828 184.746 37.1117C184.777 36.9406 184.757 36.7642 184.688 36.6044C184.62 36.4447 184.505 36.3087 184.36 36.2134C184.214 36.1181 184.044 36.0678 183.87 36.0686C183.632 36.0763 183.407 36.177 183.242 36.3489C183.078 36.5209 182.987 36.7506 182.99 36.9887Z" fill="#263238"/>
<path d="M183.826 39.2912C183.826 39.3238 183.839 39.3551 183.862 39.3782C183.885 39.4013 183.916 39.4142 183.949 39.4142C183.982 39.4142 184.013 39.4013 184.036 39.3782C184.059 39.3551 184.072 39.3238 184.072 39.2912C184.072 39.2586 184.059 39.2273 184.036 39.2042C184.013 39.1812 183.982 39.1682 183.949 39.1682C183.916 39.1682 183.885 39.1812 183.862 39.2042C183.839 39.2273 183.826 39.2586 183.826 39.2912Z" fill="#F59595"/>
<path d="M184.815 38.7303C184.814 38.7468 184.817 38.7634 184.823 38.7789C184.829 38.7944 184.838 38.8085 184.849 38.8204C184.861 38.8324 184.874 38.8419 184.89 38.8484C184.905 38.8549 184.921 38.8582 184.938 38.8582C184.972 38.8582 185.004 38.8447 185.028 38.8207C185.052 38.7967 185.066 38.7642 185.066 38.7303C185.069 38.7117 185.069 38.6926 185.064 38.6742C185.06 38.6559 185.051 38.6388 185.039 38.6242C185.027 38.6095 185.012 38.5978 184.995 38.5897C184.978 38.5816 184.959 38.5774 184.94 38.5774C184.921 38.5774 184.903 38.5816 184.886 38.5897C184.869 38.5978 184.853 38.6095 184.841 38.6242C184.829 38.6388 184.821 38.6559 184.816 38.6742C184.812 38.6926 184.811 38.7117 184.815 38.7303Z" fill="#F59595"/>
<path d="M185.317 39.7143C185.315 39.7311 185.318 39.7479 185.323 39.7638C185.329 39.7796 185.338 39.794 185.349 39.8062C185.361 39.8183 185.375 39.8277 185.391 39.834C185.406 39.8402 185.423 39.843 185.44 39.8423C185.474 39.8423 185.506 39.8288 185.53 39.8048C185.554 39.7808 185.568 39.7483 185.568 39.7143C185.568 39.6804 185.554 39.6479 185.53 39.6239C185.506 39.5999 185.474 39.5864 185.44 39.5864C185.407 39.5877 185.375 39.6017 185.353 39.6256C185.33 39.6494 185.317 39.6813 185.317 39.7143Z" fill="#F59595"/>
<path d="M186.138 38.868C186.138 38.9024 186.152 38.9355 186.175 38.9603C186.199 38.985 186.232 38.9996 186.266 39.0009C186.283 39.0002 186.3 38.9963 186.315 38.9893C186.33 38.9823 186.344 38.9723 186.355 38.96C186.367 38.9476 186.376 38.9331 186.381 38.9174C186.387 38.9016 186.39 38.8848 186.389 38.868C186.389 38.8349 186.376 38.8031 186.354 38.7793C186.331 38.7554 186.299 38.7414 186.266 38.7401C186.232 38.7401 186.2 38.7536 186.176 38.7776C186.152 38.8016 186.138 38.8341 186.138 38.868Z" fill="#F59595"/>
<path d="M182.434 38.6024C182.434 38.635 182.447 38.6663 182.47 38.6893C182.493 38.7124 182.524 38.7254 182.557 38.7254C182.589 38.7254 182.621 38.7124 182.644 38.6893C182.667 38.6663 182.68 38.635 182.68 38.6024C182.68 38.5697 182.667 38.5385 182.644 38.5154C182.621 38.4923 182.589 38.4794 182.557 38.4794C182.524 38.4794 182.493 38.4923 182.47 38.5154C182.447 38.5385 182.434 38.5697 182.434 38.6024Z" fill="#F59595"/>
<path d="M182.724 39.7143C182.723 39.731 182.725 39.7479 182.73 39.7637C182.736 39.7796 182.745 39.794 182.757 39.8061C182.768 39.8182 182.782 39.8277 182.798 39.8339C182.814 39.8402 182.83 39.843 182.847 39.8422C182.864 39.8422 182.88 39.8389 182.895 39.8324C182.911 39.8259 182.924 39.8164 182.936 39.8045C182.947 39.7925 182.956 39.7784 182.962 39.7629C182.968 39.7474 182.971 39.7309 182.97 39.7143C182.97 39.6817 182.957 39.6504 182.934 39.6273C182.911 39.6043 182.88 39.5913 182.847 39.5913C182.814 39.5913 182.783 39.6043 182.76 39.6273C182.737 39.6504 182.724 39.6817 182.724 39.7143Z" fill="#F59595"/>
<path d="M181.356 38.991C181.356 39.0237 181.369 39.0549 181.392 39.078C181.415 39.1011 181.447 39.114 181.479 39.114C181.512 39.114 181.543 39.1011 181.566 39.078C181.589 39.0549 181.602 39.0237 181.602 38.991C181.602 38.9584 181.589 38.9271 181.566 38.9041C181.543 38.881 181.512 38.868 181.479 38.868C181.447 38.868 181.415 38.881 181.392 38.9041C181.369 38.9271 181.356 38.9584 181.356 38.991Z" fill="#F59595"/>
<path d="M177.518 38.5531C177.518 38.5862 177.531 38.618 177.554 38.6419C177.577 38.6657 177.608 38.6798 177.641 38.6811C177.658 38.6804 177.675 38.6765 177.69 38.6695C177.705 38.6624 177.719 38.6525 177.73 38.6401C177.742 38.6278 177.751 38.6133 177.757 38.5976C177.762 38.5818 177.765 38.565 177.764 38.5482C177.764 38.5151 177.752 38.4833 177.729 38.4595C177.706 38.4356 177.674 38.4216 177.641 38.4203C177.625 38.4209 177.608 38.4249 177.593 38.4319C177.578 38.4389 177.564 38.4489 177.552 38.4612C177.541 38.4735 177.532 38.488 177.526 38.5038C177.52 38.5196 177.518 38.5363 177.518 38.5531Z" fill="#F59595"/>
<path d="M176.653 39.1583C176.652 39.1748 176.655 39.1914 176.661 39.2069C176.666 39.2224 176.675 39.2365 176.687 39.2485C176.698 39.2604 176.712 39.2699 176.727 39.2764C176.743 39.2829 176.759 39.2862 176.776 39.2862C176.809 39.2849 176.84 39.2709 176.863 39.247C176.886 39.2232 176.899 39.1914 176.899 39.1583C176.899 39.1257 176.886 39.0944 176.863 39.0713C176.84 39.0482 176.808 39.0353 176.776 39.0353C176.743 39.0353 176.712 39.0482 176.689 39.0713C176.666 39.0944 176.653 39.1257 176.653 39.1583Z" fill="#F59595"/>
<path d="M175.974 38.5089C175.973 38.5257 175.976 38.5425 175.981 38.5582C175.987 38.574 175.996 38.5885 176.008 38.6008C176.019 38.6132 176.033 38.6231 176.048 38.6301C176.063 38.6372 176.08 38.6411 176.097 38.6417C176.127 38.6358 176.154 38.6196 176.174 38.5958C176.193 38.572 176.204 38.5422 176.204 38.5114C176.204 38.4805 176.193 38.4507 176.174 38.4269C176.154 38.4031 176.127 38.3869 176.097 38.381C176.064 38.3823 176.032 38.3963 176.009 38.4201C175.986 38.444 175.974 38.4758 175.974 38.5089Z" fill="#F59595"/>
<path d="M175.152 38.8089C175.148 38.8275 175.149 38.8466 175.153 38.865C175.158 38.8833 175.167 38.9004 175.179 38.9151C175.191 38.9297 175.206 38.9415 175.223 38.9496C175.24 38.9576 175.259 38.9618 175.277 38.9618C175.296 38.9618 175.315 38.9576 175.332 38.9496C175.349 38.9415 175.364 38.9297 175.376 38.9151C175.388 38.9004 175.397 38.8833 175.402 38.865C175.406 38.8466 175.407 38.8275 175.403 38.8089C175.403 38.7759 175.39 38.744 175.367 38.7202C175.344 38.6963 175.313 38.6823 175.28 38.681C175.246 38.681 175.213 38.6945 175.189 38.7185C175.165 38.7425 175.152 38.775 175.152 38.8089Z" fill="#F59595"/>
<path d="M175.014 37.8447C175.014 37.8615 175.016 37.8783 175.022 37.8941C175.028 37.9098 175.037 37.9243 175.048 37.9366C175.06 37.949 175.073 37.9589 175.089 37.966C175.104 37.973 175.12 37.9769 175.137 37.9776C175.168 37.9717 175.195 37.9554 175.214 37.9316C175.234 37.9078 175.245 37.878 175.245 37.8472C175.245 37.8164 175.234 37.7865 175.214 37.7627C175.195 37.7389 175.168 37.7227 175.137 37.7168C175.104 37.7181 175.073 37.7321 175.05 37.756C175.027 37.7798 175.014 37.8116 175.014 37.8447Z" fill="#F59595"/>
<path d="M183.924 33.6627L185.809 34.7009C185.937 34.4452 185.963 34.1505 185.881 33.8764C185.8 33.6023 185.618 33.3694 185.371 33.2249C185.248 33.1565 185.112 33.1135 184.972 33.0986C184.832 33.0836 184.69 33.097 184.555 33.1378C184.42 33.1786 184.295 33.2462 184.187 33.3363C184.078 33.4265 183.989 33.5375 183.924 33.6627Z" fill="#263238"/>
<path d="M183.388 43.0746L181.376 43.8273C181.42 43.9622 181.491 44.0868 181.584 44.1938C181.677 44.3009 181.791 44.3881 181.919 44.4505C182.046 44.5129 182.185 44.5491 182.326 44.557C182.468 44.5648 182.61 44.5443 182.744 44.4965C183.015 44.3896 183.234 44.1814 183.354 43.916C183.474 43.6507 183.486 43.3489 183.388 43.0746Z" fill="#F59595"/>
<path d="M175.678 34.3958L177.4 33.0723C177.319 32.9593 177.217 32.8636 177.098 32.7906C176.98 32.7177 176.848 32.669 176.711 32.6475C176.573 32.626 176.433 32.632 176.298 32.6653C176.163 32.6985 176.036 32.7583 175.924 32.8411C175.692 33.0191 175.536 33.2799 175.49 33.5693C175.445 33.8587 175.512 34.1546 175.678 34.3958Z" fill="#263238"/>
<path d="M176.21 36.7377C176.218 36.91 176.276 37.0762 176.377 37.2158C176.478 37.3553 176.618 37.4621 176.78 37.5227C176.941 37.5834 177.117 37.5953 177.285 37.557C177.453 37.5187 177.607 37.4319 177.726 37.3073C177.845 37.1827 177.925 37.0258 177.956 36.8562C177.987 36.6865 177.967 36.5115 177.9 36.3528C177.832 36.1942 177.719 36.0589 177.575 35.9637C177.432 35.8686 177.263 35.8178 177.091 35.8176C176.852 35.8241 176.626 35.9243 176.461 36.0966C176.296 36.2689 176.206 36.4992 176.21 36.7377Z" fill="#263238"/>
<path d="M180.146 35.9012L179.856 41.2001L177.091 40.2554L180.146 35.9012Z" fill="#F59595"/>
<path d="M194.921 174.532V173.725C194.379 173.961 193.125 178.749 190.886 180.79C189.105 182.414 186.68 184.288 186.06 186.099C185.44 187.91 189.44 189.021 191.103 188.726C193.036 188.382 196.387 187.024 197.228 185.774C198.069 184.525 198.458 182.655 199.142 181.73C199.826 180.805 201.4 179.762 201.769 178.704C201.976 178.119 201.735 176.83 201.449 175.752C201.184 174.768 200.903 173.656 200.564 173.75C200.564 173.873 200.564 174.365 200.564 174.365C200.151 174.822 199.019 175.27 197.74 175.319C196.913 175.329 194.911 175.152 194.921 174.532Z" fill="#263238"/>
<path d="M175.3 165.597C175.004 165.597 174.768 166.021 174.119 166.719C173.153 167.694 172.033 168.502 170.803 169.11C168.687 170.168 164.579 171.792 162.719 172.633C161.558 173.155 161.612 174.557 162.813 175.354C164.013 176.151 166.911 176.731 170.394 175.949C172.289 175.526 174.758 173.774 176.298 173.868C177.838 173.961 180.785 173.942 181.942 173.15C183.098 172.357 182.63 170.655 182.306 169.214C181.951 167.624 181.44 165.189 180.913 165.278V165.77C180.234 166.793 176.78 167.216 175.29 166.458L175.3 165.597Z" fill="#263238"/>
<path d="M186.148 105.5C183.226 104.592 180.539 103.053 178.276 100.993C178.276 100.993 179.797 103.832 184.303 106.474L184.057 121.991L186.148 105.5Z" fill="#263238"/>
<path d="M82.9316 76.5798C73.6771 68.2551 63.719 57.8149 63.6058 51.5763C67.8961 51.4779 68.885 51.5763 71.6894 53.7067C74.1888 55.6058 84.447 68.5897 87.9254 70.8381C92.5305 71.9943 100.821 73.3424 104.806 73.4162C105.512 73.4237 106.197 73.1716 106.73 72.7077C108.171 71.4679 109.293 71.5072 110.862 70.7397C112.097 70.1296 112.57 69.431 112.83 69.6475C113.17 69.923 113.593 70.7643 112.909 71.7631C112.46 72.3482 111.932 72.8681 111.34 73.308C112.825 73.1388 114.279 72.7628 115.659 72.1911C118.971 70.8627 120.619 71.276 119.3 75.6351C118.474 78.3608 116.112 80.009 109.46 80.1812C107.014 80.2933 104.562 80.2291 102.125 79.9893C97.2537 79.3546 91.6597 79.2562 87.6843 78.7544C85.9158 78.5296 84.2579 77.771 82.9316 76.5798Z" fill="#9C5456"/>
<path d="M58.3167 23.2027H59.7484C63.0105 23.2027 66.1391 24.4986 68.4458 26.8053C70.7525 29.112 72.0484 32.2405 72.0484 35.5027V50.0757H56.7964C55.3808 50.0745 53.9793 49.7943 52.6719 49.2514C51.3645 48.7085 50.1769 47.9134 49.1768 46.9115C48.1768 45.9096 47.3838 44.7205 46.8433 43.4122C46.3027 42.1038 46.0252 40.7018 46.0265 39.2862V35.4929C46.0265 32.2307 47.3224 29.1022 49.6291 26.7955C51.9358 24.4888 55.0643 23.1929 58.3265 23.1929L58.3167 23.2027Z" fill="#263238"/>
<path d="M34.2776 166.025L34.868 165.415C34.4153 166.365 32.5359 170.532 32.7278 173.72C32.8803 176.254 33.3378 179.457 32.4719 181.277C31.5765 183.176 28.0439 180.697 27.0304 179.25C25.8201 177.573 24.7328 174.906 24.9345 172.643C25.0772 171.054 25.638 169.548 25.8004 168.348C25.9628 167.147 25.5347 165.209 26.0415 164.131C26.317 163.536 27.4486 162.744 28.4621 162.129C29.392 161.568 30.4301 160.948 30.6023 161.268L30.1497 161.73C30.1251 162.375 30.6417 163.551 31.5814 164.525C32.1816 165.159 33.8151 166.507 34.2776 166.025Z" fill="#E2288D"/>
<path opacity="0.1" d="M34.2776 166.025L34.868 165.415C34.4153 166.365 32.5359 170.532 32.7278 173.72C32.8803 176.254 33.3378 179.457 32.4719 181.277C31.5765 183.176 28.0439 180.697 27.0304 179.25C25.8201 177.573 24.7328 174.906 24.9345 172.643C25.0772 171.054 25.638 169.548 25.8004 168.348C25.9628 167.147 25.5347 165.209 26.0415 164.131C26.317 163.536 27.4486 162.744 28.4621 162.129C29.392 161.568 30.4301 160.948 30.6023 161.268L30.1497 161.73C30.1251 162.375 30.6417 163.551 31.5814 164.525C32.1816 165.159 33.8151 166.507 34.2776 166.025Z" fill="black"/>
<path d="M32.895 175.983C32.8408 175.206 32.7719 174.434 32.7277 173.715C32.5948 171.487 33.4706 168.795 34.1692 167.029C34.5677 166.045 38.2823 160.746 38.2823 160.746L33.0967 156.318L30.1447 161.73L30.0414 161.834V161.868C29.387 162.95 29.0574 167.211 28.6687 169.833C28.4128 171.59 28.5555 174.261 30.0266 176.146C31.4436 177.922 32.7523 178.212 32.895 175.983Z" fill="#9C5456"/>
<path d="M65.6969 168.343C65.6164 168.365 65.5451 168.413 65.493 168.478C65.4409 168.543 65.4107 168.623 65.4066 168.707C65.3377 169.199 65.259 170.094 65.1114 170.921C64.9097 172.023 64.7079 173.607 64.9047 174.483C65.1015 175.359 67.163 176.603 68.5505 176.785C69.9379 176.968 72.3241 178.261 73.4409 179.245C74.8087 180.446 77.7066 181.41 79.6549 181.435C81.9378 181.459 83.7287 180.943 84.2502 179.27C84.4667 178.576 83.8959 177.73 80.9489 176.382C80.9489 176.382 79.4729 175.634 78.6119 175.123C74.3462 172.549 72.88 171.068 71.6058 168.387L65.6969 168.343Z" fill="#E2288D"/>
<path opacity="0.1" d="M65.6969 168.343C65.6164 168.365 65.5451 168.413 65.493 168.478C65.4409 168.543 65.4107 168.623 65.4066 168.707C65.3377 169.199 65.259 170.094 65.1114 170.921C64.9097 172.023 64.7079 173.607 64.9047 174.483C65.1015 175.359 67.163 176.603 68.5505 176.785C69.9379 176.968 72.3241 178.261 73.4409 179.245C74.8087 180.446 77.7066 181.41 79.6549 181.435C81.9378 181.459 83.7287 180.943 84.2502 179.27C84.4667 178.576 83.8959 177.73 80.9489 176.382C80.9489 176.382 79.4729 175.634 78.6119 175.123C74.3462 172.549 72.88 171.068 71.6058 168.387L65.6969 168.343Z" fill="black"/>
<path d="M73.2341 170.576C72.5163 169.453 72.1105 168.159 72.0582 166.827L71.9648 163.191H65.677V168.338V169.125C66.0312 171.624 68.3879 171.919 70.3559 173.302C71.3399 173.991 75.1677 176.933 77.7359 177.41C79.8318 177.794 80.6141 176.967 80.8946 176.377C78.1258 174.746 75.5552 172.799 73.2341 170.576Z" fill="#9C5456"/>
<path d="M45.3772 130.449C42.5807 132.93 40.3923 136.02 38.9812 139.482C37.0427 144.417 31.488 158.877 31.488 158.877C31.488 158.877 33.9185 163.142 37.2248 163.433C37.2248 163.433 52.9245 140.343 54.7301 134.946C56.5604 132.191 58.8482 118.621 60.5062 109.234L60.5652 109.337L63.3893 129.253C62.6587 131.59 62.1303 133.985 61.81 136.412C61.318 141.298 65.4557 164.948 65.4557 164.948C65.4557 164.948 68.265 166.424 72.1518 165.12C72.1518 165.12 72.7767 134.282 73.2195 128.392C73.9575 118.508 74.3166 90.6314 72.5061 84.7815L46.6023 86.228C44.4522 92.437 44.285 96.4025 44.5605 103.212C44.8163 110.247 45.3772 130.449 45.3772 130.449Z" fill="#37474F"/>
<path d="M60.5504 109.337L62.0264 100.142C62.0264 100.142 68.2502 98.8477 71.0743 96.2057C71.0743 96.2057 68.1223 99.8908 63.6943 101.096L62.0412 108.176L63.1679 127.723L60.5504 109.337Z" fill="#263238"/>
<path d="M54.5725 51.842C48.762 52.2405 46.9367 54.6218 46.8973 58.1199C46.921 60.9137 47.3911 63.6859 48.2897 66.3314L50.9268 75.2759C50.9268 75.2759 48.7423 80.2353 46.5775 86.2574C56.7422 91.9301 69.4309 88.9486 72.4912 84.8109C72.6191 83.9302 71.8319 77.0668 71.3497 72.5798C73.1406 68.0927 73.6129 65.2441 72.8552 62.2773C71.453 56.7669 66.0115 51.3992 63.6056 51.5911L54.5725 51.842Z" fill="#E2288D"/>
<path opacity="0.1" d="M54.5725 51.842C48.762 52.2405 46.9367 54.6218 46.8973 58.1199C46.921 60.9137 47.3911 63.6859 48.2897 66.3314L50.9268 75.2759C50.9268 75.2759 48.7423 80.2353 46.5775 86.2574C56.7422 91.9301 69.4309 88.9486 72.4912 84.8109C72.6191 83.9302 71.8319 77.0668 71.3497 72.5798C73.1406 68.0927 73.6129 65.2441 72.8552 62.2773C71.453 56.7669 66.0115 51.3992 63.6056 51.5911L54.5725 51.842Z" fill="black"/>
<path d="M67.4728 87.9991L58.5134 78.3411L47.0794 60.9735C47.2997 62.796 47.7052 64.5912 48.2897 66.3314L50.9268 75.2759C50.9268 75.2759 48.7423 80.2353 46.5775 86.2574C53.6968 90.218 62.0558 89.9425 67.4728 87.9991Z" fill="#E2288D"/>
<path opacity="0.1" d="M67.4728 87.9991L58.5134 78.3411L47.0794 60.9735C47.2997 62.796 47.7052 64.5912 48.2897 66.3314L50.9268 75.2759C50.9268 75.2759 48.7423 80.2353 46.5775 86.2574C53.6968 90.218 62.0558 89.9425 67.4728 87.9991Z" fill="black"/>
<path d="M45.7561 27.3798L47.5174 30.2038C47.3365 30.3281 47.1321 30.4142 46.9168 30.4568C46.7015 30.4993 46.4797 30.4976 46.2651 30.4515C46.0505 30.4055 45.8476 30.3161 45.6687 30.1889C45.4898 30.0617 45.3387 29.8994 45.2247 29.7118C45.0012 29.3282 44.9317 28.8739 45.0303 28.441C45.129 28.008 45.3884 27.6287 45.7561 27.3798Z" fill="#263238"/>
<path d="M43.8324 30.6024L47.1288 30.1104C47.174 30.3282 47.1738 30.5531 47.1282 30.7709C47.0826 30.9887 46.9926 31.1948 46.8638 31.3762C46.735 31.5577 46.5701 31.7106 46.3795 31.8255C46.1889 31.9404 45.9767 32.0147 45.7561 32.0439C45.3119 32.0956 44.8647 31.9749 44.5068 31.7067C44.1489 31.4385 43.9075 31.0432 43.8324 30.6024Z" fill="#263238"/>
<path d="M67.7682 28.4622C69.1408 29.274 70.8382 32.7327 70.671 39.975C70.5283 46.1151 68.5406 47.6305 67.5418 48.0684C66.5431 48.5062 64.6144 48.2406 62.7399 47.9257V51.6108C62.7399 51.6108 65.3328 54.6218 65.1655 56.3094C64.9982 57.9969 61.4263 58.4004 59.0056 56.7472C57.4336 55.6186 56.0855 54.2071 55.0303 52.5849V43.6797C55.0303 43.6797 53.7658 45.3673 51.6945 43.9946C49.6232 42.6219 49.5494 39.2173 50.7499 37.9971C51.9504 36.777 54.5432 37.1607 55.0303 38.8483C55.0303 38.8483 58.0167 38.9565 61.997 36.772C63.5446 35.9383 64.8738 34.7513 65.8765 33.3074C66.8793 31.8635 67.5274 30.2035 67.7682 28.4622Z" fill="#9C5456"/>
<path d="M63.1284 38.4301C63.1302 38.5816 63.0873 38.7302 63.0053 38.8575C62.9232 38.9848 62.8055 39.0852 62.6668 39.1461C62.5281 39.2071 62.3746 39.2259 62.2253 39.2002C62.076 39.1746 61.9376 39.1056 61.8272 39.0019C61.7168 38.8982 61.6393 38.7643 61.6044 38.617C61.5695 38.4696 61.5787 38.3152 61.6309 38.1729C61.683 38.0307 61.7758 37.907 61.8978 37.8171C62.0197 37.7273 62.1654 37.6752 62.3166 37.6675C62.42 37.6642 62.5231 37.6814 62.6198 37.7179C62.7166 37.7545 62.8052 37.8097 62.8806 37.8806C62.956 37.9514 63.0167 38.0364 63.0592 38.1307C63.1017 38.225 63.1253 38.3267 63.1284 38.4301Z" fill="#263238"/>
<path d="M64.0239 43.6355L65.8148 44.2111C65.782 44.3308 65.7256 44.4427 65.6487 44.5401C65.5718 44.6376 65.4762 44.7185 65.3674 44.7782C65.2586 44.8379 65.1389 44.8751 65.0154 44.8875C64.892 44.9 64.7672 44.8875 64.6487 44.8507C64.4075 44.7685 64.2075 44.5959 64.091 44.3693C63.9744 44.1426 63.9504 43.8795 64.0239 43.6355Z" fill="#7D3336"/>
<path d="M69.4606 36.0636L67.896 34.9763C67.9622 34.8717 68.0489 34.7816 68.1507 34.7113C68.2526 34.641 68.3676 34.5919 68.4889 34.5671C68.6102 34.5423 68.7352 34.5422 68.8565 34.5669C68.9778 34.5915 69.0929 34.6404 69.1949 34.7106C69.4076 34.8563 69.5546 35.0797 69.6043 35.3328C69.654 35.5858 69.6024 35.8482 69.4606 36.0636Z" fill="#263238"/>
<path d="M69.1015 37.884C69.1032 38.0354 69.0604 38.1841 68.9783 38.3114C68.8962 38.4387 68.7785 38.539 68.6398 38.6C68.5012 38.6609 68.3476 38.6797 68.1984 38.6541C68.0491 38.6285 67.9106 38.5595 67.8002 38.4558C67.6898 38.3521 67.6123 38.2182 67.5774 38.0708C67.5425 37.9234 67.5517 37.769 67.6039 37.6268C67.656 37.4846 67.7489 37.3609 67.8708 37.271C67.9927 37.1811 68.1384 37.1291 68.2897 37.1214C68.3931 37.1181 68.4961 37.1352 68.5928 37.1718C68.6896 37.2083 68.7782 37.2636 68.8536 37.3344C68.929 37.4052 68.9897 37.4902 69.0322 37.5845C69.0748 37.6788 69.0983 37.7806 69.1015 37.884Z" fill="#263238"/>
<path d="M65.3276 37.4314L65.4506 42.0808L67.8959 41.3231L65.3276 37.4314Z" fill="#7D3336"/>
<path d="M62.7398 47.9257C60.7718 47.6699 56.703 46.5039 56.0732 44.895C56.3247 45.709 56.8213 46.4255 57.4951 46.9467C58.7104 47.9848 62.7398 49.1557 62.7398 49.1557V47.9257Z" fill="#7D3336"/>
<path d="M123 133.539L85.1553 111.664V78.2232L84.3583 77.7656V66.6071L123 88.9192V133.539Z" fill="#E2288D"/>
<path opacity="0.1" d="M123 133.539L85.1553 111.664V78.2232L84.3583 77.7656V66.6071L123 88.9192V133.539Z" fill="black"/>
<path opacity="0.15" d="M123 100.073L109.45 92.2501L109.446 81.0767L108.516 80.5552L108.511 91.7089L85.1555 78.2231V79.8271L108.511 93.3079L108.506 125.17L109.455 125.716L109.45 93.8491L123 101.672V100.073Z" fill="black"/>
<path d="M123 133.539L160.638 111.822V78.3413L161.642 77.7656V66.6071L123 88.9192V133.539Z" fill="#E2288D"/>
<path opacity="0.1" d="M160.638 78.3412L137.489 91.7088L137.484 80.5552L136.554 81.0767V92.25L123 100.073V101.672L136.55 93.8539L136.545 125.716L137.494 125.17L137.489 93.3177L160.638 79.9648V78.3412Z" fill="black"/>
<path d="M161.642 66.6071L123 44.2998L84.3583 66.6071L123 88.9193L161.642 66.6071Z" fill="#E2288D"/>
<path opacity="0.4" d="M161.642 66.6071L123 44.2998L84.3583 66.6071L123 88.9193L161.642 66.6071Z" fill="white"/>
<path opacity="0.15" d="M116.496 67.0498L98.026 58.735L98.8476 58.243L117.475 66.612" fill="black"/>
<path opacity="0.15" d="M129.499 67.0498L147.969 58.735L147.142 58.243L128.515 66.612" fill="black"/>
<path opacity="0.15" d="M137.484 80.5552L123.772 70.3757V70.3708L123 69.7952L122.995 69.8001V69.7952L122.218 70.3708L122.223 70.3757L108.506 80.5552L109.44 81.0767L122.995 70.9514L136.555 81.0767L137.484 80.5552Z" fill="black"/>
<path d="M147.152 74.976V120.702L137.494 126.282L137.485 80.5552L147.152 74.976Z" fill="#37474F"/>
<path d="M137.494 126.282L136.545 125.716L137.494 125.17V126.282Z" fill="#263238"/>
<path d="M98.8479 74.976V120.702L108.506 126.282L108.516 80.5552L98.8479 74.976Z" fill="#263238"/>
<path d="M108.506 126.282L109.455 125.716L108.506 125.17V126.282Z" fill="black"/>
<path d="M108.516 80.5553L123.005 69.8002L128.53 66.6071L147.152 58.2431L137.494 52.6638L123.005 63.4189L117.485 66.612L98.8479 74.976L108.516 80.5553Z" fill="#455A64"/>
<path d="M117.484 66.6119L116.5 67.0498L119.753 68.4914L122.227 70.3708L123.005 69.7952L120.589 68.0043L117.484 66.6119Z" fill="#263238"/>
<path d="M137.485 80.5553L120.589 68.0044L98.8479 58.2431L108.511 52.6638L125.421 65.2147L147.152 74.976L137.485 80.5553Z" fill="#455A64"/>
<path d="M119.969 64.7769C119.969 64.7769 108.619 74.1987 90.0853 72.0535C90.0853 72.0535 97.9573 77.2048 107.581 76.0387C107.581 76.0387 106.198 79.5516 98.0902 83.8271C98.0902 83.8271 118.346 84.0141 123.581 67.1975L119.969 64.7769Z" fill="#37474F"/>
<path d="M109.298 81.6721C114.907 79.5664 121.027 75.4139 123.566 67.2123L119.955 64.7916C117.76 66.4551 115.361 67.8292 112.816 68.8801C112.816 68.8801 116.752 70.6021 120.766 69.5394C119.856 72.2764 118.358 74.7809 116.377 76.8769C114.396 78.973 111.979 80.6097 109.298 81.6721Z" fill="#263238"/>
<path d="M94.8034 52.4522C94.8034 52.4522 97.0568 49.8151 103.969 51.0057C108.142 51.729 115.226 56.5899 118.729 64.6883C119.172 65.7116 120.166 66.056 120.697 66.7448C120.821 66.8991 120.956 67.0438 121.101 67.1778L123.29 67.2024C123.29 59.6354 119.044 51.9996 115.03 47.5814C111.015 43.1633 104.402 41.0034 99.689 40.8361C98.0175 40.7589 96.3516 41.0792 94.828 41.7709C93.5439 45.3477 93.0125 48.8951 94.8034 52.4522Z" fill="#37474F"/>
<path d="M118.247 63.6698C118.247 63.6698 122.183 62.3414 120.565 56.0339C122.263 59.5195 123.188 63.331 123.275 67.2073L121.086 67.1827C120.941 67.0487 120.806 66.9039 120.683 66.7497C120.151 66.0609 119.157 65.7165 118.715 64.6931C118.572 64.3389 118.41 64.0043 118.247 63.6698Z" fill="#263238"/>
<path d="M98.8377 57.2984C97.1794 55.9701 95.807 54.32 94.8033 52.4473C93.0075 48.8901 93.5389 45.3428 94.8033 41.7561C90.7493 43.547 88.3286 48.8163 87.4233 53.0721C86.9313 55.4534 86.8723 57.5001 87.2757 58.4841C88.4123 61.1606 95.069 71.9747 123.58 67.2122L123.551 64.2159C116.412 63.7731 103.945 61.5985 98.8377 57.2984Z" fill="#37474F"/>
<path d="M94.8034 52.4522C94.8034 52.4522 94.4639 44.1177 99.689 40.8361C98.0175 40.7589 96.3516 41.0792 94.828 41.7709C93.5439 45.3477 93.0125 48.8951 94.8034 52.4522Z" fill="#263238"/>
<path d="M126.031 64.7769C126.031 64.7769 137.381 74.1987 155.915 72.0535C155.915 72.0535 148.043 77.2048 138.419 76.0387C138.419 76.0387 139.802 79.5516 147.91 83.8271C147.91 83.8271 127.654 84.0141 122.42 67.1975L126.031 64.7769Z" fill="#37474F"/>
<path d="M125.234 69.5295C129.229 70.5922 133.185 68.8702 133.185 68.8702L132.442 68.5357L132.328 68.4865L131.669 68.1765L131.522 68.1076L130.921 67.8075C130.871 67.7842 130.821 67.7579 130.774 67.7288C130.582 67.6353 130.4 67.5369 130.218 67.4434L130.07 67.3647L129.578 67.0843L129.436 67.0055L128.973 66.7399L128.845 66.6661L128.412 66.4201L128.294 66.3512L127.92 66.115L127.812 66.0461L127.482 65.8297L127.384 65.7657L127.099 65.5738L127.015 65.5148L126.774 65.3475L126.7 65.2934L126.508 65.1556L126.444 65.1064L126.301 64.9982L126.238 64.949L126.149 64.885L126.09 64.8407L126.06 64.8112L126.026 64.7866L124.845 65.5787L122.415 67.2073C127.645 84.0238 147.9 83.8369 147.905 83.8369C137.485 83.3449 126.538 75.4384 125.234 69.5295Z" fill="#263238"/>
<path d="M151.196 52.4522C151.196 52.4522 148.943 49.8151 142.03 51.0057C137.858 51.729 130.773 56.5899 127.27 64.6883C126.828 65.7116 125.834 66.056 125.302 66.7448C125.179 66.8991 125.044 67.0438 124.899 67.1778L122.71 67.2024C122.71 59.6354 126.956 51.9996 130.97 47.5814C134.985 43.1633 141.597 41.0034 146.311 40.8361C147.982 40.7589 149.648 41.0792 151.172 41.7709C152.456 45.3477 153.012 48.8951 151.196 52.4522Z" fill="#37474F"/>
<path d="M127.753 63.6698C127.753 63.6698 123.817 62.3414 125.435 56.0339C123.737 59.5195 122.812 63.331 122.724 67.2073L124.914 67.1827C125.059 67.0487 125.194 66.9039 125.317 66.7497C125.849 66.0609 126.842 65.7165 127.285 64.6931C127.428 64.3389 127.59 64.0043 127.753 63.6698Z" fill="#263238"/>
<path d="M147.162 57.2984C148.821 55.9701 150.193 54.32 151.197 52.4473C152.992 48.8901 152.461 45.3428 151.197 41.7561C155.251 43.547 157.671 48.8163 158.577 53.0721C159.069 55.4534 159.128 57.5001 158.724 58.4841C157.588 61.1606 150.931 71.9747 122.42 67.2122L122.449 64.2159C129.588 63.7731 142.055 61.5985 147.162 57.2984Z" fill="#37474F"/>
<path d="M151.196 52.4522C151.196 52.4522 151.536 44.1177 146.311 40.8361C147.982 40.7589 149.648 41.0792 151.172 41.7709C152.456 45.3477 153.012 48.8951 151.196 52.4522Z" fill="#263238"/>
<path d="M126.936 65.2246C126.905 64.9351 126.797 64.6591 126.624 64.4248C126.451 64.1905 126.219 64.0064 125.952 63.8913C125.005 63.5588 124.002 63.4151 123 63.4681C121.969 63.4151 120.939 63.5828 119.979 63.9601C119.733 64.0785 119.522 64.2585 119.366 64.4827C119.21 64.7068 119.114 64.9675 119.089 65.2394C118.985 66.1348 118.921 67.6501 119.512 68.5111C120.484 69.3443 121.729 69.7908 123.01 69.7657C124.285 69.7934 125.524 69.3463 126.488 68.5111C127.074 67.6354 127.015 66.12 126.936 65.2246Z" fill="#455A64"/>
<path d="M57.4411 81.6425C47.2813 66.3167 42.3712 53.7166 50.6023 52.6145C53.1164 53.2 54.8876 56.0979 57.082 62.5578C57.082 62.5578 61.5838 72.3093 63.6059 76.4814C67.3943 79.5171 74.6906 86.3214 78.3659 87.8614C79.0202 88.1271 79.9796 87.5563 80.6438 87.3202C82.4347 86.6953 83.4679 87.1332 85.2145 86.9807C86.5823 86.8626 87.2809 86.3854 87.4482 86.6806C87.6514 87.0188 87.7137 87.4233 87.6217 87.807C87.5297 88.1907 87.2907 88.5229 86.9562 88.7322C86.4297 89.1343 85.8039 89.386 85.1456 89.4604C85.1456 89.4604 85.9722 90.0852 89.1505 90.0754C92.7175 90.0754 94.105 91.0249 91.2907 94.6067C89.5244 96.8453 86.7299 97.5243 80.4667 95.2709C78.1482 94.4861 75.889 93.5357 73.7066 92.4271C69.4016 90.0655 70.9268 91.0545 67.5419 88.9093C64.8014 87.1726 58.43 83.148 57.4411 81.6425Z" fill="#9C5456"/>
<path d="M188.559 81.6425C200.642 65.19 205.11 53.9478 196.874 52.8457C194.364 53.4312 192.588 56.334 190.394 62.7939C190.394 62.7939 184.416 72.3141 182.399 76.4863C178.606 79.5219 171.309 86.3263 167.639 87.8663C166.99 88.1319 166.025 87.5612 165.361 87.3251C163.57 86.7002 162.537 87.1381 160.79 86.9856C159.423 86.8675 158.724 86.3903 158.557 86.6855C158.353 87.0237 158.291 87.4282 158.383 87.8119C158.475 88.1956 158.714 88.5278 159.049 88.7371C159.575 89.1392 160.201 89.3909 160.859 89.4653C160.859 89.4653 160.033 90.0901 156.854 90.0803C153.292 90.0803 151.905 91.0298 154.714 94.6116C156.48 96.8502 159.275 97.5291 165.538 95.2758C167.857 94.4909 170.116 93.5406 172.298 92.432C176.608 90.0704 175.078 91.0593 178.463 88.9142C181.203 87.1725 187.501 83.084 188.559 81.6425Z" fill="#FFB3B2"/>
<path d="M195.816 52.5702C195.816 52.5702 198.733 52.5702 200.205 54.0068C201.676 55.4435 202.227 58.0855 200.741 62.1445C199.255 66.2035 195.196 72.8455 195.196 72.8455C195.196 72.8455 190.414 73.1063 186.163 68.7964L190.404 60.8948C190.404 60.8948 192.042 54.9466 195.816 52.5702Z" fill="#E2288D"/>
<path opacity="0.1" d="M195.816 52.5702C195.816 52.5702 198.733 52.5702 200.205 54.0068C201.676 55.4435 202.227 58.0855 200.741 62.1445C199.255 66.2035 195.196 72.8455 195.196 72.8455C195.196 72.8455 190.414 73.1063 186.163 68.7964L190.404 60.8948C190.404 60.8948 192.042 54.9466 195.816 52.5702Z" fill="black"/>
</g>
<defs>
<clipPath id="clip0_83_1467">
<rect width="246" height="209" fill="white"/>
</clipPath>
</defs>
</svg>
