<svg width="450" height="450" viewBox="0 0 450 450" fill="none" xmlns="http://www.w3.org/2000/svg">
<g clip-path="url(#clip0_237_2)">
<path d="M450 344.16H0V344.385H450V344.16Z" fill="#EBEBEB"/>
<path d="M404.91 358.641H375.102V358.866H404.91V358.641Z" fill="#EBEBEB"/>
<path d="M298.098 361.089H290.277V361.314H298.098V361.089Z" fill="#EBEBEB"/>
<path d="M374.202 350.289H356.931V350.514H374.202V350.289Z" fill="#EBEBEB"/>
<path d="M86.0851 351.801H47.2141V352.026H86.0851V351.801Z" fill="#EBEBEB"/>
<path d="M99.8012 351.801H94.1042V352.026H99.8012V351.801Z" fill="#EBEBEB"/>
<path d="M202.635 355.599H118.323V355.824H202.635V355.599Z" fill="#EBEBEB"/>
<path d="M213.3 304.02H39.5192C38.1578 304.018 36.853 303.475 35.8912 302.512C34.9294 301.548 34.3892 300.242 34.3892 298.881V54.594C34.401 53.2404 34.9464 51.9462 35.907 50.9924C36.8675 50.0386 38.1655 49.5023 39.5192 49.5H213.3C214.663 49.5 215.97 50.0414 216.934 51.0052C217.898 51.9689 218.439 53.2761 218.439 54.639V298.881C218.439 300.244 217.898 301.551 216.934 302.515C215.97 303.479 214.663 304.02 213.3 304.02ZM39.5192 49.68C38.2174 49.6824 36.9699 50.2012 36.0503 51.1225C35.1306 52.0437 34.6142 53.2923 34.6142 54.594V298.881C34.6142 300.183 35.1306 301.431 36.0503 302.353C36.9699 303.274 38.2174 303.793 39.5192 303.795H213.3C214.603 303.793 215.851 303.274 216.772 302.353C217.693 301.432 218.212 300.184 218.214 298.881V54.594C218.212 53.2915 217.693 52.0429 216.772 51.1219C215.851 50.2009 214.603 49.6824 213.3 49.68H39.5192Z" fill="#EBEBEB"/>
<path d="M407.979 304.02H234.189C232.827 304.018 231.521 303.475 230.558 302.512C229.595 301.549 229.052 300.243 229.05 298.881V54.594C229.064 53.2396 229.612 51.9454 230.574 50.9918C231.536 50.0383 232.835 49.5023 234.189 49.5H407.979C409.331 49.5047 410.627 50.042 411.585 50.9956C412.544 51.9491 413.088 53.242 413.1 54.594V298.881C413.1 300.241 412.561 301.545 411.601 302.508C410.641 303.472 409.339 304.015 407.979 304.02ZM234.189 49.68C232.886 49.6824 231.638 50.2009 230.717 51.1219C229.796 52.0429 229.277 53.2915 229.275 54.594V298.881C229.277 300.184 229.796 301.432 230.717 302.353C231.638 303.274 232.886 303.793 234.189 303.795H407.979C409.282 303.793 410.53 303.274 411.451 302.353C412.372 301.432 412.891 300.184 412.893 298.881V54.594C412.891 53.2915 412.372 52.0429 411.451 51.1219C410.53 50.2009 409.282 49.6824 407.979 49.68H234.189Z" fill="#EBEBEB"/>
<path d="M364.05 249.633C364.05 249.633 358.209 216.225 370.8 176.733C383.391 137.241 386.1 117.657 376.2 102.033" stroke="#EBEBEB" stroke-width="0.671805" stroke-miterlimit="10"/>
<path d="M357.3 247.896C337.176 226.062 362.25 170.1 350.406 152.307C338.562 134.514 333.306 104.094 333.306 104.094" stroke="#EBEBEB" stroke-width="0.671805" stroke-miterlimit="10"/>
<path d="M376.542 107.379C387.164 107.379 395.775 97.5874 395.775 85.509C395.775 73.4305 387.164 63.639 376.542 63.639C365.92 63.639 357.309 73.4305 357.309 85.509C357.309 97.5874 365.92 107.379 376.542 107.379Z" fill="#EBEBEB"/>
<path d="M376.542 158.517C387.164 158.517 395.775 148.725 395.775 136.647C395.775 124.569 387.164 114.777 376.542 114.777C365.92 114.777 357.309 124.569 357.309 136.647C357.309 148.725 365.92 158.517 376.542 158.517Z" fill="#F5F5F5"/>
<path d="M335.349 129.249C345.971 129.249 354.582 119.457 354.582 107.379C354.582 95.3006 345.971 85.509 335.349 85.509C324.727 85.509 316.116 95.3006 316.116 107.379C316.116 119.457 324.727 129.249 335.349 129.249Z" fill="#F0F0F0"/>
<path d="M372.456 148.5C363.208 159.725 357.885 173.667 357.3 188.199C356.4 212.4 360.603 245.979 357.3 258.507" stroke="#F5F5F5" stroke-width="0.671805" stroke-miterlimit="10"/>
<path d="M201.294 142.785H42.6333V343.692H201.294V142.785Z" fill="#F0F0F0"/>
<path d="M195.687 150.102H48.2402V193.068H195.687V150.102Z" fill="#E0E0E0"/>
<path d="M56.6192 157.059H48.2402V193.068H56.6192V157.059Z" fill="#EBEBEB"/>
<path d="M97.1192 157.059H88.7402V193.068H97.1192V157.059Z" fill="#EBEBEB"/>
<path d="M143.098 156.154L134.84 157.578L140.957 193.063L149.214 191.64L143.098 156.154Z" fill="#EBEBEB"/>
<path d="M66.9959 161.802H58.6169V193.068H66.9959V161.802Z" fill="#EBEBEB"/>
<path d="M86.2472 161.802H77.8682V193.068H86.2472V161.802Z" fill="#EBEBEB"/>
<path d="M134.838 161.802H126.459V193.068H134.838V161.802Z" fill="#EBEBEB"/>
<path d="M108.128 160.729L99.9482 162.547L106.731 193.068L114.911 191.251L108.128 160.729Z" fill="#EBEBEB"/>
<path d="M74.2321 155.277H70.0471V193.068H74.2321V155.277Z" fill="#EBEBEB"/>
<path d="M124.047 155.277H119.862V193.068H124.047V155.277Z" fill="#EBEBEB"/>
<path d="M48.231 242.829L195.678 242.829V199.863L48.231 199.863V242.829Z" fill="#E0E0E0"/>
<path d="M187.299 242.829H195.678V206.82H187.299V242.829Z" fill="#EBEBEB"/>
<path d="M146.799 242.829H155.178V206.82H146.799V242.829Z" fill="#EBEBEB"/>
<path d="M94.7115 241.406L102.969 242.829L109.085 207.343L100.828 205.92L94.7115 241.406Z" fill="#EBEBEB"/>
<path d="M176.931 242.829H185.31V211.563H176.931V242.829Z" fill="#EBEBEB"/>
<path d="M157.671 242.829H166.05V211.563H157.671V242.829Z" fill="#EBEBEB"/>
<path d="M109.08 242.829H117.459V211.563H109.08V242.829Z" fill="#EBEBEB"/>
<path d="M129.036 241.012L137.216 242.83L143.999 212.308L135.82 210.491L129.036 241.012Z" fill="#EBEBEB"/>
<path d="M169.686 242.829H173.871V205.038H169.686V242.829Z" fill="#EBEBEB"/>
<path d="M119.871 242.829H124.056V205.038H119.871V242.829Z" fill="#EBEBEB"/>
<path d="M56.6192 206.829H48.2402V242.838H56.6192V206.829Z" fill="#EBEBEB"/>
<path d="M66.9959 211.572H58.6169V242.838H66.9959V211.572Z" fill="#EBEBEB"/>
<path d="M86.2472 211.572H77.8682V242.838H86.2472V211.572Z" fill="#EBEBEB"/>
<path d="M74.2321 205.038H70.0471V242.829H74.2321V205.038Z" fill="#EBEBEB"/>
<path d="M195.687 249.633H48.2402V292.599H195.687V249.633Z" fill="#E0E0E0"/>
<path d="M141.246 256.59H132.867V292.599H141.246V256.59Z" fill="#EBEBEB"/>
<path d="M187.227 255.68L178.97 257.104L185.087 292.589L193.344 291.166L187.227 255.68Z" fill="#EBEBEB"/>
<path d="M111.123 261.333H102.744V292.599H111.123V261.333Z" fill="#EBEBEB"/>
<path d="M130.374 261.333H121.995V292.599H130.374V261.333Z" fill="#EBEBEB"/>
<path d="M178.965 261.333H170.586V292.599H178.965V261.333Z" fill="#EBEBEB"/>
<path d="M152.259 260.259L144.08 262.077L150.863 292.598L159.042 290.781L152.259 260.259Z" fill="#EBEBEB"/>
<path d="M118.359 254.799H114.174V292.59H118.359V254.799Z" fill="#EBEBEB"/>
<path d="M168.174 254.799H163.989V292.59H168.174V254.799Z" fill="#EBEBEB"/>
<path d="M90.8698 255.687L82.6125 257.11L88.7292 292.596L96.9865 291.173L90.8698 255.687Z" fill="#EBEBEB"/>
<path d="M82.6021 261.333H74.2231V292.599H82.6021V261.333Z" fill="#EBEBEB"/>
<path d="M55.8962 260.258L47.7168 262.076L54.5 292.597L62.6794 290.78L55.8962 260.258Z" fill="#EBEBEB"/>
<path d="M71.82 254.799H67.635V292.59H71.82V254.799Z" fill="#EBEBEB"/>
<path d="M389.556 234.747H291.942C289.834 234.747 287.813 235.584 286.323 237.075C284.832 238.565 283.995 240.586 283.995 242.694L273.195 311.508H386.703L397.503 242.694C397.503 240.586 396.666 238.565 395.175 237.075C393.685 235.584 391.664 234.747 389.556 234.747Z" fill="#EBEBEB"/>
<path d="M273.474 261.36L273.6 261H235.8V344.7H282.6V271.035C282.635 268.552 281.702 266.154 279.998 264.347C278.295 262.541 275.954 261.47 273.474 261.36Z" fill="#E0E0E0"/>
<path d="M235.404 261.333C232.831 261.333 230.363 262.355 228.544 264.175C226.724 265.994 225.702 268.462 225.702 271.035V344.7H245.097V271.035C245.097 268.463 244.076 265.997 242.259 264.178C240.441 262.359 237.976 261.335 235.404 261.333Z" fill="#F0F0F0"/>
<path d="M382.374 261.36L382.5 261H344.7V344.7H391.5V271.035C391.535 268.552 390.602 266.154 388.899 264.347C387.195 262.541 384.855 261.47 382.374 261.36Z" fill="#E0E0E0"/>
<path d="M334.602 285.75H251.433V344.7H334.602V285.75Z" fill="#E0E0E0"/>
<path d="M256.851 279.711H350.451V300.15H256.851C255.506 300.154 254.174 299.892 252.93 299.379C251.687 298.867 250.556 298.115 249.604 297.165C248.652 296.215 247.896 295.087 247.381 293.845C246.865 292.603 246.6 291.271 246.6 289.926C246.601 288.582 246.867 287.251 247.384 286.01C247.9 284.769 248.655 283.642 249.607 282.693C250.559 281.744 251.689 280.992 252.932 280.481C254.175 279.969 255.507 279.707 256.851 279.711Z" fill="#F5F5F5"/>
<path d="M344.304 261.333C341.731 261.333 339.263 262.355 337.444 264.175C335.624 265.994 334.602 268.462 334.602 271.035V344.7H353.997V271.035C353.997 268.463 352.976 265.997 351.159 264.178C349.341 262.359 346.876 261.335 344.304 261.333Z" fill="#F0F0F0"/>
<path d="M370.8 312.525H386.703L397.503 242.694C397.503 241.65 397.297 240.615 396.897 239.651C396.497 238.686 395.911 237.81 395.172 237.071C394.433 236.333 393.556 235.748 392.591 235.349C391.626 234.95 390.591 234.746 389.547 234.747C387.439 234.747 385.418 235.584 383.928 237.075C382.437 238.565 381.6 240.586 381.6 242.694L370.8 312.525Z" fill="#E0E0E0"/>
<path d="M225 384.804C321.374 384.804 399.501 380.243 399.501 374.616C399.501 368.989 321.374 364.428 225 364.428C128.626 364.428 50.499 368.989 50.499 374.616C50.499 380.243 128.626 384.804 225 384.804Z" fill="#F5F5F5"/>
<path d="M77.4 350.577C77.4 350.577 72.189 340.38 78.147 330.336C84.105 320.292 85.824 317.916 82.026 315.855C78.228 313.794 76.5 323.901 76.5 323.901C76.5 323.901 73.305 316.953 75.942 309.681C78.579 302.409 80.244 290.565 76.635 289.296C73.026 288.027 75.942 304.074 72.819 309.537C71.2337 305.729 70.2032 301.713 69.759 297.612C69.327 291.771 70.002 282.447 67.149 280.053C64.296 277.659 62.478 279.315 65.277 292.203C66.96 299.894 67.8914 307.731 68.058 315.603C68.058 315.603 61.83 298.665 57.681 298.17C53.532 297.675 53.541 303.156 57.087 307.899C60.633 312.642 67.5 321.156 68.607 325.53C68.607 325.53 61.83 312.813 55.719 316.71C49.608 320.607 61.038 328.293 66.123 331.11C71.208 333.927 74.745 351.288 74.745 351.288L77.4 350.577Z" fill="#EE512C"/>
<path opacity="0.2" d="M77.4 350.577C77.4 350.577 72.189 340.38 78.147 330.336C84.105 320.292 85.824 317.916 82.026 315.855C78.228 313.794 76.5 323.901 76.5 323.901C76.5 323.901 73.305 316.953 75.942 309.681C78.579 302.409 80.244 290.565 76.635 289.296C73.026 288.027 75.942 304.074 72.819 309.537C71.2337 305.729 70.2032 301.713 69.759 297.612C69.327 291.771 70.002 282.447 67.149 280.053C64.296 277.659 62.478 279.315 65.277 292.203C66.96 299.894 67.8914 307.731 68.058 315.603C68.058 315.603 61.83 298.665 57.681 298.17C53.532 297.675 53.541 303.156 57.087 307.899C60.633 312.642 67.5 321.156 68.607 325.53C68.607 325.53 61.83 312.813 55.719 316.71C49.608 320.607 61.038 328.293 66.123 331.11C71.208 333.927 74.745 351.288 74.745 351.288L77.4 350.577Z" fill="black"/>
<path d="M73.2511 354.762C73.2511 354.762 78.3001 344.493 72.2431 334.53C66.1861 324.567 64.3951 322.218 68.1661 320.13C71.9371 318.042 73.8001 328.068 73.8001 328.068C73.8001 328.068 76.9051 321.084 74.1601 313.848C71.4151 306.612 69.6601 294.795 73.1971 293.472C76.7341 292.149 74.0971 308.232 77.2921 313.659C78.826 309.831 79.802 305.803 80.1901 301.698C80.5411 295.848 79.7401 286.533 82.5571 284.103C85.3741 281.673 87.2191 283.302 84.6001 296.226C83.0214 303.928 82.1955 311.764 82.1341 319.626C82.1341 319.626 88.0831 302.643 92.2231 302.094C96.3631 301.545 96.4351 307.017 92.9521 311.814C89.4691 316.611 82.7281 325.206 81.6661 329.598C81.6661 329.598 88.2811 316.791 94.4281 320.598C100.575 324.405 89.2711 332.244 84.2221 335.097C79.1731 337.95 75.8701 355.392 75.8701 355.392L73.2511 354.762Z" fill="#EE512C"/>
<path d="M96.6511 347.508H54.7471L58.1401 374.4H93.2581L96.6511 347.508Z" fill="#EE512C"/>
<g opacity="0.6">
<path d="M96.6511 347.508H54.7471L58.1401 374.4H93.2581L96.6511 347.508Z" fill="white"/>
</g>
<path d="M193.5 148.014L193.95 141.228C193.95 141.228 192.33 139.239 192.447 138.078C192.564 136.917 195.363 130.482 196.299 130.266C197.235 130.05 201.879 132.885 201.816 134.379C201.753 135.873 198.54 141.075 198.045 141.453L198 148.707L193.5 148.014Z" fill="#E4897B"/>
<path d="M132.3 126.837C128.196 127.989 126.072 135.468 128.025 149.418C129.978 163.368 124.578 181.89 124.578 181.89C124.578 181.89 146.997 188.865 161.1 179.937C175.203 171.009 155.097 153.315 155.097 153.315C155.097 153.315 163.278 158.868 166.05 166.365C166.597 165.064 166.754 163.631 166.5 162.243C164.697 158.576 162.08 155.368 158.85 152.865C153.297 148.437 157.95 138.015 154.053 132.39C150.156 126.765 148.122 122.4 132.3 126.837Z" fill="#263238"/>
<path d="M155.025 140.787C155.025 140.787 154.575 148.887 157.428 150.84C160.281 152.793 166.203 154.368 168.147 158.112" stroke="#263238" stroke-width="0.328153" stroke-linecap="round" stroke-linejoin="round"/>
<path d="M159.156 160.326C167.4 160.938 183.6 173.961 188.1 174.861C192.6 175.761 193.203 144 193.203 144H199.8C199.8 144 198.603 178.857 193.797 182.7C188.991 186.543 158.346 174.888 158.346 174.888L159.156 160.326Z" fill="#EE512C"/>
<path opacity="0.3" d="M199.8 144C199.8 144 198.603 178.857 193.797 182.7C190.665 185.22 176.508 181.098 167.058 177.957C163.557 176.787 160.704 175.743 159.3 175.257L158.346 174.897L159.165 160.335C167.4 160.938 183.6 173.97 188.1 174.87C192.6 175.77 193.203 144 193.203 144H199.8Z" fill="black"/>
<path d="M192.6 143.1H199.8L200.592 145.8H192.6V143.1Z" fill="#EE512C"/>
<path opacity="0.2" d="M167.058 177.957C163.557 176.787 160.704 175.752 159.3 175.257V168.813C159.3 168.813 164.961 172.71 167.058 177.957Z" fill="black"/>
<path d="M150.408 330.03C144.666 337.23 139.5 343.8 135 348.57C130.5 353.403 128.178 356.4 128.178 356.4L123.732 353.844C123.732 353.844 127.845 347.337 133.425 338.364C138.168 330.75 143.973 321.354 149.247 312.651C156.069 301.401 162 291.312 163.566 287.703C164.682 285.138 161.658 275.283 158.319 265.995C154.926 256.536 151.2 247.653 151.2 247.653L163.341 227.088C163.341 227.088 168.282 240.777 172.674 255.222C175.563 264.672 178.191 274.455 179.082 280.953C180.324 290.034 164.7 312.093 150.408 330.03Z" fill="#E4897B"/>
<path opacity="0.2" d="M150.444 330.03C144.702 337.23 139.185 343.8 135.081 348.57C134.496 345.636 133.902 342.162 133.434 338.373C138.177 330.759 143.982 321.363 149.256 312.66C149.144 318.474 149.542 324.286 150.444 330.03Z" fill="black"/>
<path opacity="0.2" d="M172.674 255.231L158.274 266.031C154.881 256.572 151.155 247.689 151.155 247.689L163.296 227.124C163.296 227.124 168.3 240.786 172.674 255.231Z" fill="black"/>
<path d="M147.6 366.912L142.425 367.587C142.425 367.587 135 331.038 135.225 300.879C132.468 290.899 130.316 280.761 128.781 270.522C126.981 258.174 126.081 244.422 128.475 234.162L146.475 242.262L146.844 269.262L147.15 291.762L147.6 366.912Z" fill="#E4897B"/>
<path opacity="0.2" d="M146.844 269.262L128.781 270.522C126.981 258.174 126.081 244.422 128.475 234.162L146.475 242.262L146.844 269.262Z" fill="black"/>
<path d="M124.029 351C124.56 350.613 129.042 357.3 129.042 357.3C129.042 357.3 128.043 364.293 130.068 368.811C132.093 373.329 128.16 372.942 124.893 368.667L116.793 358.083C114.489 355.095 118.53 355.014 124.029 351Z" fill="#263238"/>
<path d="M130.563 362.412C129.537 362.169 128.88 359.271 128.763 358.695V358.605V358.542V358.488L128.835 358.443C128.934 358.443 130.824 357.813 131.85 358.443C132.007 358.532 132.142 358.654 132.248 358.8C132.354 358.946 132.427 359.112 132.462 359.289C132.543 359.685 132.462 359.964 132.237 360.117C132.012 360.27 131.202 360.162 130.527 359.856C130.979 360.275 131.306 360.81 131.472 361.404C131.489 361.523 131.481 361.644 131.45 361.76C131.419 361.876 131.366 361.984 131.292 362.079C131.223 362.191 131.128 362.284 131.015 362.352C130.903 362.419 130.775 362.458 130.644 362.466L130.563 362.412ZM130.653 361.998C130.698 361.998 130.824 361.998 131.022 361.782C131.061 361.733 131.089 361.677 131.105 361.616C131.12 361.556 131.123 361.493 131.112 361.431C131.022 360.765 130.023 359.793 129.312 359.199C129.6 360.441 130.176 361.881 130.653 361.998ZM129.483 358.731C130.572 359.406 131.769 359.937 132.066 359.73C132.156 359.667 132.129 359.46 132.066 359.343C132.046 359.224 131.999 359.111 131.929 359.013C131.858 358.915 131.767 358.834 131.661 358.776C131.36 358.625 131.026 358.553 130.689 358.569C130.282 358.578 129.878 358.632 129.483 358.731Z" fill="#EE512C"/>
<path d="M140.589 364.32C140.589 363.663 148.689 364.158 148.689 364.158C148.689 364.158 153.639 369.225 158.454 370.359C163.269 371.493 160.578 374.4 155.196 374.4H141.867C138.042 374.4 140.4 371.115 140.589 364.32Z" fill="#263238"/>
<path d="M149.562 365.184L149.49 365.139V365.085C149.49 365.085 149.49 365.04 149.49 365.022C149.486 364.995 149.486 364.968 149.49 364.941C149.49 364.842 150.201 362.979 151.29 362.529C151.454 362.453 151.632 362.414 151.812 362.414C151.992 362.414 152.171 362.453 152.334 362.529C152.703 362.7 152.883 362.925 152.865 363.204C152.865 363.627 152.271 364.05 151.614 364.401C152.221 364.302 152.843 364.37 153.414 364.599C153.518 364.658 153.608 364.737 153.681 364.831C153.753 364.925 153.806 365.033 153.837 365.148C153.897 365.293 153.911 365.452 153.877 365.605C153.843 365.758 153.763 365.897 153.648 366.003C153.439 366.145 153.19 366.215 152.937 366.201C151.761 366.065 150.618 365.721 149.562 365.184ZM150.3 365.049C151.488 365.553 152.955 365.994 153.342 365.688C153.342 365.688 153.477 365.571 153.396 365.256C153.378 365.196 153.348 365.141 153.307 365.093C153.267 365.045 153.218 365.005 153.162 364.977C152.863 364.841 152.536 364.78 152.208 364.797C151.565 364.815 150.926 364.899 150.3 365.049ZM151.416 362.898C150.776 363.309 150.289 363.919 150.03 364.635C151.227 364.176 152.379 363.555 152.397 363.186C152.397 363.078 152.217 362.97 152.109 362.925C152.001 362.875 151.882 362.849 151.763 362.849C151.643 362.849 151.525 362.875 151.416 362.925V362.898Z" fill="#EE512C"/>
<path d="M154.8 260.937L174.267 250.74C168.147 232.128 162.621 221.58 162.621 221.58C143.487 224.856 145.233 239.985 145.233 239.985C145.233 239.985 150.147 250.074 154.8 260.937Z" fill="#EE512C"/>
<path opacity="0.6" d="M153.585 258.066C153.999 259.011 154.422 259.974 154.836 260.937L174.303 250.74C168.183 232.137 162.657 221.58 162.657 221.58C150.849 223.614 146.997 230.148 145.773 234.846C145.32 236.519 145.15 238.256 145.269 239.985C145.269 239.985 149.31 248.4 153.585 258.066Z" fill="white"/>
<path opacity="0.2" d="M153.585 258.066C149.31 248.364 145.269 239.985 145.269 239.985C145.15 238.256 145.32 236.519 145.773 234.846C146.384 234.451 147.061 234.167 147.771 234.009C147.771 234.009 153 242.172 153.585 258.066Z" fill="black"/>
<path d="M148.806 265.14L148.14 234L163.566 229.5C163.566 229.5 162.351 215.217 160.551 208.17C160.551 208.17 135.495 201.933 131.67 210.429C131.67 210.429 131.67 210.564 131.616 210.609L131.562 210.69C131.562 210.69 124.362 223.353 126.504 265.131L148.806 265.14Z" fill="#EE512C"/>
<path opacity="0.6" d="M148.806 265.14L148.14 234L163.566 229.5C163.566 229.5 162.351 215.217 160.551 208.17C160.551 208.17 135.495 201.933 131.67 210.429C131.67 210.429 131.67 210.564 131.616 210.609L131.562 210.69C131.562 210.69 124.362 223.353 126.504 265.131L148.806 265.14Z" fill="white"/>
<path d="M131.4 206.127V210.375L160.2 208.152V203.13L131.4 206.127Z" fill="#263238"/>
<path d="M141.142 204.739L139.702 204.811L140.069 212.155L141.509 212.083L141.142 204.739Z" fill="#EE512C"/>
<path d="M153.737 204.154L147.39 204.723L147.822 209.536L154.168 208.968L153.737 204.154Z" fill="white"/>
<path d="M158.876 202.405L157.438 202.478L157.812 209.813L159.25 209.74L158.876 202.405Z" fill="#EE512C"/>
<path opacity="0.6" d="M141.142 204.739L139.702 204.811L140.069 212.155L141.509 212.083L141.142 204.739Z" fill="white"/>
<path opacity="0.6" d="M158.876 202.405L157.438 202.478L157.812 209.813L159.25 209.74L158.876 202.405Z" fill="white"/>
<path d="M160.551 203.634L131.535 206.145C130.842 195.345 130.158 188.397 123.768 169.173C123.216 167.487 122.616 165.702 121.968 163.818C125.907 162.562 129.932 161.59 134.01 160.911C138.316 160.146 142.671 159.686 147.042 159.534C152.685 159.534 159.165 160.128 159.165 160.128C159.165 160.128 160.065 160.353 160.677 166.338C161.199 171.954 161.721 183.195 160.551 203.634Z" fill="#EE512C"/>
<path opacity="0.3" d="M160.551 203.634L131.535 206.145C131.237 198.74 130.151 191.387 128.295 184.212C127.548 181.314 126.612 178.056 125.424 174.312C124.92 172.71 124.371 171.018 123.768 169.209C123.165 167.4 122.616 165.735 121.968 163.854C125.907 162.598 129.932 161.626 134.01 160.947C138.316 160.182 142.671 159.722 147.042 159.57C152.685 159.57 159.174 160.164 159.174 160.164C159.174 160.164 160.074 160.389 160.677 166.365C161.199 171.954 161.721 183.195 160.551 203.634Z" fill="black"/>
<path d="M124.65 263.862L150.075 263.637L149.625 267.462L125.775 267.237L124.65 263.862Z" fill="#EE512C"/>
<path d="M153.225 260.712L174.375 249.237L175.5 252.612L155.025 262.737L153.225 260.712Z" fill="#EE512C"/>
<path d="M141.192 159.93C141.192 159.93 133.2 159.615 133.65 163.701C134.1 167.787 153.585 179.64 153.585 179.64C153.585 179.64 152.721 158.103 141.192 159.93Z" stroke="#EE512C" stroke-width="0.671805" stroke-miterlimit="10"/>
<path d="M144.639 165.951C137.439 165.051 135.333 161.973 135.333 161.973C138.258 159.219 137.727 155.151 136.98 152.613C136.748 151.809 136.447 151.026 136.08 150.273L144.693 151.884C144.495 153.074 144.383 154.277 144.36 155.484C144.328 156.391 144.41 157.298 144.603 158.184C145.188 160.758 146.655 160.794 146.655 160.794C148.185 163.611 144.639 165.951 144.639 165.951Z" fill="#E4897B"/>
<path opacity="0.2" d="M144.378 155.511C144.346 156.418 144.428 157.325 144.621 158.211C141.201 157.761 138.609 155.025 136.98 152.649C136.748 151.845 136.447 151.062 136.08 150.309L144.693 151.92C144.501 153.108 144.396 154.308 144.378 155.511Z" fill="black"/>
<path d="M142.956 128.043C150.444 128.313 152.712 132.417 152.973 140.157C153.297 149.823 150.903 156.6 141.615 154.188C129.006 150.921 130.5 127.575 142.956 128.043Z" fill="#E4897B"/>
<path d="M148.14 139.554C148.7 140.695 149.395 141.764 150.21 142.74C149.979 143.041 149.67 143.273 149.316 143.41C148.961 143.546 148.576 143.582 148.203 143.514L148.14 139.554Z" fill="#DE5753"/>
<path d="M143.586 138.771C143.586 139.392 143.235 139.887 142.821 139.878C142.407 139.869 142.092 139.365 142.092 138.753C142.092 138.141 142.443 137.646 142.857 137.646C143.271 137.646 143.595 138.159 143.586 138.771Z" fill="#263238"/>
<path d="M142.686 137.7L144.027 137.196C144.027 137.196 143.343 138.285 142.686 137.7Z" fill="#263238"/>
<path d="M151.2 138.753C151.2 139.365 150.858 139.86 150.444 139.851C150.03 139.842 149.706 139.347 149.715 138.726C149.724 138.105 150.066 137.619 150.471 137.628C150.876 137.637 151.245 138.132 151.2 138.753Z" fill="#263238"/>
<path d="M150.3 137.7L151.65 137.187C151.65 137.187 151.002 138.267 150.3 137.7Z" fill="#263238"/>
<path d="M143.703 133.596C143.113 133.502 142.509 133.545 141.938 133.721C141.367 133.898 140.844 134.203 140.409 134.613" stroke="#263238" stroke-width="0.475613" stroke-linecap="round" stroke-linejoin="round"/>
<path d="M149.157 133.488C149.673 133.377 150.207 133.384 150.72 133.509C151.233 133.634 151.711 133.873 152.118 134.208" stroke="#263238" stroke-width="0.475613" stroke-linecap="round" stroke-linejoin="round"/>
<path d="M146.997 146.421C146.617 147.256 146.295 148.116 146.034 148.995L145.548 148.932C143.379 148.626 142.47 147.771 142.119 146.916C141.96 146.491 141.905 146.035 141.957 145.584C141.976 145.328 142.034 145.076 142.128 144.837C143.383 145.619 144.792 146.123 146.259 146.313C146.7 146.394 146.997 146.421 146.997 146.421Z" fill="#263238"/>
<path d="M146.259 146.313L145.953 147.06C143.91 146.772 142.515 146.295 141.957 145.584C141.976 145.328 142.034 145.076 142.128 144.837C143.383 145.619 144.792 146.123 146.259 146.313Z" fill="white"/>
<path d="M145.548 148.932C143.379 148.626 142.47 147.771 142.119 146.916C142.944 147.043 143.74 147.317 144.468 147.726C144.949 148.001 145.328 148.424 145.548 148.932Z" fill="#DE5753"/>
<path d="M134.307 140.4C134.307 140.4 138.033 134.379 137.682 129.6C137.682 129.6 152.748 124.083 152.919 139.176C152.919 139.176 154.863 125.856 142.002 125.082C129.141 124.308 128.502 143.145 134.937 149.004C134.937 148.968 131.994 144.126 134.307 140.4Z" fill="#263238"/>
<path d="M135.468 141.984C135.426 141.115 135.042 140.298 134.399 139.711C133.757 139.124 132.908 138.815 132.039 138.852C129.708 139.014 128.439 143.739 134.163 145.098C135 145.296 135.477 144.504 135.468 141.984Z" fill="#E4897B"/>
<path d="M138.753 123.093C142.803 121.968 153.603 121.815 156.15 132.993L154.647 133.74C152.111 132.464 149.368 131.651 146.547 131.337C145.948 130.272 145.245 129.268 144.45 128.34C144.533 129.289 144.533 130.244 144.45 131.193C144.45 131.193 137.403 132.219 134.253 135.09C129.303 139.59 128.997 142.443 128.997 142.443C128.997 142.443 125.568 126.747 138.753 123.093Z" fill="#263238"/>
<path d="M138.15 123.912C138.15 123.912 152.622 118.89 157.203 132.615" stroke="#263238" stroke-width="0.328153" stroke-linecap="round" stroke-linejoin="round"/>
<path d="M154.998 183.465C156.315 183.465 157.383 182.397 157.383 181.08C157.383 179.763 156.315 178.695 154.998 178.695C153.681 178.695 152.613 179.763 152.613 181.08C152.613 182.397 153.681 183.465 154.998 183.465Z" fill="white"/>
<path opacity="0.2" d="M128.295 184.212C127.548 181.314 126.612 178.056 125.424 174.312L126.648 171.756C126.648 171.756 129.825 179.163 128.295 184.212Z" fill="black"/>
<path d="M84.375 148.41L81.882 142.11C81.882 142.11 82.782 139.725 82.35 138.654C81.918 137.583 77.274 132.309 76.311 132.354C75.348 132.399 71.811 136.548 72.306 137.952C72.801 139.356 77.463 143.352 78.048 143.541L80.298 150.444L84.375 148.41Z" fill="#E4897B"/>
<path d="M121.959 163.8C118.125 164.844 103.059 179.469 100.575 179.469C98.091 179.469 84.15 145.944 84.15 145.944L79.425 148.932C79.425 148.932 89.1 186.462 94.95 189.612C100.8 192.762 126.738 178.596 126.738 178.596C126.738 178.596 127.125 171.324 126 167.976C125.696 167.015 125.172 166.137 124.471 165.413C123.77 164.688 122.91 164.136 121.959 163.8Z" fill="#EE512C"/>
<path opacity="0.3" d="M121.959 163.8C118.125 164.844 103.059 179.469 100.575 179.469C98.091 179.469 84.15 145.944 84.15 145.944L79.425 148.932C79.425 148.932 89.1 186.462 94.95 189.612C100.8 192.762 126.738 178.596 126.738 178.596C126.738 178.596 127.125 171.324 126 167.976C125.696 167.015 125.172 166.137 124.471 165.413C123.77 164.688 122.91 164.136 121.959 163.8Z" fill="black"/>
<path d="M78.3181 148.707L84.3751 144.837L85.9411 147.06L79.4251 151.137L78.3181 148.707Z" fill="#EE512C"/>
<path d="M290.097 139.905C290.097 139.905 266.697 161.982 255.897 165.672C245.097 169.362 217.332 183.033 217.332 183.033L213.075 179.676C213.075 179.487 209.97 181.89 209.934 183.555C209.934 184.761 212.985 194.868 213.624 194.859C216.594 194.859 219.924 188.055 219.924 188.055C219.924 188.055 255.474 178.794 261.846 176.004C268.218 173.214 294.48 152.73 294.48 152.73L290.097 139.905Z" fill="#B97964"/>
<path d="M295.281 134.613C288.45 136.305 279.675 148.275 279.675 148.275L285.975 159.462L296.172 155.7L295.281 134.613Z" fill="#EE512C"/>
<path opacity="0.6" d="M296.172 155.7L287.172 159.057L285.975 159.507L279.675 148.329C279.675 148.329 288.45 136.35 295.281 134.649L295.695 144.414L296.172 155.7Z" fill="white"/>
<path d="M279.674 146.214L287.099 159.462L284.552 161.325L278.459 148.14L279.674 146.214Z" fill="#EE512C"/>
<path opacity="0.2" d="M296.172 155.7L287.172 159.057C288 151.785 293.958 145.98 295.695 144.414L296.172 155.7Z" fill="black"/>
<path d="M296.514 367.488L288.981 368.28L287.568 352.035L295.101 351.243L296.514 367.488Z" fill="#B97964"/>
<path d="M334.089 366.939H326.79L326.187 350.037H333.495L334.089 366.939Z" fill="#B97964"/>
<path d="M325.8 366.093H334.665C334.81 366.094 334.951 366.144 335.064 366.236C335.177 366.327 335.255 366.455 335.286 366.597L336.726 373.095C336.755 373.233 336.756 373.375 336.73 373.513C336.704 373.651 336.651 373.783 336.574 373.901C336.498 374.019 336.398 374.12 336.282 374.2C336.166 374.279 336.035 374.335 335.898 374.364C335.817 374.373 335.735 374.373 335.655 374.364C332.793 374.319 330.705 374.139 327.096 374.139C324.882 374.139 318.186 374.373 315.126 374.373C312.066 374.373 311.661 371.349 312.912 371.07C318.537 369.846 322.812 368.145 324.612 366.525C324.942 366.242 325.364 366.089 325.8 366.093Z" fill="#263238"/>
<path d="M323.369 367.371C322.873 367.413 322.377 367.283 321.965 367.002C321.835 366.894 321.734 366.755 321.671 366.598C321.609 366.44 321.586 366.27 321.605 366.102C321.601 366.001 321.628 365.9 321.68 365.814C321.733 365.727 321.811 365.659 321.903 365.616C322.713 365.202 325.07 366.651 325.322 366.813C325.353 366.829 325.378 366.854 325.394 366.885C325.41 366.915 325.416 366.95 325.413 366.984C325.408 367.019 325.392 367.052 325.368 367.077C325.344 367.103 325.312 367.121 325.278 367.128C324.653 367.28 324.013 367.362 323.369 367.371ZM322.28 365.859C322.203 365.852 322.125 365.868 322.055 365.904C322.055 365.904 321.956 365.967 321.947 366.111C321.932 366.226 321.946 366.343 321.986 366.451C322.027 366.559 322.094 366.656 322.182 366.732C323.002 367.097 323.93 367.142 324.782 366.858C324.019 366.371 323.17 366.032 322.28 365.859Z" fill="#EE512C"/>
<path d="M325.233 367.11H325.152C324.396 366.705 322.938 365.103 323.091 364.329C323.116 364.2 323.185 364.083 323.287 363.999C323.389 363.915 323.517 363.87 323.649 363.87C323.779 363.852 323.912 363.863 324.038 363.901C324.164 363.94 324.28 364.006 324.378 364.095C325.224 364.779 325.404 366.885 325.413 366.984C325.419 367.007 325.418 367.032 325.409 367.054C325.401 367.077 325.386 367.096 325.367 367.11C325.347 367.124 325.324 367.131 325.3 367.131C325.276 367.131 325.252 367.124 325.233 367.11ZM323.766 364.149H323.685C323.46 364.149 323.442 364.284 323.433 364.329C323.343 364.797 324.27 366.021 325.017 366.588C324.959 365.751 324.645 364.953 324.117 364.302C324.021 364.212 323.897 364.158 323.766 364.149Z" fill="#EE512C"/>
<path d="M288.189 365.859H297.054C297.199 365.86 297.34 365.91 297.453 366.002C297.566 366.093 297.644 366.221 297.675 366.363L299.115 372.861C299.171 373.141 299.114 373.432 298.958 373.671C298.801 373.91 298.557 374.078 298.278 374.139H298.044C295.173 374.094 293.085 373.914 289.485 373.914C287.271 373.914 280.575 374.148 277.515 374.148C274.455 374.148 274.05 371.124 275.301 370.845C280.926 369.621 285.156 367.92 287.001 366.345C287.323 366.043 287.746 365.87 288.189 365.859Z" fill="#263238"/>
<path d="M285.768 367.137C285.274 367.181 284.78 367.05 284.373 366.768C284.241 366.661 284.138 366.523 284.075 366.365C284.012 366.207 283.99 366.036 284.013 365.868C284.009 365.767 284.035 365.666 284.087 365.58C284.14 365.493 284.218 365.425 284.31 365.382C285.111 364.968 287.469 366.417 287.73 366.579C287.76 366.594 287.785 366.619 287.8 366.65C287.814 366.681 287.818 366.717 287.811 366.75C287.807 366.785 287.793 366.818 287.771 366.845C287.748 366.873 287.718 366.893 287.685 366.903C287.056 367.048 286.413 367.127 285.768 367.137ZM284.688 365.625C284.61 365.621 284.533 365.637 284.463 365.67C284.418 365.67 284.364 365.742 284.355 365.877C284.338 365.991 284.349 366.108 284.388 366.216C284.428 366.324 284.493 366.421 284.58 366.498C285.399 366.866 286.327 366.914 287.181 366.633C286.423 366.137 285.576 365.795 284.688 365.625Z" fill="#EE512C"/>
<path d="M287.639 366.885H287.558C286.802 366.471 285.344 364.869 285.497 364.095C285.519 363.966 285.587 363.85 285.688 363.767C285.789 363.684 285.916 363.641 286.046 363.645C286.178 363.624 286.312 363.633 286.44 363.67C286.567 363.708 286.685 363.773 286.784 363.861C287.63 364.554 287.801 366.651 287.81 366.75C287.814 366.782 287.808 366.814 287.793 366.843C287.779 366.871 287.757 366.895 287.729 366.912C287.697 366.913 287.666 366.903 287.639 366.885ZM286.199 363.924H286.118C285.893 363.924 285.875 364.05 285.866 364.095C285.767 364.572 286.703 365.787 287.45 366.354C287.393 365.517 287.079 364.719 286.55 364.068C286.454 363.98 286.33 363.93 286.199 363.924Z" fill="#EE512C"/>
<path opacity="0.2" d="M295.101 351.243L287.568 352.035L288.306 360.414L295.839 359.622L295.101 351.243Z" fill="black"/>
<path opacity="0.2" d="M333.495 350.046H326.187L326.502 358.758H333.81L333.495 350.046Z" fill="black"/>
<path d="M330.48 201.762H291.78C288.099 221.868 276.57 293.031 284.841 356.436L297.954 354.816C297.954 354.816 296.739 270.639 308.313 239.517C309.645 256.176 311.229 273.897 312.597 283.32C315.972 306.531 323.181 357.246 323.181 357.246H336.528C336.528 357.246 333.828 308.7 332.541 285.894C331.128 261.135 330.534 206.847 330.48 201.762Z" fill="#EE512C"/>
<path opacity="0.2" d="M308.286 239.463C306.377 244.918 304.929 250.524 303.957 256.221C302.877 241.398 307.206 225.675 307.206 225.675L308.286 239.463Z" fill="black"/>
<path d="M283.311 359.496L299.538 357.075L299.043 352.584L282.159 354.798L283.311 359.496Z" fill="#EE512C"/>
<path opacity="0.6" d="M283.311 359.496L299.538 357.075L299.043 352.584L282.159 354.798L283.311 359.496Z" fill="white"/>
<path d="M321.552 357.354H337.293V352.647L320.958 352.341L321.552 357.354Z" fill="#EE512C"/>
<path opacity="0.6" d="M321.552 357.354H337.293V352.647L320.958 352.341L321.552 357.354Z" fill="white"/>
<path d="M295.281 134.613C295.281 134.613 319.923 133.407 338.274 138.042C338.274 138.042 332.019 194.13 332.325 217.53L287.1 216C287.1 216 288.9 158.562 295.281 134.613Z" fill="#EE512C"/>
<path opacity="0.6" d="M338.274 138.051C338.274 138.051 337.545 144.585 336.591 154.143C335.637 163.701 334.458 176.427 333.594 188.532C332.784 199.593 332.226 210.177 332.325 217.53L287.1 216C287.1 216 288.9 158.607 295.281 134.649C295.281 134.604 319.923 133.407 338.274 138.051Z" fill="white"/>
<path d="M211.923 169.65L212.121 169.641L212.103 169.614H212.13L212.121 169.551L211.923 169.65Z" fill="#263238"/>
<path d="M288.36 159.255L287.658 159.3H236.997L212.544 169.2H212.13L216.603 216H264.771L291.789 205.173L288.36 159.255Z" fill="#263238"/>
<path opacity="0.2" d="M217.998 172.872L219.96 174.69L222.57 174.105L221.445 176.526L222.813 178.83L220.158 178.515L218.394 180.522L217.872 177.903L215.415 176.841L217.746 175.536L217.998 172.872Z" fill="white"/>
<path opacity="0.2" d="M245.43 176.724L245.25 179.397L247.338 181.053L244.746 181.71L243.819 184.212L242.397 181.944L239.724 181.836L241.443 179.784L240.723 177.21L243.198 178.209L245.43 176.724Z" fill="white"/>
<path opacity="0.2" d="M244.53 205.524L244.35 208.197L246.438 209.853L243.846 210.51L242.919 213.012L241.497 210.744L238.824 210.636L240.543 208.584L239.823 206.01L242.298 207.009L244.53 205.524Z" fill="white"/>
<path opacity="0.2" d="M232.83 198.324L232.65 200.997L234.738 202.653L232.146 203.31L231.219 205.812L229.797 203.544L227.124 203.436L228.843 201.384L228.123 198.81L230.598 199.809L232.83 198.324Z" fill="white"/>
<path opacity="0.2" d="M246.141 197.442L246.033 198.999L247.266 199.971L245.745 200.358L245.196 201.825L244.368 200.502L242.802 200.43L243.81 199.233L243.387 197.721L244.836 198.306L246.141 197.442Z" fill="white"/>
<path opacity="0.2" d="M223.641 208.242L223.533 209.799L224.766 210.771L223.245 211.158L222.696 212.625L221.868 211.302L220.302 211.23L221.31 210.033L220.887 208.521L222.336 209.106L223.641 208.242Z" fill="white"/>
<path opacity="0.2" d="M221.841 192.942L221.733 194.499L222.966 195.471L221.445 195.858L220.896 197.325L220.068 196.002L218.502 195.93L219.51 194.733L219.087 193.221L220.536 193.806L221.841 192.942Z" fill="white"/>
<path opacity="0.2" d="M255.141 170.442L255.033 171.999L256.266 172.971L254.745 173.358L254.196 174.825L253.368 173.502L251.802 173.43L252.81 172.233L252.387 170.721L253.836 171.306L255.141 170.442Z" fill="white"/>
<path opacity="0.2" d="M226.836 181.08L228.402 184.257L231.903 184.761L229.365 187.227L229.968 190.719L226.836 189.072L223.704 190.719L224.307 187.227L221.769 184.761L225.27 184.257L226.836 181.08Z" fill="white"/>
<path opacity="0.2" d="M249.939 187.533L253.134 189.036L256.194 187.254L255.744 190.764L258.381 193.122L254.907 193.779L253.485 197.019L251.784 193.914L248.265 193.563L250.686 190.989L249.939 187.533Z" fill="white"/>
<path opacity="0.2" d="M256.536 202.68L258.102 205.857L261.603 206.361L259.065 208.827L259.667 212.319L256.536 210.672L253.404 212.319L254.007 208.827L251.469 206.361L254.969 205.857L256.536 202.68Z" fill="white"/>
<path opacity="0.2" d="M265.293 171.27L266.409 172.827L267.714 171.909L267.282 174.474L268.119 176.598L266.742 176.625L265.95 178.848L265.527 176.301L264.204 175.554L265.329 173.961L265.293 171.27Z" fill="white"/>
<path opacity="0.2" d="M279.621 171.621L279.684 174.303L280.863 175.698L279.567 176.679L279.234 179.298L278.37 177.219L276.993 177.444L277.749 175.185L277.227 172.701L278.559 173.385L279.621 171.621Z" fill="white"/>
<path opacity="0.2" d="M280.863 200.484L280.926 203.166L282.105 204.561L280.809 205.542L280.485 208.161L279.621 206.082L278.235 206.316L279 204.048L278.478 201.564L279.81 202.248L280.863 200.484Z" fill="white"/>
<path opacity="0.2" d="M274.428 194.787L274.491 197.469L275.67 198.864L274.374 199.845L274.041 202.464L273.177 200.385L271.8 200.61L272.556 198.351L272.034 195.867L273.366 196.542L274.428 194.787Z" fill="white"/>
<path opacity="0.2" d="M281.214 192.204L281.25 193.779L281.943 194.589L281.187 195.165L280.989 196.704L280.485 195.489L279.675 195.615L280.125 194.292L279.81 192.843L280.593 193.239L281.214 192.204Z" fill="white"/>
<path opacity="0.2" d="M270.297 205.848L270.333 207.423L271.017 208.242L270.261 208.818L270.072 210.348L269.559 209.133L268.758 209.268L269.199 207.936L268.893 206.487L269.676 206.883L270.297 205.848Z" fill="white"/>
<path opacity="0.2" d="M268.461 190.809L268.497 192.384L269.19 193.194L268.434 193.77L268.236 195.3L267.732 194.085L266.922 194.22L267.363 192.897L267.057 191.439L267.84 191.844L268.461 190.809Z" fill="white"/>
<path opacity="0.2" d="M284.238 164.106L284.274 165.681L284.967 166.491L284.211 167.067L284.013 168.606L283.509 167.391L282.699 167.517L283.14 166.194L282.834 164.745L283.617 165.141L284.238 164.106Z" fill="white"/>
<path opacity="0.2" d="M270.324 178.335L271.314 181.305L273.141 181.368L271.989 184.149L272.502 187.551L270.801 186.309L269.289 188.352L269.388 184.797L267.939 182.655L269.712 181.701L270.324 178.335Z" fill="white"/>
<path opacity="0.2" d="M282.582 181.827L284.31 182.925L285.777 180.765L285.75 184.32L287.253 186.336L285.507 187.434L284.967 190.845L283.905 187.974L282.078 188.064L283.167 185.184L282.582 181.827Z" fill="white"/>
<path opacity="0.2" d="M286.866 196.119L287.856 199.08L289.692 199.143L288.531 201.933L289.044 205.335L287.343 204.093L285.831 206.127L285.93 202.572L284.481 200.439L286.254 199.485L286.866 196.119Z" fill="white"/>
<path opacity="0.2" d="M260.271 169.335L288.359 159.462L291.788 205.542L264.771 216.54L260.271 169.335Z" fill="black"/>
<path opacity="0.2" d="M211.923 169.38L236.997 159.3H288L260.271 169.029L211.923 169.38Z" fill="white"/>
<path d="M282.447 209.457L279.225 162H229.5L224.802 164.439L270.225 165.681L276.03 211.806L282.447 209.457Z" fill="#EE512C"/>
<path d="M261.747 159.3L238.428 168.975L241.2 216H234L229.05 169.119L255.15 159.3H261.747Z" fill="#EE512C"/>
<g opacity="0.2">
<path d="M282.447 209.457L279.225 162H229.5L224.802 164.439L270.225 165.681L276.03 211.806L282.447 209.457Z" fill="white"/>
<path d="M261.747 159.3L238.428 168.975L241.2 216H234L229.05 169.119L255.15 159.3H261.747Z" fill="white"/>
</g>
<path opacity="0.2" d="M279.225 162.414L270.225 165.789L276.03 211.959L282.447 209.664L279.225 162.414Z" fill="black"/>
<path opacity="0.1" d="M229.05 169.326L238.428 169.083L241.2 216H234L229.05 169.326Z" fill="black"/>
<path d="M246.852 162.981C246.852 162.981 233.352 152.775 227.484 155.331C222.849 157.347 223.524 163.386 235.251 164.925C230.85 165.321 225.639 166.023 222.525 167.211L231.372 168.255C236.681 166.808 242.099 165.793 247.572 165.222C247.798 166.22 247.798 167.257 247.572 168.255L253.629 167.733C253.629 167.733 251.829 166.032 250.389 164.781C257.328 164.088 272.187 161.865 273.681 155.331C275.634 146.781 254.223 152.478 246.852 162.981ZM227.484 157.05C228.906 154.8 246.006 163.728 246.006 163.728C237.978 164.853 226.053 159.3 227.484 157.05ZM248.391 163.35C248.391 163.35 266.706 150.228 271.134 153.153C275.562 156.078 253.926 163.881 248.4 163.35H248.391Z" fill="#EE512C"/>
<path opacity="0.1" d="M246.852 162.981C246.852 162.981 233.352 152.775 227.484 155.331C222.849 157.347 223.524 163.386 235.251 164.925C230.85 165.321 225.639 166.023 222.525 167.211L231.372 168.255C236.681 166.808 242.099 165.793 247.572 165.222C247.798 166.22 247.798 167.257 247.572 168.255L253.629 167.733C253.629 167.733 251.829 166.032 250.389 164.781C257.328 164.088 272.187 161.865 273.681 155.331C275.634 146.781 254.223 152.478 246.852 162.981ZM227.484 157.05C228.906 154.8 246.006 163.728 246.006 163.728C237.978 164.853 226.053 159.3 227.484 157.05ZM248.391 163.35C248.391 163.35 266.706 150.228 271.134 153.153C275.562 156.078 253.926 163.881 248.4 163.35H248.391Z" fill="white"/>
<path opacity="0.2" d="M336.6 154.143C335.646 163.755 334.467 176.427 333.603 188.532C313.551 165.357 327.897 148.329 327.897 148.329L336.6 154.143Z" fill="black"/>
<path d="M305.442 134.469C305.442 134.469 305.253 139.608 312.003 139.869C318.753 140.13 327.798 136.017 327.798 136.017C327.798 136.017 314.928 133.2 305.442 134.469Z" fill="#EE512C"/>
<path d="M324.27 135.558C320.715 138.789 312.003 137.592 312.003 137.592C312.003 137.592 306.603 136.107 307.71 134.406C310.914 133.875 312.462 132.381 313.11 130.473C313.457 129.285 313.567 128.04 313.434 126.81C313.384 126.127 313.293 125.448 313.164 124.776L323.964 116.802C322.515 122.058 320.787 131.742 324.27 135.558Z" fill="#B97964"/>
<path opacity="0.2" d="M321.435 121.869C321.012 128.331 315.702 130.113 313.101 130.473C313.448 129.285 313.558 128.04 313.425 126.81L321.435 121.869Z" fill="black"/>
<path d="M302.859 101.448C302.859 101.448 301.329 111.501 306.666 115.371C312.003 119.241 312.003 100.512 312.003 100.512L302.859 101.448Z" fill="#263238"/>
<path d="M322.2 123.363C321.076 125.025 319.438 126.271 317.537 126.91C315.636 127.55 313.577 127.546 311.679 126.9C309.216 126.12 307.143 124.43 305.883 122.175C305.699 121.862 305.537 121.537 305.397 121.203C302.769 115.065 301.932 104.31 308.43 100.287C309.86 99.3907 311.497 98.8752 313.183 98.7896C314.869 98.704 316.549 99.051 318.064 99.7978C319.578 100.545 320.876 101.666 321.835 103.056C322.793 104.446 323.381 106.058 323.541 107.739C324.342 114.921 325.152 119.106 322.2 123.363Z" fill="#B97964"/>
<path d="M313.074 111.6C313.209 112.167 312.948 112.698 312.561 112.77C312.174 112.842 311.796 112.41 311.661 111.87C311.526 111.33 311.787 110.763 312.165 110.7C312.543 110.637 312.966 111.051 313.074 111.6Z" fill="#263238"/>
<path d="M306.513 112.761C306.648 113.328 306.378 113.859 306 113.922C305.622 113.985 305.235 113.562 305.1 113.022C304.965 112.482 305.235 111.924 305.604 111.861C305.973 111.798 306.414 112.212 306.513 112.761Z" fill="#263238"/>
<path d="M308.646 112.689C308.254 114.569 307.606 116.386 306.72 118.089C307.168 118.305 307.657 118.421 308.155 118.429C308.652 118.436 309.145 118.336 309.6 118.134L308.646 112.689Z" fill="#A24E3F"/>
<path d="M314.738 109.17C314.678 109.188 314.614 109.189 314.552 109.175C314.491 109.161 314.434 109.131 314.388 109.089C314.078 108.785 313.703 108.558 313.29 108.425C312.878 108.292 312.44 108.258 312.011 108.324C311.923 108.343 311.831 108.328 311.754 108.281C311.677 108.234 311.621 108.159 311.597 108.072C311.587 108.028 311.585 107.983 311.592 107.938C311.599 107.894 311.614 107.851 311.638 107.813C311.661 107.774 311.692 107.741 311.728 107.714C311.764 107.688 311.806 107.669 311.849 107.658C312.386 107.556 312.939 107.584 313.462 107.741C313.986 107.897 314.463 108.178 314.855 108.558C314.888 108.59 314.913 108.628 314.931 108.669C314.948 108.711 314.957 108.756 314.957 108.801C314.957 108.846 314.948 108.891 314.931 108.933C314.913 108.974 314.888 109.012 314.855 109.044C314.824 109.092 314.784 109.135 314.738 109.17Z" fill="#263238"/>
<path d="M311.049 121.014C311.901 120.997 312.736 120.776 313.485 120.369C314.234 119.961 314.874 119.38 315.351 118.674C315.374 118.632 315.381 118.582 315.369 118.535C315.358 118.489 315.328 118.448 315.288 118.422C315.248 118.398 315.201 118.39 315.155 118.4C315.11 118.41 315.07 118.437 315.045 118.476C314.59 119.121 313.992 119.652 313.296 120.025C312.601 120.398 311.828 120.604 311.04 120.627C310.993 120.629 310.95 120.649 310.918 120.683C310.886 120.716 310.869 120.761 310.869 120.807C310.867 120.83 310.871 120.853 310.879 120.875C310.887 120.897 310.899 120.917 310.915 120.934C310.931 120.951 310.951 120.964 310.972 120.973C310.993 120.982 311.016 120.987 311.04 120.987L311.049 121.014Z" fill="#263238"/>
<path d="M303.3 110.979C303.236 111.001 303.166 111.001 303.102 110.979C303.058 110.968 303.017 110.947 302.981 110.92C302.944 110.892 302.914 110.858 302.892 110.818C302.869 110.779 302.854 110.736 302.849 110.691C302.843 110.646 302.847 110.6 302.859 110.556C303 110.023 303.268 109.532 303.639 109.125C304.01 108.718 304.474 108.406 304.992 108.216C305.079 108.191 305.172 108.202 305.252 108.245C305.331 108.289 305.39 108.363 305.415 108.45C305.44 108.536 305.431 108.628 305.389 108.708C305.347 108.787 305.275 108.846 305.19 108.873C304.787 109.036 304.427 109.291 304.14 109.618C303.852 109.944 303.645 110.333 303.534 110.754C303.513 110.806 303.482 110.853 303.442 110.892C303.401 110.931 303.353 110.961 303.3 110.979Z" fill="#263238"/>
<path d="M316.8 99.801V103.014C317.365 103.204 317.839 103.601 318.126 104.125C318.413 104.648 318.492 105.261 318.348 105.84C317.646 108.621 319.662 112.563 321.903 113.94C321.903 113.94 321.831 112.779 322.803 112.932C323.775 113.085 324.279 119.124 322.731 122.22C322.731 122.22 325.278 119.277 326.133 112.779C326.916 106.776 326.511 101.889 325.044 99.783L316.8 99.801Z" fill="#263238"/>
<path d="M327.726 111.348C326.082 108.915 323.89 106.902 321.327 105.471C317.016 102.996 310.392 101.277 301.05 104.202C301.05 104.202 304.425 87.867 319.122 93.402L319.482 93.546C333.729 99.171 327.726 111.348 327.726 111.348Z" fill="#EE512C"/>
<path opacity="0.2" d="M321.3 105.471C316.989 102.996 310.365 101.277 301.023 104.202C301.023 104.202 304.398 87.867 319.095 93.402L319.455 93.546C320.327 94.0046 321.079 94.6611 321.651 95.463C322.983 97.515 322.029 102.6 321.3 105.471Z" fill="white"/>
<path d="M302.661 105.075C300.69 105.471 294.191 100.926 296.774 98.865C298.853 97.209 304.686 96.723 309.266 97.776C317.753 99.738 321.453 105.408 321.453 105.408C321.453 105.408 310.608 101.925 302.661 105.075Z" fill="#EE512C"/>
<path opacity="0.2" d="M302.661 105.075C300.69 105.471 294.191 100.926 296.774 98.865C298.853 97.209 304.686 96.723 309.266 97.776C317.753 99.738 321.453 105.408 321.453 105.408C321.453 105.408 310.608 101.925 302.661 105.075Z" fill="black"/>
<path d="M327.654 113.112C327.399 113.977 326.976 114.783 326.409 115.484C325.842 116.185 325.143 116.767 324.351 117.198C322.227 118.341 320.643 116.568 320.751 114.282C320.895 112.257 322.155 109.161 324.513 108.981C326.871 108.801 328.257 110.961 327.654 113.112Z" fill="#B97964"/>
<path d="M296.829 155.7L294.417 172.53L298.917 172.44L298.332 180.126L293.976 180.009L292.626 183.123L300.285 183.879L305.325 156.501L296.829 155.7ZM297.9 168.858L300.114 159.921L301.689 160.047L300.15 168.813L297.9 168.858Z" fill="#EE512C"/>
<path d="M308.7 156.6L306.279 173.223L310.779 173.133L310.203 181.026H305.847L304.497 184.203L312.156 184.977L317.196 157.509L308.7 156.6ZM309.807 169.551L312.021 160.812H313.596L312.057 169.47L309.807 169.551Z" fill="#EE512C"/>
<path d="M338.958 158.4C338.958 158.4 331.263 179.631 328.986 184.086C326.709 188.541 281.889 192.933 281.889 192.933C281.889 192.933 271.989 199.341 270.189 199.044C268.389 198.747 264.267 190.341 266.067 189.441C267.867 188.541 273.339 182.349 276.3 182.448C279.261 182.547 281.853 185.841 281.853 185.841C281.853 185.841 318.753 175.266 320.742 174.483C322.164 173.916 327.996 153.36 327.996 153.36L338.958 158.4Z" fill="#B97964"/>
<path d="M338.274 138.042C347.472 141.912 338.274 168.363 338.274 168.363L324.27 162.405C324.27 162.405 328.86 134.1 338.274 138.042Z" fill="#EE512C"/>
<path opacity="0.6" d="M338.274 138.042C347.472 141.912 338.274 168.363 338.274 168.363L324.27 162.405C324.27 162.405 328.86 134.1 338.274 138.042Z" fill="white"/>
<path d="M323.55 160.281L339.975 167.391L338.283 170.964L322.65 163.881L323.55 160.281Z" fill="#EE512C"/>
<path d="M375.948 321.597C375.948 321.597 374.292 304.065 366.597 303.597C358.902 303.129 359.55 319.797 359.55 319.797" stroke="#263238" stroke-width="0.671805" stroke-linecap="round" stroke-linejoin="round"/>
<path d="M343.197 374.4H384.597L379.503 328.779L381.303 317.7H346.797L349.137 328.662L343.197 374.4Z" fill="#EE512C"/>
<path opacity="0.2" d="M369 317.7L370.503 329.85L367.299 374.166L374.4 366.912L384.597 374.4L379.503 328.779L381.303 317.7H369Z" fill="black"/>
<path opacity="0.2" d="M374.697 367.2V327.6L375.948 317.7H369.297L370.503 329.103L367.299 374.166L374.697 367.2Z" fill="black"/>
<path d="M352.953 321.597C352.953 321.597 357.075 302.886 364.878 303.021C372.681 303.156 363.897 321.597 363.897 321.597" stroke="#263238" stroke-width="0.671805" stroke-linecap="round" stroke-linejoin="round"/>
<path d="M197.154 342L196.254 339.615C184.131 340.173 182.754 335.61 182.646 334.152C182.421 331.452 184.851 329.004 188.046 328.68C192.483 328.221 195.444 332.01 196.956 334.638C199.242 331.884 203.67 329.409 207.009 329.409C208.159 329.344 209.294 329.695 210.208 330.397C211.122 331.099 211.752 332.106 211.986 333.234C212.19 333.924 212.214 334.655 212.057 335.358C211.899 336.06 211.565 336.711 211.086 337.248C208.269 340.425 200.142 339.858 197.694 339.606L197.154 342ZM198.594 336.969C202.275 337.293 207.594 337.149 209.133 335.457C209.316 335.245 209.438 334.987 209.486 334.712C209.533 334.436 209.505 334.152 209.403 333.891C209.322 333.343 209.031 332.847 208.59 332.511C208.15 332.175 207.595 332.024 207.045 332.091C204.093 332.1 199.935 334.8 198.594 336.96V336.969ZM188.766 331.344H188.343C186.543 331.533 185.247 332.847 185.337 333.909C185.427 334.971 187.668 337.122 195.165 336.933C194.238 335.079 191.988 331.335 188.766 331.335V331.344Z" fill="#263238"/>
<path d="M223.2 338.247H170.586V374.391H223.2V338.247Z" fill="#EE512C"/>
<path opacity="0.2" d="M223.2 350.739H170.586V374.391H223.2V350.739Z" fill="black"/>
<path opacity="0.2" d="M191.493 338.247H170.586V374.391H191.493V338.247Z" fill="black"/>
<g opacity="0.3">
<path d="M191.475 366.525V368.937L193.698 374.4H194.679L191.475 366.525Z" fill="white"/>
<path d="M191.475 351.036V353.43L199.998 374.4H200.979L191.475 351.036Z" fill="white"/>
<path d="M207.279 374.4L192.573 338.229H191.601L206.298 374.4H207.279Z" fill="white"/>
<path d="M213.579 374.4L198.873 338.229H197.901L212.598 374.4H213.579Z" fill="white"/>
<path d="M219.879 374.4L205.173 338.229H204.201L218.898 374.4H219.879Z" fill="white"/>
<path d="M210.492 338.229L223.2 370.35V367.938L211.464 338.229H210.492Z" fill="white"/>
<path d="M216.792 338.229L223.2 354.807V352.395L217.764 338.229H216.792Z" fill="white"/>
</g>
<g opacity="0.2">
<path d="M170.622 351.999V354.393L175.176 374.4H175.725L170.622 351.999Z" fill="white"/>
<path d="M171.018 338.229H170.622V338.895L178.695 374.4H179.244L171.018 338.229Z" fill="white"/>
<path d="M182.772 374.4L174.546 338.229H173.997L182.223 374.4H182.772Z" fill="white"/>
<path d="M186.3 374.4L178.065 338.229H177.525L185.742 374.4H186.3Z" fill="white"/>
<path d="M189.819 374.4L181.593 338.229H181.053L189.27 374.4H189.819Z" fill="white"/>
<path d="M191.475 367.011L185.112 338.229H184.572L191.475 369.423V367.011Z" fill="white"/>
<path d="M191.475 351.441L188.64 338.229H188.1L191.475 353.853V351.441Z" fill="white"/>
</g>
<path d="M209.925 338.247H205.65V374.391H209.925V338.247Z" fill="#263238"/>
<path d="M181.116 338.247H177.975V374.391H181.116V338.247Z" fill="#263238"/>
<path d="M231.003 350.937C229.347 351.108 223.803 351.522 221.94 349.371C221.619 349.065 221.393 348.673 221.288 348.243C221.182 347.812 221.203 347.36 221.346 346.941C221.76 345.294 222.984 344.7 224.712 344.7C227.31 344.819 229.754 345.965 231.507 347.886C232.533 346.086 234.531 343.314 237.537 343.62C239.724 343.836 241.371 345.42 241.218 347.265C241.128 348.255 240.21 351.315 232.011 350.937L231.399 352.53L231.003 350.937ZM224.703 346.5C223.803 346.5 223.317 346.572 223.101 347.4C222.957 347.985 223.101 348.066 223.29 348.255C224.307 349.398 227.925 349.713 230.418 349.497C229.723 348.635 228.86 347.924 227.88 347.408C226.9 346.893 225.825 346.584 224.721 346.5H224.703ZM232.74 349.101C237.807 349.236 239.319 347.859 239.382 347.058C239.445 346.257 238.59 345.447 237.348 345.33H237.069C234.9 345.312 233.379 347.841 232.758 349.101H232.74Z" fill="#EE512C"/>
<path d="M213.786 374.4H249.381V349.947H213.786V374.4Z" fill="#EE512C"/>
<path opacity="0.6" d="M213.786 374.4H249.381V349.947H213.786V374.4Z" fill="white"/>
<path opacity="0.1" d="M213.786 374.4H249.381V358.398H213.786V374.4Z" fill="black"/>
<path opacity="0.2" d="M235.242 374.4H249.381V349.947H235.242V374.4Z" fill="white"/>
<g opacity="0.4">
<path d="M214.65 352.35C214.888 352.35 215.082 352.06 215.082 351.702C215.082 351.344 214.888 351.054 214.65 351.054C214.411 351.054 214.218 351.344 214.218 351.702C214.218 352.06 214.411 352.35 214.65 352.35Z" fill="white"/>
<path d="M218.142 351.702C218.142 352.062 217.944 352.35 217.71 352.35C217.476 352.35 217.278 352.062 217.278 351.702C217.278 351.342 217.467 351.045 217.71 351.045C217.953 351.045 218.142 351.342 218.142 351.702Z" fill="white"/>
<path d="M220.77 352.35C221.008 352.35 221.202 352.06 221.202 351.702C221.202 351.344 221.008 351.054 220.77 351.054C220.531 351.054 220.338 351.344 220.338 351.702C220.338 352.06 220.531 352.35 220.77 352.35Z" fill="white"/>
<path d="M224.253 351.702C224.253 352.062 224.064 352.35 223.83 352.35C223.596 352.35 223.398 352.062 223.398 351.702C223.398 351.342 223.587 351.045 223.83 351.045C224.073 351.045 224.253 351.342 224.253 351.702Z" fill="white"/>
<path d="M226.881 352.35C227.119 352.35 227.313 352.06 227.313 351.702C227.313 351.344 227.119 351.054 226.881 351.054C226.642 351.054 226.449 351.344 226.449 351.702C226.449 352.06 226.642 352.35 226.881 352.35Z" fill="white"/>
<path d="M230.4 351.702C230.4 352.062 230.211 352.35 229.968 352.35C229.725 352.35 229.536 352.062 229.536 351.702C229.536 351.342 229.734 351.045 229.968 351.045C230.202 351.045 230.4 351.342 230.4 351.702Z" fill="white"/>
<path d="M233.001 352.35C233.239 352.35 233.433 352.06 233.433 351.702C233.433 351.344 233.239 351.054 233.001 351.054C232.762 351.054 232.569 351.344 232.569 351.702C232.569 352.06 232.762 352.35 233.001 352.35Z" fill="white"/>
<path d="M216.612 354.087C216.612 354.447 216.414 354.735 216.18 354.735C215.946 354.735 215.748 354.447 215.748 354.087C215.748 353.727 215.946 353.439 216.18 353.439C216.414 353.439 216.612 353.7 216.612 354.087Z" fill="white"/>
<path d="M219.663 354.087C219.663 354.447 219.474 354.735 219.24 354.735C219.006 354.735 218.808 354.447 218.808 354.087C218.808 353.727 218.997 353.439 219.24 353.439C219.483 353.439 219.663 353.7 219.663 354.087Z" fill="white"/>
<path d="M222.723 354.087C222.723 354.447 222.534 354.735 222.3 354.735C222.066 354.735 221.868 354.447 221.868 354.087C221.868 353.727 222.057 353.439 222.3 353.439C222.543 353.439 222.723 353.7 222.723 354.087Z" fill="white"/>
<path d="M225.782 354.087C225.782 354.447 225.593 354.735 225.35 354.735C225.107 354.735 224.927 354.447 224.927 354.087C224.927 353.727 225.116 353.439 225.35 353.439C225.584 353.439 225.782 353.7 225.782 354.087Z" fill="white"/>
<path d="M228.843 354.087C228.843 354.447 228.654 354.735 228.411 354.735C228.168 354.735 227.988 354.447 227.988 354.087C227.988 353.727 228.177 353.439 228.411 353.439C228.645 353.439 228.843 353.7 228.843 354.087Z" fill="white"/>
<path d="M231.903 354.087C231.903 354.447 231.705 354.735 231.471 354.735C231.237 354.735 231.039 354.447 231.039 354.087C231.039 353.727 231.237 353.439 231.471 353.439C231.705 353.439 231.903 353.7 231.903 354.087Z" fill="white"/>
<path d="M234.963 354.087C234.963 354.447 234.765 354.735 234.531 354.735C234.297 354.735 234.099 354.447 234.099 354.087C234.099 353.727 234.297 353.439 234.531 353.439C234.765 353.439 234.963 353.7 234.963 354.087Z" fill="white"/>
<path d="M214.65 357.588C214.888 357.588 215.082 357.298 215.082 356.94C215.082 356.582 214.888 356.292 214.65 356.292C214.411 356.292 214.218 356.582 214.218 356.94C214.218 357.298 214.411 357.588 214.65 357.588Z" fill="white"/>
<path d="M218.142 356.94C218.142 357.3 217.944 357.588 217.71 357.588C217.476 357.588 217.278 357.3 217.278 356.94C217.278 356.58 217.467 356.283 217.71 356.283C217.953 356.283 218.142 356.58 218.142 356.94Z" fill="white"/>
<path d="M220.77 357.588C221.008 357.588 221.202 357.298 221.202 356.94C221.202 356.582 221.008 356.292 220.77 356.292C220.531 356.292 220.338 356.582 220.338 356.94C220.338 357.298 220.531 357.588 220.77 357.588Z" fill="white"/>
<path d="M224.253 356.94C224.253 357.3 224.064 357.588 223.83 357.588C223.596 357.588 223.398 357.3 223.398 356.94C223.398 356.58 223.587 356.283 223.83 356.283C224.073 356.283 224.253 356.58 224.253 356.94Z" fill="white"/>
<path d="M226.881 357.588C227.119 357.588 227.313 357.298 227.313 356.94C227.313 356.582 227.119 356.292 226.881 356.292C226.642 356.292 226.449 356.582 226.449 356.94C226.449 357.298 226.642 357.588 226.881 357.588Z" fill="white"/>
<path d="M230.4 356.94C230.4 357.3 230.211 357.588 229.968 357.588C229.725 357.588 229.536 357.3 229.536 356.94C229.536 356.58 229.734 356.283 229.968 356.283C230.202 356.283 230.4 356.58 230.4 356.94Z" fill="white"/>
<path d="M233.001 357.588C233.239 357.588 233.433 357.298 233.433 356.94C233.433 356.582 233.239 356.292 233.001 356.292C232.762 356.292 232.569 356.582 232.569 356.94C232.569 357.298 232.762 357.588 233.001 357.588Z" fill="white"/>
<path d="M216.612 359.325C216.612 359.685 216.414 359.973 216.18 359.973C215.946 359.973 215.748 359.685 215.748 359.325C215.748 358.965 215.946 358.677 216.18 358.677C216.414 358.677 216.612 358.965 216.612 359.325Z" fill="white"/>
<path d="M219.663 359.325C219.663 359.685 219.474 359.973 219.24 359.973C219.006 359.973 218.808 359.685 218.808 359.325C218.808 358.965 218.997 358.677 219.24 358.677C219.483 358.677 219.663 358.965 219.663 359.325Z" fill="white"/>
<path d="M222.723 359.325C222.723 359.685 222.534 359.973 222.3 359.973C222.066 359.973 221.868 359.685 221.868 359.325C221.868 358.965 222.057 358.677 222.3 358.677C222.543 358.677 222.723 358.965 222.723 359.325Z" fill="white"/>
<path d="M225.782 359.325C225.782 359.685 225.593 359.973 225.35 359.973C225.107 359.973 224.927 359.685 224.927 359.325C224.927 358.965 225.116 358.677 225.35 358.677C225.584 358.677 225.782 358.965 225.782 359.325Z" fill="white"/>
<path d="M228.843 359.325C228.843 359.685 228.654 359.973 228.411 359.973C228.168 359.973 227.988 359.685 227.988 359.325C227.988 358.965 228.177 358.677 228.411 358.677C228.645 358.677 228.843 358.965 228.843 359.325Z" fill="white"/>
<path d="M231.903 359.325C231.903 359.685 231.705 359.973 231.471 359.973C231.237 359.973 231.039 359.685 231.039 359.325C231.039 358.965 231.237 358.677 231.471 358.677C231.705 358.677 231.903 358.965 231.903 359.325Z" fill="white"/>
<path d="M234.963 359.325C234.963 359.685 234.765 359.973 234.531 359.973C234.297 359.973 234.099 359.685 234.099 359.325C234.099 358.965 234.297 358.677 234.531 358.677C234.765 358.677 234.963 358.965 234.963 359.325Z" fill="white"/>
<path d="M214.65 362.826C214.888 362.826 215.082 362.536 215.082 362.178C215.082 361.82 214.888 361.53 214.65 361.53C214.411 361.53 214.218 361.82 214.218 362.178C214.218 362.536 214.411 362.826 214.65 362.826Z" fill="white"/>
<path d="M218.142 362.178C218.142 362.538 217.944 362.826 217.71 362.826C217.476 362.826 217.278 362.538 217.278 362.178C217.278 361.818 217.467 361.521 217.71 361.521C217.953 361.521 218.142 361.8 218.142 362.178Z" fill="white"/>
<path d="M220.77 362.826C221.008 362.826 221.202 362.536 221.202 362.178C221.202 361.82 221.008 361.53 220.77 361.53C220.531 361.53 220.338 361.82 220.338 362.178C220.338 362.536 220.531 362.826 220.77 362.826Z" fill="white"/>
<path d="M224.253 362.178C224.253 362.538 224.064 362.826 223.83 362.826C223.596 362.826 223.398 362.538 223.398 362.178C223.398 361.818 223.587 361.521 223.83 361.521C224.073 361.521 224.253 361.8 224.253 362.178Z" fill="white"/>
<path d="M226.881 362.826C227.119 362.826 227.313 362.536 227.313 362.178C227.313 361.82 227.119 361.53 226.881 361.53C226.642 361.53 226.449 361.82 226.449 362.178C226.449 362.536 226.642 362.826 226.881 362.826Z" fill="white"/>
<path d="M230.4 362.178C230.4 362.538 230.211 362.826 229.968 362.826C229.725 362.826 229.536 362.538 229.536 362.178C229.536 361.818 229.734 361.521 229.968 361.521C230.202 361.521 230.4 361.8 230.4 362.178Z" fill="white"/>
<path d="M233.001 362.826C233.239 362.826 233.433 362.536 233.433 362.178C233.433 361.82 233.239 361.53 233.001 361.53C232.762 361.53 232.569 361.82 232.569 362.178C232.569 362.536 232.762 362.826 233.001 362.826Z" fill="white"/>
<path d="M216.612 364.563C216.612 364.923 216.414 365.211 216.18 365.211C215.946 365.211 215.748 364.923 215.748 364.563C215.748 364.203 215.946 363.915 216.18 363.915C216.414 363.915 216.612 364.203 216.612 364.563Z" fill="white"/>
<path d="M219.663 364.563C219.663 364.923 219.474 365.211 219.24 365.211C219.006 365.211 218.808 364.923 218.808 364.563C218.808 364.203 218.997 363.915 219.24 363.915C219.483 363.915 219.663 364.203 219.663 364.563Z" fill="white"/>
<path d="M222.723 364.563C222.723 364.923 222.534 365.211 222.3 365.211C222.066 365.211 221.868 364.923 221.868 364.563C221.868 364.203 222.057 363.915 222.3 363.915C222.543 363.915 222.723 364.203 222.723 364.563Z" fill="white"/>
<path d="M225.782 364.563C225.782 364.923 225.593 365.211 225.35 365.211C225.107 365.211 224.927 364.923 224.927 364.563C224.927 364.203 225.116 363.915 225.35 363.915C225.584 363.915 225.782 364.203 225.782 364.563Z" fill="white"/>
<path d="M228.843 364.563C228.843 364.923 228.654 365.211 228.411 365.211C228.168 365.211 227.988 364.923 227.988 364.563C227.988 364.203 228.177 363.915 228.411 363.915C228.645 363.915 228.843 364.203 228.843 364.563Z" fill="white"/>
<path d="M231.903 364.563C231.903 364.923 231.705 365.211 231.471 365.211C231.237 365.211 231.039 364.923 231.039 364.563C231.039 364.203 231.237 363.915 231.471 363.915C231.705 363.915 231.903 364.203 231.903 364.563Z" fill="white"/>
<path d="M234.963 364.563C234.963 364.923 234.765 365.211 234.531 365.211C234.297 365.211 234.099 364.923 234.099 364.563C234.099 364.203 234.297 363.915 234.531 363.915C234.765 363.915 234.963 364.203 234.963 364.563Z" fill="white"/>
<path d="M214.65 368.064C214.888 368.064 215.082 367.774 215.082 367.416C215.082 367.058 214.888 366.768 214.65 366.768C214.411 366.768 214.218 367.058 214.218 367.416C214.218 367.774 214.411 368.064 214.65 368.064Z" fill="white"/>
<path d="M218.142 367.416C218.142 367.776 217.944 368.064 217.71 368.064C217.476 368.064 217.278 367.776 217.278 367.416C217.278 367.056 217.467 366.759 217.71 366.759C217.953 366.759 218.142 367.056 218.142 367.416Z" fill="white"/>
<path d="M220.77 368.064C221.008 368.064 221.202 367.774 221.202 367.416C221.202 367.058 221.008 366.768 220.77 366.768C220.531 366.768 220.338 367.058 220.338 367.416C220.338 367.774 220.531 368.064 220.77 368.064Z" fill="white"/>
<path d="M224.253 367.416C224.253 367.776 224.064 368.064 223.83 368.064C223.596 368.064 223.398 367.776 223.398 367.416C223.398 367.056 223.587 366.759 223.83 366.759C224.073 366.759 224.253 367.056 224.253 367.416Z" fill="white"/>
<path d="M226.881 368.064C227.119 368.064 227.313 367.774 227.313 367.416C227.313 367.058 227.119 366.768 226.881 366.768C226.642 366.768 226.449 367.058 226.449 367.416C226.449 367.774 226.642 368.064 226.881 368.064Z" fill="white"/>
<path d="M230.4 367.416C230.4 367.776 230.211 368.064 229.968 368.064C229.725 368.064 229.536 367.776 229.536 367.416C229.536 367.056 229.734 366.759 229.968 366.759C230.202 366.759 230.4 367.056 230.4 367.416Z" fill="white"/>
<path d="M233.001 368.064C233.239 368.064 233.433 367.774 233.433 367.416C233.433 367.058 233.239 366.768 233.001 366.768C232.762 366.768 232.569 367.058 232.569 367.416C232.569 367.774 232.762 368.064 233.001 368.064Z" fill="white"/>
<path d="M216.612 369.801C216.612 370.161 216.414 370.449 216.18 370.449C215.946 370.449 215.748 370.161 215.748 369.801C215.748 369.441 215.946 369.153 216.18 369.153C216.414 369.153 216.612 369.441 216.612 369.801Z" fill="white"/>
<path d="M219.663 369.801C219.663 370.161 219.474 370.449 219.24 370.449C219.006 370.449 218.808 370.161 218.808 369.801C218.808 369.441 218.997 369.153 219.24 369.153C219.483 369.153 219.663 369.441 219.663 369.801Z" fill="white"/>
<path d="M222.723 369.801C222.723 370.161 222.534 370.449 222.3 370.449C222.066 370.449 221.868 370.161 221.868 369.801C221.868 369.441 222.057 369.153 222.3 369.153C222.543 369.153 222.723 369.441 222.723 369.801Z" fill="white"/>
<path d="M225.782 369.801C225.782 370.161 225.593 370.449 225.35 370.449C225.107 370.449 224.927 370.161 224.927 369.801C224.927 369.441 225.116 369.153 225.35 369.153C225.584 369.153 225.782 369.441 225.782 369.801Z" fill="white"/>
<path d="M228.843 369.801C228.843 370.161 228.654 370.449 228.411 370.449C228.168 370.449 227.988 370.161 227.988 369.801C227.988 369.441 228.177 369.153 228.411 369.153C228.645 369.153 228.843 369.441 228.843 369.801Z" fill="white"/>
<path d="M231.903 369.801C231.903 370.161 231.705 370.449 231.471 370.449C231.237 370.449 231.039 370.161 231.039 369.801C231.039 369.441 231.237 369.153 231.471 369.153C231.705 369.153 231.903 369.441 231.903 369.801Z" fill="white"/>
<path d="M234.963 369.801C234.963 370.161 234.765 370.449 234.531 370.449C234.297 370.449 234.099 370.161 234.099 369.801C234.099 369.441 234.297 369.153 234.531 369.153C234.765 369.153 234.963 369.441 234.963 369.801Z" fill="white"/>
<path d="M214.65 373.302C214.888 373.302 215.082 373.012 215.082 372.654C215.082 372.296 214.888 372.006 214.65 372.006C214.411 372.006 214.218 372.296 214.218 372.654C214.218 373.012 214.411 373.302 214.65 373.302Z" fill="white"/>
<path d="M218.142 372.654C218.142 373.014 217.944 373.302 217.71 373.302C217.476 373.302 217.278 373.014 217.278 372.654C217.278 372.294 217.467 371.997 217.71 371.997C217.953 371.997 218.142 372.294 218.142 372.654Z" fill="white"/>
<path d="M220.77 373.302C221.008 373.302 221.202 373.012 221.202 372.654C221.202 372.296 221.008 372.006 220.77 372.006C220.531 372.006 220.338 372.296 220.338 372.654C220.338 373.012 220.531 373.302 220.77 373.302Z" fill="white"/>
<path d="M224.253 372.654C224.253 373.014 224.064 373.302 223.83 373.302C223.596 373.302 223.398 373.014 223.398 372.654C223.398 372.294 223.587 371.997 223.83 371.997C224.073 371.997 224.253 372.294 224.253 372.654Z" fill="white"/>
<path d="M226.881 373.302C227.119 373.302 227.313 373.012 227.313 372.654C227.313 372.296 227.119 372.006 226.881 372.006C226.642 372.006 226.449 372.296 226.449 372.654C226.449 373.012 226.642 373.302 226.881 373.302Z" fill="white"/>
<path d="M230.4 372.654C230.4 373.014 230.211 373.302 229.968 373.302C229.725 373.302 229.536 373.014 229.536 372.654C229.536 372.294 229.734 371.997 229.968 371.997C230.202 371.997 230.4 372.294 230.4 372.654Z" fill="white"/>
<path d="M233.001 373.302C233.239 373.302 233.433 373.012 233.433 372.654C233.433 372.296 233.239 372.006 233.001 372.006C232.762 372.006 232.569 372.296 232.569 372.654C232.569 373.012 232.762 373.302 233.001 373.302Z" fill="white"/>
</g>
<g opacity="0.6">
<path d="M236.151 352.35C236.325 352.35 236.466 352.06 236.466 351.702C236.466 351.344 236.325 351.054 236.151 351.054C235.977 351.054 235.836 351.344 235.836 351.702C235.836 352.06 235.977 352.35 236.151 352.35Z" fill="white"/>
<path d="M238.41 352.35C238.584 352.35 238.725 352.06 238.725 351.702C238.725 351.344 238.584 351.054 238.41 351.054C238.236 351.054 238.095 351.344 238.095 351.702C238.095 352.06 238.236 352.35 238.41 352.35Z" fill="white"/>
<path d="M240.66 352.35C240.834 352.35 240.975 352.06 240.975 351.702C240.975 351.344 240.834 351.054 240.66 351.054C240.486 351.054 240.345 351.344 240.345 351.702C240.345 352.06 240.486 352.35 240.66 352.35Z" fill="white"/>
<path d="M242.919 352.35C243.093 352.35 243.234 352.06 243.234 351.702C243.234 351.344 243.093 351.054 242.919 351.054C242.745 351.054 242.604 351.344 242.604 351.702C242.604 352.06 242.745 352.35 242.919 352.35Z" fill="white"/>
<path d="M245.169 352.35C245.343 352.35 245.484 352.06 245.484 351.702C245.484 351.344 245.343 351.054 245.169 351.054C244.995 351.054 244.854 351.344 244.854 351.702C244.854 352.06 244.995 352.35 245.169 352.35Z" fill="white"/>
<path d="M247.743 351.702C247.743 352.062 247.599 352.35 247.428 352.35C247.257 352.35 247.113 352.062 247.113 351.702C247.113 351.342 247.257 351.045 247.428 351.045C247.599 351.045 247.743 351.342 247.743 351.702Z" fill="white"/>
<path d="M237.276 354.735C237.45 354.735 237.591 354.445 237.591 354.087C237.591 353.729 237.45 353.439 237.276 353.439C237.102 353.439 236.961 353.729 236.961 354.087C236.961 354.445 237.102 354.735 237.276 354.735Z" fill="white"/>
<path d="M239.535 354.735C239.709 354.735 239.85 354.445 239.85 354.087C239.85 353.729 239.709 353.439 239.535 353.439C239.361 353.439 239.22 353.729 239.22 354.087C239.22 354.445 239.361 354.735 239.535 354.735Z" fill="white"/>
<path d="M241.785 354.735C241.959 354.735 242.1 354.445 242.1 354.087C242.1 353.729 241.959 353.439 241.785 353.439C241.611 353.439 241.47 353.729 241.47 354.087C241.47 354.445 241.611 354.735 241.785 354.735Z" fill="white"/>
<path d="M244.044 354.735C244.218 354.735 244.359 354.445 244.359 354.087C244.359 353.729 244.218 353.439 244.044 353.439C243.87 353.439 243.729 353.729 243.729 354.087C243.729 354.445 243.87 354.735 244.044 354.735Z" fill="white"/>
<path d="M246.303 354.735C246.477 354.735 246.618 354.445 246.618 354.087C246.618 353.729 246.477 353.439 246.303 353.439C246.129 353.439 245.988 353.729 245.988 354.087C245.988 354.445 246.129 354.735 246.303 354.735Z" fill="white"/>
<path d="M248.553 354.735C248.727 354.735 248.868 354.445 248.868 354.087C248.868 353.729 248.727 353.439 248.553 353.439C248.379 353.439 248.238 353.729 248.238 354.087C248.238 354.445 248.379 354.735 248.553 354.735Z" fill="white"/>
<path d="M236.151 357.588C236.325 357.588 236.466 357.298 236.466 356.94C236.466 356.582 236.325 356.292 236.151 356.292C235.977 356.292 235.836 356.582 235.836 356.94C235.836 357.298 235.977 357.588 236.151 357.588Z" fill="white"/>
<path d="M238.41 357.588C238.584 357.588 238.725 357.298 238.725 356.94C238.725 356.582 238.584 356.292 238.41 356.292C238.236 356.292 238.095 356.582 238.095 356.94C238.095 357.298 238.236 357.588 238.41 357.588Z" fill="white"/>
<path d="M240.66 357.588C240.834 357.588 240.975 357.298 240.975 356.94C240.975 356.582 240.834 356.292 240.66 356.292C240.486 356.292 240.345 356.582 240.345 356.94C240.345 357.298 240.486 357.588 240.66 357.588Z" fill="white"/>
<path d="M242.919 357.588C243.093 357.588 243.234 357.298 243.234 356.94C243.234 356.582 243.093 356.292 242.919 356.292C242.745 356.292 242.604 356.582 242.604 356.94C242.604 357.298 242.745 357.588 242.919 357.588Z" fill="white"/>
<path d="M245.169 357.588C245.343 357.588 245.484 357.298 245.484 356.94C245.484 356.582 245.343 356.292 245.169 356.292C244.995 356.292 244.854 356.582 244.854 356.94C244.854 357.298 244.995 357.588 245.169 357.588Z" fill="white"/>
<path d="M247.743 356.94C247.743 357.3 247.599 357.588 247.428 357.588C247.257 357.588 247.113 357.3 247.113 356.94C247.113 356.58 247.257 356.283 247.428 356.283C247.599 356.283 247.743 356.58 247.743 356.94Z" fill="white"/>
<path d="M237.276 359.973C237.45 359.973 237.591 359.683 237.591 359.325C237.591 358.967 237.45 358.677 237.276 358.677C237.102 358.677 236.961 358.967 236.961 359.325C236.961 359.683 237.102 359.973 237.276 359.973Z" fill="white"/>
<path d="M239.535 359.973C239.709 359.973 239.85 359.683 239.85 359.325C239.85 358.967 239.709 358.677 239.535 358.677C239.361 358.677 239.22 358.967 239.22 359.325C239.22 359.683 239.361 359.973 239.535 359.973Z" fill="white"/>
<path d="M241.785 359.973C241.959 359.973 242.1 359.683 242.1 359.325C242.1 358.967 241.959 358.677 241.785 358.677C241.611 358.677 241.47 358.967 241.47 359.325C241.47 359.683 241.611 359.973 241.785 359.973Z" fill="white"/>
<path d="M244.044 359.973C244.218 359.973 244.359 359.683 244.359 359.325C244.359 358.967 244.218 358.677 244.044 358.677C243.87 358.677 243.729 358.967 243.729 359.325C243.729 359.683 243.87 359.973 244.044 359.973Z" fill="white"/>
<path d="M246.303 359.973C246.477 359.973 246.618 359.683 246.618 359.325C246.618 358.967 246.477 358.677 246.303 358.677C246.129 358.677 245.988 358.967 245.988 359.325C245.988 359.683 246.129 359.973 246.303 359.973Z" fill="white"/>
<path d="M248.553 359.973C248.727 359.973 248.868 359.683 248.868 359.325C248.868 358.967 248.727 358.677 248.553 358.677C248.379 358.677 248.238 358.967 248.238 359.325C248.238 359.683 248.379 359.973 248.553 359.973Z" fill="white"/>
<path d="M236.151 362.826C236.325 362.826 236.466 362.536 236.466 362.178C236.466 361.82 236.325 361.53 236.151 361.53C235.977 361.53 235.836 361.82 235.836 362.178C235.836 362.536 235.977 362.826 236.151 362.826Z" fill="white"/>
<path d="M238.41 362.826C238.584 362.826 238.725 362.536 238.725 362.178C238.725 361.82 238.584 361.53 238.41 361.53C238.236 361.53 238.095 361.82 238.095 362.178C238.095 362.536 238.236 362.826 238.41 362.826Z" fill="white"/>
<path d="M240.66 362.826C240.834 362.826 240.975 362.536 240.975 362.178C240.975 361.82 240.834 361.53 240.66 361.53C240.486 361.53 240.345 361.82 240.345 362.178C240.345 362.536 240.486 362.826 240.66 362.826Z" fill="white"/>
<path d="M242.919 362.826C243.093 362.826 243.234 362.536 243.234 362.178C243.234 361.82 243.093 361.53 242.919 361.53C242.745 361.53 242.604 361.82 242.604 362.178C242.604 362.536 242.745 362.826 242.919 362.826Z" fill="white"/>
<path d="M245.169 362.826C245.343 362.826 245.484 362.536 245.484 362.178C245.484 361.82 245.343 361.53 245.169 361.53C244.995 361.53 244.854 361.82 244.854 362.178C244.854 362.536 244.995 362.826 245.169 362.826Z" fill="white"/>
<path d="M247.743 362.178C247.743 362.538 247.599 362.826 247.428 362.826C247.257 362.826 247.113 362.538 247.113 362.178C247.113 361.818 247.257 361.521 247.428 361.521C247.599 361.521 247.743 361.8 247.743 362.178Z" fill="white"/>
<path d="M237.276 365.211C237.45 365.211 237.591 364.921 237.591 364.563C237.591 364.205 237.45 363.915 237.276 363.915C237.102 363.915 236.961 364.205 236.961 364.563C236.961 364.921 237.102 365.211 237.276 365.211Z" fill="white"/>
<path d="M239.535 365.211C239.709 365.211 239.85 364.921 239.85 364.563C239.85 364.205 239.709 363.915 239.535 363.915C239.361 363.915 239.22 364.205 239.22 364.563C239.22 364.921 239.361 365.211 239.535 365.211Z" fill="white"/>
<path d="M241.785 365.211C241.959 365.211 242.1 364.921 242.1 364.563C242.1 364.205 241.959 363.915 241.785 363.915C241.611 363.915 241.47 364.205 241.47 364.563C241.47 364.921 241.611 365.211 241.785 365.211Z" fill="white"/>
<path d="M244.044 365.211C244.218 365.211 244.359 364.921 244.359 364.563C244.359 364.205 244.218 363.915 244.044 363.915C243.87 363.915 243.729 364.205 243.729 364.563C243.729 364.921 243.87 365.211 244.044 365.211Z" fill="white"/>
<path d="M246.303 365.211C246.477 365.211 246.618 364.921 246.618 364.563C246.618 364.205 246.477 363.915 246.303 363.915C246.129 363.915 245.988 364.205 245.988 364.563C245.988 364.921 246.129 365.211 246.303 365.211Z" fill="white"/>
<path d="M248.553 365.211C248.727 365.211 248.868 364.921 248.868 364.563C248.868 364.205 248.727 363.915 248.553 363.915C248.379 363.915 248.238 364.205 248.238 364.563C248.238 364.921 248.379 365.211 248.553 365.211Z" fill="white"/>
<path d="M236.151 368.064C236.325 368.064 236.466 367.774 236.466 367.416C236.466 367.058 236.325 366.768 236.151 366.768C235.977 366.768 235.836 367.058 235.836 367.416C235.836 367.774 235.977 368.064 236.151 368.064Z" fill="white"/>
<path d="M238.41 368.064C238.584 368.064 238.725 367.774 238.725 367.416C238.725 367.058 238.584 366.768 238.41 366.768C238.236 366.768 238.095 367.058 238.095 367.416C238.095 367.774 238.236 368.064 238.41 368.064Z" fill="white"/>
<path d="M240.66 368.064C240.834 368.064 240.975 367.774 240.975 367.416C240.975 367.058 240.834 366.768 240.66 366.768C240.486 366.768 240.345 367.058 240.345 367.416C240.345 367.774 240.486 368.064 240.66 368.064Z" fill="white"/>
<path d="M242.919 368.064C243.093 368.064 243.234 367.774 243.234 367.416C243.234 367.058 243.093 366.768 242.919 366.768C242.745 366.768 242.604 367.058 242.604 367.416C242.604 367.774 242.745 368.064 242.919 368.064Z" fill="white"/>
<path d="M245.169 368.064C245.343 368.064 245.484 367.774 245.484 367.416C245.484 367.058 245.343 366.768 245.169 366.768C244.995 366.768 244.854 367.058 244.854 367.416C244.854 367.774 244.995 368.064 245.169 368.064Z" fill="white"/>
<path d="M247.743 367.416C247.743 367.776 247.599 368.064 247.428 368.064C247.257 368.064 247.113 367.776 247.113 367.416C247.113 367.056 247.257 366.759 247.428 366.759C247.599 366.759 247.743 367.056 247.743 367.416Z" fill="white"/>
<path d="M237.276 370.449C237.45 370.449 237.591 370.159 237.591 369.801C237.591 369.443 237.45 369.153 237.276 369.153C237.102 369.153 236.961 369.443 236.961 369.801C236.961 370.159 237.102 370.449 237.276 370.449Z" fill="white"/>
<path d="M239.535 370.449C239.709 370.449 239.85 370.159 239.85 369.801C239.85 369.443 239.709 369.153 239.535 369.153C239.361 369.153 239.22 369.443 239.22 369.801C239.22 370.159 239.361 370.449 239.535 370.449Z" fill="white"/>
<path d="M241.785 370.449C241.959 370.449 242.1 370.159 242.1 369.801C242.1 369.443 241.959 369.153 241.785 369.153C241.611 369.153 241.47 369.443 241.47 369.801C241.47 370.159 241.611 370.449 241.785 370.449Z" fill="white"/>
<path d="M244.044 370.449C244.218 370.449 244.359 370.159 244.359 369.801C244.359 369.443 244.218 369.153 244.044 369.153C243.87 369.153 243.729 369.443 243.729 369.801C243.729 370.159 243.87 370.449 244.044 370.449Z" fill="white"/>
<path d="M246.303 370.449C246.477 370.449 246.618 370.159 246.618 369.801C246.618 369.443 246.477 369.153 246.303 369.153C246.129 369.153 245.988 369.443 245.988 369.801C245.988 370.159 246.129 370.449 246.303 370.449Z" fill="white"/>
<path d="M248.553 370.449C248.727 370.449 248.868 370.159 248.868 369.801C248.868 369.443 248.727 369.153 248.553 369.153C248.379 369.153 248.238 369.443 248.238 369.801C248.238 370.159 248.379 370.449 248.553 370.449Z" fill="white"/>
<path d="M236.151 373.302C236.325 373.302 236.466 373.012 236.466 372.654C236.466 372.296 236.325 372.006 236.151 372.006C235.977 372.006 235.836 372.296 235.836 372.654C235.836 373.012 235.977 373.302 236.151 373.302Z" fill="white"/>
<path d="M238.41 373.302C238.584 373.302 238.725 373.012 238.725 372.654C238.725 372.296 238.584 372.006 238.41 372.006C238.236 372.006 238.095 372.296 238.095 372.654C238.095 373.012 238.236 373.302 238.41 373.302Z" fill="white"/>
<path d="M240.66 373.302C240.834 373.302 240.975 373.012 240.975 372.654C240.975 372.296 240.834 372.006 240.66 372.006C240.486 372.006 240.345 372.296 240.345 372.654C240.345 373.012 240.486 373.302 240.66 373.302Z" fill="white"/>
<path d="M242.919 373.302C243.093 373.302 243.234 373.012 243.234 372.654C243.234 372.296 243.093 372.006 242.919 372.006C242.745 372.006 242.604 372.296 242.604 372.654C242.604 373.012 242.745 373.302 242.919 373.302Z" fill="white"/>
<path d="M245.169 373.302C245.343 373.302 245.484 373.012 245.484 372.654C245.484 372.296 245.343 372.006 245.169 372.006C244.995 372.006 244.854 372.296 244.854 372.654C244.854 373.012 244.995 373.302 245.169 373.302Z" fill="white"/>
<path d="M247.743 372.654C247.743 373.014 247.599 373.302 247.428 373.302C247.257 373.302 247.113 373.014 247.113 372.654C247.113 372.294 247.257 371.997 247.428 371.997C247.599 371.997 247.743 372.294 247.743 372.654Z" fill="white"/>
</g>
<path d="M222.777 374.4H225.666V349.947H222.777V374.4Z" fill="#EE512C"/>
<path d="M242.262 374.4H244.386V349.947H242.262V374.4Z" fill="#EE512C"/>
</g>
<defs>
<clipPath id="clip0_237_2">
<rect width="450" height="450" fill="white"/>
</clipPath>
</defs>
</svg>
