<svg width="228" height="228" viewBox="0 0 228 228" fill="none" xmlns="http://www.w3.org/2000/svg">
<path d="M186.095 116.066C145.868 92.8609 80.8625 92.8609 40.8953 116.066C0.928116 139.271 1.16017 176.949 41.4049 200.173C81.6497 223.396 146.637 223.4 186.604 200.173C226.572 176.945 226.34 139.294 186.095 116.066Z" fill="#F5F5F5"/>
<path d="M197.047 171.535C193.671 169.583 188.215 169.583 184.862 171.535C181.508 173.487 181.522 176.645 184.898 178.592C188.274 180.54 193.734 180.544 197.088 178.592C200.441 176.64 200.423 173.487 197.047 171.535Z" fill="#E6E6E6"/>
<path d="M136.5 108.003L199.29 144.258C199.428 144.338 199.542 144.453 199.622 144.591C199.701 144.729 199.743 144.886 199.743 145.045C199.743 145.204 199.701 145.361 199.622 145.499C199.542 145.637 199.428 145.752 199.29 145.832L174.984 159.81C174.569 160.049 174.098 160.175 173.619 160.175C173.139 160.175 172.669 160.049 172.254 159.81L109.464 123.555C109.326 123.475 109.211 123.361 109.132 123.222C109.052 123.084 109.01 122.928 109.01 122.768C109.01 122.609 109.052 122.452 109.132 122.314C109.211 122.176 109.326 122.061 109.464 121.981L133.77 108.003C134.185 107.764 134.656 107.638 135.135 107.638C135.614 107.638 136.085 107.764 136.5 108.003Z" fill="#E6E6E6"/>
<path d="M56.1651 148.162C69.3146 140.568 90.5676 140.568 103.635 148.162C115.183 154.873 116.462 165.261 107.535 172.827C114.737 172.372 122.204 173.737 127.705 176.954C137.36 182.564 137.31 191.66 127.591 197.27C117.872 202.88 102.166 202.885 92.5105 197.27C84.8301 192.806 83.2967 186.136 87.8877 180.772C76.813 182.373 64.6326 180.672 56.0104 175.662C42.9428 168.068 43.011 155.756 56.1651 148.162Z" fill="#E6E6E6"/>
<path d="M166.252 46.1826L166.148 76.9588L168.195 78.1373L168.295 47.3611L166.252 46.1826Z" fill="#E0E0E0"/>
<path d="M168.3 47.3608H168.295L168.195 78.137L169.97 77.1042L170.07 48.3846L168.3 47.3608Z" fill="#F0F0F0"/>
<path opacity="0.2" d="M168.291 49.0127L168.295 47.3611L166.252 46.1826L166.248 47.8297L168.291 49.0127Z" fill="black"/>
<path opacity="0.2" d="M168.291 49.0125L169.729 48.1844L168.3 47.3608H168.295L168.291 49.0125Z" fill="black"/>
<path d="M166.252 29.8892L166.148 43.7576L168.195 44.936L168.295 31.0676L166.252 29.8892Z" fill="#E0E0E0"/>
<path d="M168.3 31.0674H168.295L168.195 44.9358L169.97 43.9029L170.07 32.0911L168.3 31.0674Z" fill="#F0F0F0"/>
<path opacity="0.2" d="M168.291 32.7193L168.295 31.0676L166.252 29.8892L166.248 31.5363L168.291 32.7193Z" fill="black"/>
<path opacity="0.2" d="M168.291 32.719L169.729 31.8955L168.3 31.0674H168.295L168.291 32.719Z" fill="black"/>
<path d="M141.641 31.9728L143.421 30.9399L143.316 61.7161L141.537 62.749L141.641 31.9728Z" fill="#F0F0F0"/>
<path d="M141.537 62.7492L143.316 61.7163L194.585 91.3141L192.806 92.3469L141.537 62.7492Z" fill="#F5F5F5"/>
<path d="M139.603 28.4419L194.963 60.4011L194.845 95.8911L139.485 63.9182L139.603 28.4419ZM192.806 92.3648L192.911 61.5886L141.641 32.0136L141.537 62.7898L192.806 92.3648Z" fill="#E0E0E0"/>
<path d="M139.603 28.442L141.382 27.4092L196.737 59.3684L194.963 60.4012L139.603 28.442Z" fill="#F5F5F5"/>
<path d="M194.963 60.4015L196.737 59.3687L196.624 94.845L194.845 95.8779L194.963 60.4015Z" fill="#F0F0F0"/>
<path d="M141.641 15.6793L143.421 14.6465L143.316 28.5149L141.537 29.5477L141.641 15.6793Z" fill="#F0F0F0"/>
<path d="M141.537 29.548L143.316 28.5151L194.585 58.1129L192.806 59.1457L141.537 29.548Z" fill="#F5F5F5"/>
<path d="M139.603 12.1484L194.963 44.1076L194.845 62.6762L139.485 30.717L139.603 12.1484ZM192.806 59.1499L192.92 45.277L141.641 15.6792L141.537 29.5476L192.806 59.1499Z" fill="#E0E0E0"/>
<path d="M139.603 12.1486L141.382 11.1157L196.737 43.0749L194.963 44.1078L139.603 12.1486Z" fill="#F5F5F5"/>
<path d="M194.963 44.1076L196.737 43.0747L196.624 61.6433L194.845 62.6761L194.963 44.1076Z" fill="#F0F0F0"/>
<path d="M49.0534 46.2823L49.0853 57.3797L50.4321 58.1578L50.3957 45.5088L49.0534 46.2823Z" fill="#F0F0F0"/>
<path d="M34.5663 65.761L34.5709 67.3171L50.4321 58.1579L49.0853 57.3799L34.5663 65.761Z" fill="#F5F5F5"/>
<path d="M52.0155 42.7061L32.9055 53.7353L32.951 70.1153L52.061 59.0815L52.0155 42.7061ZM34.5799 67.3398V65.7837L34.548 54.6862L49.0671 46.3051L50.4321 45.5316L50.4685 58.1806L34.5799 67.3398Z" fill="#E0E0E0"/>
<path d="M52.0155 42.7064L50.6687 41.9238L31.5587 52.9576L32.9055 53.7356L52.0155 42.7064Z" fill="#F5F5F5"/>
<path d="M31.5587 52.9575L31.6088 69.3421L32.951 70.1201L32.9055 53.7356L31.5587 52.9575Z" fill="#F0F0F0"/>
<path d="M49.0443 71.1846L49.0762 82.2821L50.4184 83.0647L50.3866 70.4111L49.0443 71.1846Z" fill="#F0F0F0"/>
<path d="M34.5572 90.6633L34.5617 92.2194L50.4185 83.0648L49.0762 82.2822L34.5572 90.6633Z" fill="#F5F5F5"/>
<path d="M52.0064 67.6084L32.8964 78.6421L32.9419 95.0221L52.0519 83.9884L52.0064 67.6084ZM34.5799 92.2193V90.6632L34.548 79.5658L49.0671 71.1847L50.4093 70.4112L50.4412 83.0647L34.5799 92.2193Z" fill="#E0E0E0"/>
<path d="M52.0064 67.6083L50.6596 66.8257L31.5496 77.8594L32.8964 78.642L52.0064 67.6083Z" fill="#F5F5F5"/>
<path d="M31.5496 77.8594L31.5951 94.2439L32.9419 95.0265L32.8964 78.642L31.5496 77.8594Z" fill="#F0F0F0"/>
<path d="M77.4819 57.6575V54.9639L77.3499 55.0549L77.1224 55.1868C75.1341 56.388 73.1366 58.2763 71.2757 60.3192C70.9723 60.6559 70.669 60.9972 70.3657 61.343C68.8005 63.1402 67.2626 65.0376 65.6883 66.803V71.1573L67.5902 70.0608C70.0657 65.333 73.4233 61.1228 77.4819 57.6575Z" fill="#EBEBEB"/>
<path d="M77.5047 64.3414V60.7378C75.8537 62.4928 74.4915 64.4984 73.4688 66.6801L77.5047 64.3414Z" fill="#EBEBEB"/>
<path d="M73.4551 66.6804C74.4778 64.4987 75.84 62.493 77.4909 60.7381V57.6577C73.4315 61.1257 70.0738 65.3391 67.5992 70.0701L73.4551 66.6895V66.6804Z" fill="#FAFAFA"/>
<path d="M69.4829 53.9449L69.7559 53.8494C70.2655 53.6674 70.7797 53.4535 71.2984 53.2169L71.4849 53.126C71.6624 53.0441 71.8353 52.9576 72.0082 52.8666C72.3085 52.7165 72.6088 52.5572 72.9182 52.3843C72.6133 52.5572 72.313 52.7165 72.0082 52.8666L72.1174 52.8166C72.3813 52.6801 72.6452 52.5345 72.9136 52.3616L73.082 52.266L73.2185 52.1841C74.6566 51.3338 76.0177 50.3595 77.2862 49.2721L77.4591 49.1219V44.572C74.5698 46.0507 71.7261 46.5103 69.4329 45.7959C67.8593 45.2925 66.5139 44.25 65.6336 42.8521L65.6655 54.682C66.9661 54.6154 68.251 54.3673 69.4829 53.9449Z" fill="#FAFAFA"/>
<path d="M71.2802 60.3012C73.1412 58.2583 75.1386 56.37 77.1269 55.1688L77.3544 55.0369L77.4773 54.9641V52.3569C73.6224 54.6268 70.05 57.3454 66.8349 60.4559C66.4481 60.8245 66.0659 61.2021 65.6792 61.5616V66.8032C67.2535 65.0196 68.7914 63.1222 70.3566 61.3432C70.6629 60.9853 70.9708 60.6379 71.2802 60.3012Z" fill="#FAFAFA"/>
<path d="M77.4682 52.3568V49.1445L77.2953 49.2947C76.0268 50.382 74.6658 51.3564 73.2276 52.2067L73.0911 52.2886L72.9227 52.3841C72.6543 52.5343 72.3904 52.6799 72.1265 52.8391L72.0173 52.8892C71.8444 52.9802 71.6715 53.0621 71.4986 53.1485L71.3075 53.2395C70.7888 53.4761 70.2746 53.6945 69.765 53.872L69.492 53.9675C68.2569 54.3989 66.9672 54.6546 65.6609 54.7274V61.5842C66.0477 61.2248 66.4299 60.8471 66.8166 60.4786C70.0334 57.3595 73.6089 54.6332 77.4682 52.3568Z" fill="#EBEBEB"/>
<path d="M77.4363 40.909V37.542C75.6163 37.1143 74.1922 35.7857 73.4505 33.7974L69.4147 36.127C70.121 37.6342 71.2627 38.8953 72.6924 39.7476C74.1222 40.6 75.7745 41.0045 77.4363 40.909Z" fill="#FAFAFA"/>
<path d="M69.4193 45.8139C71.6943 46.5283 74.5562 46.0687 77.4455 44.59V40.909C75.7807 41.0082 74.1244 40.6055 72.691 39.7529C71.2576 38.9004 70.1131 37.6372 69.4056 36.127L65.6064 38.3201V42.8701C66.4901 44.2706 67.8407 45.3134 69.4193 45.8139Z" fill="#EBEBEB"/>
<path d="M78.0734 30.3574L64.9376 37.9423L65.0331 72.3039L78.169 64.719L78.0734 30.3574ZM65.6974 71.1573V66.8029V61.5613V54.7045L65.6656 42.8745V38.3245L69.4648 36.1314L73.5007 33.8018L77.4683 31.5268V37.5646V40.9316V44.6126V49.1626V52.3749V54.982V57.6756V60.756V64.3596L73.4188 66.6983L67.5993 70.0698L65.6974 71.1573Z" fill="white"/>
<path d="M77.4273 37.5418V31.5039L73.4597 33.7789C74.1649 35.7855 75.6027 37.1141 77.4273 37.5418Z" fill="#EBEBEB"/>
<path d="M78.1689 64.7192L65.0331 72.3041L65.0376 73.2141L78.9606 65.1788L78.1689 64.7192Z" fill="#CACACA"/>
<path d="M78.0733 30.3573L78.1689 64.7189L78.9606 65.1785L78.8605 29.9023L78.0733 30.3573Z" fill="#F0F0F0"/>
<path d="M80.9899 26.2441L62.8126 36.7319L62.9264 76.8947L81.0854 66.4297L80.9899 26.2441ZM65.0649 73.2183V72.3083L64.9693 37.9467L78.1052 30.3619L78.8923 29.9069L78.9924 65.183L65.0649 73.2183Z" fill="#E0E0E0"/>
<path d="M80.9716 26.2443L79.4747 25.439L61.3111 35.9267L62.8126 36.7321L80.9716 26.2443Z" fill="#F5F5F5"/>
<path d="M61.3111 35.9268L61.4248 76.0714L62.9263 76.8722L62.8126 36.7321L61.3111 35.9268Z" fill="#F0F0F0"/>
<path d="M44.4398 50.4956L48.4028 53.6124L48.4074 56.6563L35.2397 64.2593L35.2306 61.2154L37.7422 56.2286L39.9944 57.9804L39.1982 60.4556L40.3539 58.2579L44.4398 50.4956Z" fill="#E0E0E0"/>
<path d="M40.1173 52.0292C40.7361 51.6698 41.2412 51.961 41.2412 52.6708C41.2196 53.0578 41.107 53.4342 40.9125 53.7694C40.718 54.1047 40.4471 54.3892 40.1219 54.6C39.5031 54.9594 38.998 54.6682 38.998 53.9584C39.0188 53.5713 39.1311 53.1946 39.3257 52.8592C39.5202 52.5239 39.7915 52.2394 40.1173 52.0292Z" fill="#E0E0E0"/>
<path d="M44.4307 75.3979L48.3892 78.5147L48.3983 81.5586L35.2306 89.1662L35.2215 86.1177L37.7331 81.1355L39.9853 82.8827L39.1891 85.3579L40.3448 83.1602L44.4307 75.3979Z" fill="#E0E0E0"/>
<path d="M40.1036 76.9315C40.727 76.5766 41.2275 76.8633 41.232 77.5731C41.2116 77.9615 41.0995 78.3397 40.905 78.6765C40.7104 79.0134 40.439 79.2995 40.1127 79.5114C39.4939 79.8708 38.9889 79.5842 38.9889 78.8698C39.0089 78.4818 39.1202 78.1039 39.314 77.7671C39.5077 77.4302 39.7783 77.1439 40.1036 76.9315Z" fill="#E0E0E0"/>
<path d="M112.039 87.3965V123.496L173.441 158.759V122.659L112.039 87.3965Z" fill="#E0E0E0"/>
<path d="M197.661 108.718V144.822L173.441 158.759V122.659L197.661 108.718Z" fill="#E0E0E0"/>
<path opacity="0.1" d="M112.039 87.3965V123.496L173.441 158.759V122.659L112.039 87.3965Z" fill="black"/>
<path opacity="0.2" d="M197.661 108.718V144.822L173.441 158.759V122.659L197.661 108.718Z" fill="black"/>
<path d="M141.801 127.045L170.543 143.553V135.076L141.801 118.573V127.045Z" fill="#E0E0E0"/>
<path d="M170.543 133.051V124.338L141.801 107.835V116.544L170.543 133.051Z" fill="#E0E0E0"/>
<path d="M138.902 106.17L114.942 92.4058V101.119L138.902 114.878V106.17Z" fill="#E0E0E0"/>
<path d="M141.801 137.246L170.543 153.749V145.577L141.801 129.07V137.246Z" fill="#E0E0E0"/>
<path d="M138.902 116.908L114.942 103.144V111.621L138.902 125.38V116.908Z" fill="#E0E0E0"/>
<path d="M114.942 113.646V121.817L138.902 135.581V127.405L114.942 113.646Z" fill="#E0E0E0"/>
<path d="M111.17 84.034L174.001 120.12L198.53 106.001L135.663 69.8926L111.17 84.034Z" fill="#EBEBEB"/>
<path d="M111.17 84.0342V87.7197L174.001 123.81V120.12L111.17 84.0342Z" fill="#E0E0E0"/>
<path d="M198.53 106.001V109.692L174.001 123.81V120.12L198.53 106.001Z" fill="#E0E0E0"/>
<path opacity="0.1" d="M198.53 106.001V109.692L174.001 123.81V120.12L198.53 106.001Z" fill="black"/>
<path d="M199.149 160.319L190.959 160.556L182.769 160.319C182.418 165.843 183.497 171.467 184.985 174.215C185.335 174.923 185.903 175.5 186.604 175.862C189.016 177.254 192.911 177.254 195.309 175.862C196.02 175.493 196.589 174.9 196.928 174.174C198.434 171.408 199.499 165.816 199.149 160.319Z" fill="white"/>
<path d="M196.737 156.975C199.922 158.827 199.954 161.825 196.774 163.673C193.593 165.52 188.415 165.525 185.212 163.673C182.009 161.821 182 158.822 185.185 156.975C188.37 155.128 193.534 155.123 196.737 156.975Z" fill="#EBEBEB"/>
<path d="M195.468 157.708C197.97 159.15 197.98 161.489 195.5 162.931C193.02 164.373 188.98 164.373 186.477 162.931C183.975 161.489 183.966 159.15 186.45 157.708C188.934 156.265 192.97 156.265 195.468 157.708Z" fill="#E0E0E0"/>
<g opacity="0.15">
<path d="M195.468 157.708C197.97 159.15 197.98 161.489 195.5 162.931C193.02 164.373 188.98 164.373 186.477 162.931C183.975 161.489 183.966 159.15 186.45 157.708C188.934 156.265 192.97 156.265 195.468 157.708Z" fill="black"/>
</g>
<path d="M204.413 125.435C185.99 131.468 185.827 143.794 189.976 152.571C191.027 154.345 194.194 155.301 196.956 144.381L192.115 145L197.757 142.142L199.222 137.761L194.517 138.111L200.487 135.59C201.586 132.128 202.897 128.736 204.413 125.435Z" fill="#EE512C"/>
<path opacity="0.2" d="M204.413 125.435C185.99 131.468 185.827 143.794 189.976 152.571C191.027 154.345 194.194 155.301 196.956 144.381L192.115 145L197.757 142.142L199.222 137.761L194.517 138.111L200.487 135.59C201.586 132.128 202.897 128.736 204.413 125.435Z" fill="black"/>
<path opacity="0.2" d="M204.413 125.435C185.99 131.468 185.827 143.794 189.976 152.571C191.027 154.345 194.194 155.301 196.956 144.381L192.115 145L197.757 142.142L199.222 137.761L194.517 138.111L200.487 135.59C201.586 132.128 202.897 128.736 204.413 125.435Z" fill="white"/>
<path d="M199.203 128.515C189.489 135.891 188.611 144.345 191.355 153.172C190.386 145.4 189.334 137.542 199.203 128.515Z" fill="white"/>
<path d="M173.209 137.956C191.373 140.513 193.575 151.961 191.164 160.829C190.486 162.649 187.692 164.073 183.306 154.363L187.915 154.136L182.191 152.425L180.098 148.589L184.534 148.134L178.56 146.769C176.961 143.724 175.173 140.78 173.209 137.956Z" fill="#EE512C"/>
<path opacity="0.2" d="M173.209 137.956C191.373 140.513 193.575 151.961 191.164 160.829C190.486 162.649 187.692 164.073 183.306 154.363L187.915 154.136L182.191 152.425L180.098 148.589L184.534 148.134L178.56 146.769C176.961 143.724 175.173 140.78 173.209 137.956Z" fill="white"/>
<path opacity="0.1" d="M173.209 137.956C191.373 140.513 193.575 151.961 191.164 160.829C190.486 162.649 187.692 164.073 183.306 154.363L187.915 154.136L182.191 152.425L180.098 148.589L184.534 148.134L178.56 146.769C176.961 143.724 175.173 140.78 173.209 137.956Z" fill="black"/>
<path d="M178.574 139.958C188.848 145.213 191.073 152.939 189.981 161.616C189.594 154.218 189.28 146.724 178.574 139.958Z" fill="white"/>
<path d="M209.755 142.247C193.097 142.515 189.83 152.593 191.013 160.852C191.418 162.576 193.78 164.164 198.817 155.906L194.685 155.187L200.041 154.277L202.357 151.055L198.38 150.15L203.917 149.604C205.708 147.033 207.658 144.575 209.755 142.247Z" fill="#EE512C"/>
<path d="M204.673 143.453C194.822 147.038 191.955 153.754 191.969 161.694C193.143 155.069 194.285 148.353 204.673 143.453Z" fill="white"/>
<path opacity="0.2" d="M209.755 142.247C193.097 142.515 189.83 152.593 191.013 160.852C191.418 162.576 193.78 164.164 198.817 155.906L194.685 155.187L200.041 154.277L202.357 151.055L198.38 150.15L203.917 149.604C205.708 147.033 207.658 144.575 209.755 142.247Z" fill="white"/>
<path d="M128.574 72.1765L147.875 61.1063C149.181 60.3556 152.275 61.3702 152.275 63.4678C152.274 63.2976 152.229 63.1307 152.143 62.9835C152.058 62.8363 151.936 62.714 151.788 62.6289C151.641 62.5437 151.474 62.4987 151.304 62.4982C151.134 62.4977 150.967 62.5417 150.819 62.626L131.518 73.7098C131.026 73.9952 130.631 74.4195 130.38 74.9292L127.491 73.2548C127.748 72.8044 128.122 72.4318 128.574 72.1765Z" fill="#EE512C"/>
<path d="M130.38 74.9204C130.18 75.3208 130.053 80.5442 130.053 81.0037V96.7012C130.052 96.8712 130.097 97.0383 130.182 97.1856C130.266 97.333 130.388 97.4555 130.536 97.5407C130.683 97.626 130.849 97.6711 131.019 97.6715C131.189 97.6719 131.357 97.6276 131.504 97.543C131.074 97.8112 130.581 97.961 130.075 97.9772C129.569 97.9934 129.067 97.8754 128.622 97.6351C128.176 97.3948 127.801 97.0409 127.536 96.6092C127.271 96.1774 127.126 95.6833 127.113 95.177V74.702C127.115 74.2028 127.245 73.7125 127.491 73.2778L130.38 74.9204Z" fill="#EE512C"/>
<path opacity="0.4" d="M128.574 72.1765L147.875 61.1063C149.181 60.3556 152.275 61.3702 152.275 63.4678C152.274 63.2976 152.229 63.1307 152.143 62.9835C152.058 62.8363 151.936 62.714 151.788 62.6289C151.641 62.5437 151.474 62.4987 151.304 62.4982C151.134 62.4977 150.967 62.5417 150.819 62.626L131.518 73.7098C131.026 73.9952 130.631 74.4195 130.38 74.9292L127.491 73.2548C127.748 72.8044 128.122 72.4318 128.574 72.1765Z" fill="white"/>
<path opacity="0.2" d="M130.38 74.9204C130.18 75.3208 130.053 80.5442 130.053 81.0037V96.7012C130.052 96.8712 130.097 97.0383 130.182 97.1856C130.266 97.333 130.388 97.4555 130.536 97.5407C130.683 97.626 130.849 97.6711 131.019 97.6715C131.189 97.6719 131.357 97.6276 131.504 97.543C131.074 97.8112 130.581 97.961 130.075 97.9772C129.569 97.9934 129.067 97.8754 128.622 97.6351C128.176 97.3948 127.801 97.0409 127.536 96.6092C127.271 96.1774 127.126 95.6833 127.113 95.177V74.702C127.115 74.2028 127.245 73.7125 127.491 73.2778L130.38 74.9204Z" fill="white"/>
<path d="M150.814 62.6259L131.518 73.7097C131.073 73.9637 130.704 74.3305 130.446 74.7731C130.189 75.2157 130.053 75.7184 130.053 76.2304V96.7054C130.052 96.8754 130.097 97.0424 130.182 97.1898C130.266 97.3372 130.388 97.4596 130.536 97.5449C130.683 97.6302 130.849 97.6753 131.019 97.6757C131.189 97.6761 131.357 97.6317 131.504 97.5471L150.801 86.5088C151.247 86.2554 151.618 85.8882 151.876 85.4446C152.134 85.001 152.27 84.4969 152.27 83.9836V63.4676C152.269 63.2975 152.224 63.1306 152.139 62.9834C152.054 62.8362 151.931 62.7139 151.784 62.6288C151.637 62.5436 151.47 62.4986 151.299 62.4981C151.129 62.4975 150.962 62.5416 150.814 62.6259Z" fill="#EE512C"/>
<path d="M121.28 100.209L120.993 100.145C120.933 100.135 120.878 100.106 120.834 100.063C120.57 99.8358 120.639 99.1988 121.039 98.6983L130.053 87.4416L127.113 85.7627L118.095 97.0194C117.699 97.5153 117.64 98.1523 117.895 98.3844L120.693 99.9723L113.413 109.095L116.357 110.774L124.283 100.846L121.28 100.209Z" fill="#EE512C"/>
<path d="M130.052 91.5686V87.4463L121.03 98.703C120.629 99.1989 120.575 99.8359 120.825 100.068C120.869 100.111 120.924 100.139 120.984 100.15L121.271 100.214L124.269 100.855L116.343 110.783L127.159 99.6903C127.673 99.1671 127.787 98.3253 127.377 98.1479L124.975 97.0968L125.28 96.7647L130.052 91.5686Z" fill="#EE512C"/>
<path d="M127.386 98.1435L125.289 96.7603L124.984 97.0924L127.386 98.1435Z" fill="#EE512C"/>
<path opacity="0.4" d="M121.28 100.209L120.993 100.145C120.933 100.135 120.878 100.106 120.834 100.063C120.57 99.8358 120.639 99.1988 121.039 98.6983L130.053 87.4416L127.113 85.7627L118.095 97.0194C117.699 97.5153 117.64 98.1523 117.895 98.3844L120.693 99.9723L113.413 109.095L116.357 110.774L124.283 100.846L121.28 100.209Z" fill="white"/>
<path opacity="0.2" d="M127.386 98.1435L125.289 96.7603L124.984 97.0924L127.386 98.1435Z" fill="white"/>
<path d="M144.494 74.5105L147.465 72.7997V76.5944L147.097 76.8082L147.12 83.8698L136.154 90.2034V83.1373L135.785 83.3511V79.5564L140.031 77.104L139.23 76.9857C138.86 76.9541 138.503 76.8356 138.188 76.6399C137.988 76.4783 137.835 76.2673 137.742 76.0278C137.649 75.7883 137.621 75.5287 137.66 75.2749C137.706 74.8609 137.836 74.4604 138.041 74.0977C138.246 73.7349 138.522 73.4172 138.852 73.1637C138.881 73.1414 138.911 73.1216 138.943 73.1045C139.092 73.002 139.265 72.9412 139.445 72.9284C139.625 72.9156 139.805 72.9513 139.967 73.0317C140.197 73.1851 140.387 73.393 140.517 73.6369C140.827 74.1328 141.123 74.6697 141.4 75.2066C141.845 73.889 142.457 72.6336 143.22 71.4711C143.545 70.9591 143.935 70.4911 144.38 70.0788C144.529 69.9502 144.689 69.836 144.858 69.7375C145.003 69.6341 145.169 69.5627 145.344 69.5281C145.519 69.4936 145.699 69.4968 145.873 69.5373C146.528 69.7557 146.569 70.7931 146.269 71.7031C145.96 72.5537 145.497 73.3403 144.904 74.0236C144.776 74.1647 144.64 74.3421 144.494 74.5105ZM140.477 86.9638V80.6439L136.805 82.7596V89.0841L140.477 86.9638ZM146.478 83.5013V77.1768L142.811 79.2971V85.617L146.483 83.5013M143.825 71.9761C143.09 73.1026 142.521 74.3283 142.133 75.6161C142.98 74.9519 143.744 74.1881 144.408 73.3411C144.821 72.8685 145.148 72.3262 145.372 71.7395C145.509 71.33 145.5 70.8295 145.254 70.7567C145.182 70.7425 145.109 70.7432 145.037 70.7588C144.966 70.7745 144.899 70.8048 144.84 70.8477C144.756 70.8978 144.677 70.9557 144.603 71.0206C144.297 71.308 144.03 71.6337 143.807 71.9898M140.445 79.9159V77.5999L136.4 79.9341V82.2455L140.44 79.9159M146.81 76.2349V73.9235L142.77 76.2577V78.5691L146.81 76.2349ZM139.735 75.7799L140.335 75.8709C140.117 75.4569 139.88 75.0519 139.644 74.6697C139.556 74.4916 139.428 74.3359 139.271 74.2147C139.219 74.1856 139.161 74.1703 139.102 74.1703C139.043 74.1703 138.985 74.1856 138.934 74.2147C138.758 74.3737 138.648 74.5928 138.625 74.829C138.61 74.9551 138.629 75.0828 138.68 75.1993C138.73 75.3158 138.81 75.4172 138.911 75.4933C139.17 75.6402 139.457 75.7287 139.753 75.7526" fill="white"/>
<path d="M139.53 51.988C139.985 51.7332 140.34 51.938 140.34 52.443V56.7109C140.324 56.9898 140.243 57.261 140.103 57.5028C139.963 57.7445 139.768 57.9502 139.535 58.1032C139.08 58.3626 138.725 58.1533 138.725 57.6482V53.3849C138.74 53.1052 138.821 52.8329 138.961 52.5903C139.101 52.3476 139.296 52.1413 139.53 51.988Z" fill="#EE512C"/>
<path d="M128.669 61.6117C128.947 61.4479 129.22 61.4615 129.365 61.6708L131.236 64.2916C131.458 64.6056 131.327 65.2517 130.944 65.7294C130.833 65.8722 130.696 65.9926 130.539 66.0843C130.438 66.1686 130.308 66.2096 130.177 66.1985C130.046 66.1875 129.924 66.1252 129.839 66.0252L127.973 63.4044C127.75 63.0904 127.878 62.4489 128.264 61.9666C128.374 61.8226 128.512 61.7019 128.669 61.6117Z" fill="#EE512C"/>
<path d="M120.734 75.3477C120.857 75.2728 121 75.2348 121.144 75.2385L124.361 75.5161C124.747 75.5479 124.879 76.0393 124.661 76.6126C124.527 76.9703 124.281 77.2752 123.96 77.4817C123.841 77.5574 123.701 77.594 123.56 77.5863L120.338 77.3133C119.952 77.2769 119.815 76.7901 120.038 76.2168C120.171 75.8597 120.415 75.555 120.734 75.3477Z" fill="#EE512C"/>
<path d="M121.567 87.3602C122.022 87.1008 122.377 87.3101 122.381 87.8152C122.365 88.0941 122.284 88.3654 122.144 88.6072C122.005 88.8491 121.81 89.0547 121.576 89.2075L117.845 91.3778C117.39 91.6326 117.04 91.4233 117.035 90.9228C117.05 90.6437 117.131 90.3721 117.271 90.1302C117.411 89.8882 117.606 89.6828 117.84 89.5305L121.567 87.3602Z" fill="#EE512C"/>
<path d="M130.64 100.1C130.759 100.023 130.898 99.9851 131.04 99.9908C131.427 100.027 131.559 100.519 131.34 101.092L129.493 105.856C129.36 106.212 129.116 106.515 128.797 106.72C128.675 106.795 128.535 106.833 128.392 106.829C128.005 106.798 127.873 106.306 128.092 105.733L129.939 100.969C130.071 100.611 130.317 100.306 130.64 100.1Z" fill="#EE512C"/>
<path d="M139.658 97.6886C140.113 97.4293 140.467 97.634 140.467 98.1436V102.407C140.452 102.687 140.371 102.958 140.231 103.201C140.091 103.444 139.896 103.65 139.662 103.804C139.207 104.059 138.852 103.849 138.852 103.349V99.0855C138.867 98.8056 138.947 98.5331 139.087 98.2903C139.227 98.0475 139.423 97.8413 139.658 97.6886Z" fill="#EE512C"/>
<path d="M148.662 89.7079C148.944 89.5441 149.217 89.5532 149.367 89.7671L151.233 92.3879C151.456 92.7018 151.324 93.3479 150.942 93.8257C150.83 93.9684 150.693 94.0888 150.537 94.1806C150.435 94.2648 150.305 94.3059 150.174 94.2948C150.043 94.2837 149.921 94.2214 149.836 94.1214L147.97 91.5006C147.747 91.1867 147.875 90.5406 148.262 90.0628C148.373 89.9214 148.508 89.8012 148.662 89.7079Z" fill="#EE512C"/>
<path d="M155.241 78.3144C155.362 78.2375 155.503 78.1994 155.646 78.2052L158.868 78.4782C159.254 78.5146 159.386 79.006 159.163 79.5793C159.034 79.9368 158.789 80.241 158.467 80.4438C158.347 80.5212 158.205 80.5594 158.062 80.553L154.845 80.2754C154.459 80.2436 154.322 79.7522 154.545 79.1789C154.678 78.823 154.922 78.5197 155.241 78.3144Z" fill="#EE512C"/>
<path d="M161.343 64.4145C161.798 64.1597 162.148 64.369 162.148 64.8695C162.134 65.1482 162.054 65.4197 161.915 65.6617C161.776 65.9037 161.581 66.1093 161.347 66.2618L157.635 68.4048C157.18 68.6642 156.825 68.4549 156.825 67.9498C156.839 67.67 156.92 67.3977 157.06 67.1549C157.2 66.9122 157.395 66.7059 157.63 66.553L161.343 64.4145Z" fill="#EE512C"/>
<path d="M158.394 53.6079C158.672 53.4486 158.94 53.4577 159.091 53.667C159.314 53.981 159.186 54.6271 158.799 55.1048L155.61 59.0906C155.5 59.2344 155.364 59.3563 155.209 59.4501C154.932 59.6139 154.654 59.6048 154.509 59.3909C154.281 59.077 154.413 58.4309 154.8 57.9531L158.008 53.9673C158.114 53.825 158.245 53.7032 158.394 53.6079Z" fill="#EE512C"/>
<path d="M150.409 49.058C150.53 48.9811 150.671 48.943 150.814 48.9488C151.196 48.9852 151.333 49.4721 151.11 50.0454L149.267 54.8092C149.134 55.1656 148.89 55.4701 148.571 55.6783C148.449 55.7531 148.309 55.791 148.166 55.7875C147.779 55.7511 147.647 55.2597 147.866 54.6909L149.686 49.9271C149.825 49.5656 150.079 49.26 150.409 49.058Z" fill="#EE512C"/>
<g opacity="0.6">
<path d="M139.53 51.988C139.985 51.7332 140.34 51.938 140.34 52.443V56.7109C140.324 56.9898 140.243 57.261 140.103 57.5028C139.963 57.7445 139.768 57.9502 139.535 58.1032C139.08 58.3626 138.725 58.1533 138.725 57.6482V53.3849C138.74 53.1052 138.821 52.8329 138.961 52.5903C139.101 52.3476 139.296 52.1413 139.53 51.988Z" fill="white"/>
<path d="M128.669 61.6117C128.947 61.4479 129.22 61.4615 129.366 61.6708L131.236 64.2916C131.459 64.6056 131.327 65.2517 130.944 65.7294C130.833 65.8722 130.696 65.9926 130.539 66.0843C130.438 66.1686 130.308 66.2096 130.177 66.1985C130.046 66.1875 129.924 66.1252 129.839 66.0252L127.973 63.4044C127.75 63.0904 127.878 62.4489 128.264 61.9666C128.375 61.8226 128.512 61.7019 128.669 61.6117Z" fill="white"/>
<path d="M120.734 75.3477C120.857 75.2728 121 75.2348 121.144 75.2385L124.361 75.5161C124.747 75.5479 124.879 76.0393 124.661 76.6126C124.527 76.9703 124.281 77.2752 123.96 77.4817C123.841 77.5574 123.701 77.594 123.56 77.5863L120.338 77.3133C119.952 77.2769 119.815 76.7901 120.038 76.2168C120.171 75.8597 120.415 75.555 120.734 75.3477Z" fill="white"/>
<path d="M121.567 87.3602C122.022 87.1008 122.377 87.3101 122.381 87.8152C122.365 88.0941 122.284 88.3654 122.144 88.6072C122.005 88.8491 121.81 89.0547 121.576 89.2075L117.845 91.3778C117.39 91.6326 117.04 91.4233 117.035 90.9228C117.05 90.6437 117.131 90.3721 117.271 90.1302C117.411 89.8882 117.606 89.6828 117.84 89.5305L121.567 87.3602Z" fill="white"/>
<path d="M130.64 100.1C130.759 100.023 130.898 99.9851 131.04 99.9908C131.427 100.027 131.559 100.519 131.34 101.092L129.493 105.856C129.361 106.212 129.116 106.515 128.797 106.72C128.675 106.795 128.535 106.833 128.392 106.829C128.005 106.798 127.873 106.306 128.092 105.733L129.939 100.969C130.071 100.611 130.318 100.306 130.64 100.1Z" fill="white"/>
<path d="M139.658 97.6886C140.113 97.4293 140.468 97.634 140.468 98.1436V102.407C140.452 102.687 140.371 102.958 140.231 103.201C140.091 103.444 139.896 103.65 139.662 103.804C139.207 104.059 138.852 103.849 138.852 103.349V99.0855C138.867 98.8056 138.947 98.5331 139.087 98.2903C139.227 98.0475 139.423 97.8413 139.658 97.6886Z" fill="white"/>
<path d="M148.662 89.7079C148.944 89.5441 149.217 89.5532 149.367 89.7671L151.233 92.3879C151.456 92.7018 151.324 93.3479 150.942 93.8257C150.83 93.9684 150.693 94.0888 150.537 94.1806C150.436 94.2648 150.305 94.3059 150.174 94.2948C150.043 94.2837 149.922 94.2214 149.836 94.1214L147.97 91.5006C147.748 91.1867 147.875 90.5406 148.262 90.0628C148.373 89.9214 148.508 89.8012 148.662 89.7079Z" fill="white"/>
<path d="M155.241 78.3144C155.362 78.2375 155.503 78.1994 155.646 78.2052L158.868 78.4782C159.254 78.5146 159.386 79.006 159.163 79.5793C159.034 79.9368 158.789 80.241 158.467 80.4438C158.347 80.5212 158.205 80.5594 158.062 80.553L154.846 80.2754C154.459 80.2436 154.322 79.7522 154.545 79.1789C154.678 78.823 154.922 78.5197 155.241 78.3144Z" fill="white"/>
<path d="M161.343 64.4145C161.798 64.1597 162.148 64.369 162.148 64.8695C162.134 65.1482 162.054 65.4197 161.915 65.6617C161.776 65.9037 161.581 66.1093 161.347 66.2618L157.635 68.4048C157.18 68.6642 156.825 68.4549 156.825 67.9498C156.84 67.67 156.92 67.3977 157.06 67.1549C157.2 66.9122 157.395 66.7059 157.63 66.553L161.343 64.4145Z" fill="white"/>
<path d="M158.395 53.6079C158.672 53.4486 158.941 53.4577 159.091 53.667C159.314 53.981 159.186 54.6271 158.799 55.1048L155.61 59.0906C155.5 59.2344 155.364 59.3563 155.21 59.4501C154.932 59.6139 154.654 59.6048 154.509 59.3909C154.281 59.077 154.413 58.4309 154.8 57.9531L158.008 53.9673C158.114 53.825 158.245 53.7032 158.395 53.6079Z" fill="white"/>
<path d="M150.409 49.058C150.53 48.9811 150.671 48.943 150.814 48.9488C151.196 48.9852 151.333 49.4721 151.11 50.0454L149.267 54.8092C149.134 55.1656 148.89 55.4701 148.571 55.6783C148.45 55.7531 148.309 55.791 148.166 55.7875C147.779 55.7511 147.647 55.2597 147.866 54.6909L149.686 49.9271C149.825 49.5656 150.079 49.26 150.409 49.058Z" fill="white"/>
</g>
<path d="M97.2834 121.999C101.765 125.116 106.838 127.268 110.565 131.445C117.558 139.244 117.722 151.793 112.23 160.715C106.738 169.638 96.5145 174.998 86.1086 176.222C75.1886 177.509 63.7363 174.493 55.1686 167.604C46.601 160.715 41.1501 149.945 41.1547 138.939C41.1592 127.932 46.7921 116.999 55.9967 110.997C64.4006 105.537 76.4717 103.954 84.8983 110.224C89.1571 113.409 92.0009 118.068 96.2733 121.248C96.5918 121.517 96.9376 121.763 97.2834 121.999Z" fill="#EE512C"/>
<path opacity="0.2" d="M97.2834 121.999C101.765 125.116 106.838 127.268 110.565 131.445C117.558 139.244 117.722 151.793 112.23 160.715C106.738 169.638 96.5145 174.998 86.1086 176.222C75.1886 177.509 63.7363 174.493 55.1686 167.604C46.601 160.715 41.1501 149.945 41.1547 138.939C41.1592 127.932 46.7921 116.999 55.9967 110.997C64.4006 105.537 76.4717 103.954 84.8983 110.224C89.1571 113.409 92.0009 118.068 96.2733 121.248C96.5918 121.517 96.9376 121.763 97.2834 121.999Z" fill="black"/>
<path opacity="0.1" d="M97.2834 121.999C101.765 125.116 106.838 127.268 110.565 131.445C117.558 139.244 117.722 151.793 112.23 160.715C106.738 169.638 96.5145 174.998 86.1086 176.222C75.1886 177.509 63.7363 174.493 55.1686 167.604C46.601 160.715 41.1501 149.945 41.1547 138.939C41.1592 127.932 46.7921 116.999 55.9967 110.997C64.4006 105.537 76.4717 103.954 84.8983 110.224C89.1571 113.409 92.0009 118.068 96.2733 121.248C96.5918 121.517 96.9376 121.763 97.2834 121.999Z" fill="white"/>
<path opacity="0.1" d="M95.4544 167.7C95.4544 167.627 95.4544 167.549 95.4225 167.477C95.049 165.048 93.9282 162.795 92.2159 161.032C90.5035 159.269 88.2847 158.084 85.8675 157.64C81.5381 156.812 77.3896 155.224 73.6144 152.949C70.9344 151.329 68.4046 149.34 65.4016 148.467C62.4778 147.628 59.3556 147.807 56.5473 148.976C59.0726 146.328 63.3996 145.163 66.8622 146.36C64.4689 142.697 62.3622 138.748 61.5341 134.448C60.706 130.148 61.2975 125.435 63.8865 121.904C64.9916 120.4 66.4165 119.16 68.0586 118.273C69.7007 117.387 71.5191 116.875 73.3826 116.776C75.2462 116.677 77.1085 116.992 78.8355 117.7C80.5625 118.407 82.111 119.489 83.3696 120.866C85.9403 123.674 87.3872 127.623 89.0707 131.036C90.281 133.484 91.5368 135.991 93.5297 137.861C96.5418 140.677 100.873 141.692 103.995 144.385C107.539 147.443 109.063 152.33 109.082 157.003C109.025 160.159 108.566 163.295 107.717 166.335C104.055 169.83 99.688 172.5 94.9084 174.165C95.5987 172.083 95.7859 169.868 95.4544 167.7Z" fill="black"/>
<path d="M47.0196 137.447C47.1565 129.855 49.9825 122.557 54.9949 116.853C60.0073 111.149 66.8808 107.409 74.3924 106.297C75.4346 106.397 76.4685 106.571 77.4864 106.816C69.5905 107.235 62.1463 110.629 56.651 116.314C51.1557 122 48.0169 129.555 47.8659 137.46C47.6657 147.693 52.6707 158.122 61.2565 165.356C67.9814 171.026 76.9176 174.789 86.7365 176.14L86.1086 176.222C85.2259 176.326 84.3387 176.399 83.4514 176.449C74.7245 174.757 66.8257 171.158 60.7014 165.984C51.9336 158.604 46.8148 147.93 47.0196 137.447Z" fill="white"/>
<path d="M99.4173 175.22L98.2798 177.45C96.6873 175.98 96.4007 174.793 96.4007 174.793C96.9148 172.973 97.5154 171.125 97.8112 170.243C97.9659 171.494 98.8213 172.572 99.1762 173.792C99.3141 174.256 99.3951 174.736 99.4173 175.22Z" fill="#EE512C"/>
<path d="M99.3628 177.505L98.2799 177.45L99.4038 175.221C99.4493 175.976 99.3856 176.74 99.3628 177.505Z" fill="#EE512C"/>
<path opacity="0.1" d="M99.4173 175.22L98.2798 177.45C96.6873 175.98 96.4007 174.793 96.4007 174.793C96.9148 172.973 97.5154 171.125 97.8112 170.243C97.9659 171.494 98.8213 172.572 99.1762 173.792C99.3141 174.256 99.3951 174.736 99.4173 175.22Z" fill="black"/>
<path opacity="0.4" d="M99.3628 177.505L98.2799 177.45L99.4038 175.221C99.4493 175.976 99.3856 176.74 99.3628 177.505Z" fill="black"/>
<path d="M98.5484 167.595C98.9359 167.032 99.3811 166.512 99.877 166.043C99.5995 167.015 99.5995 168.046 99.877 169.019C100.214 170.311 100.819 171.521 101.119 172.822C101.488 174.401 101.406 176.103 102.075 177.582C102.408 178.301 102.905 178.933 103.524 179.427C104.144 179.922 104.871 180.265 105.646 180.43C106.216 180.584 106.823 180.51 107.339 180.225C107.556 180.07 107.716 179.848 107.794 179.593C108.132 180.296 108.54 180.962 109.013 181.581C109.541 182.268 110.201 183.019 110.055 183.856C109.969 184.206 109.782 184.522 109.516 184.765C109.251 185.008 108.919 185.167 108.563 185.221C107.852 185.323 107.128 185.264 106.443 185.048C104.936 184.722 103.498 184.135 102.193 183.315C100.882 182.479 99.9226 181.192 99.4948 179.698C99.3399 178.973 99.2848 178.23 99.331 177.491C99.3537 176.726 99.4174 175.962 99.3856 175.216C99.3703 174.728 99.2955 174.243 99.1626 173.773C98.8032 172.554 97.9478 171.476 97.7976 170.224C97.7976 170.156 97.7749 170.088 97.7703 170.02C97.7621 169.149 98.0349 168.298 98.5484 167.595Z" fill="#455A64"/>
<path d="M98.5484 167.595C98.9359 167.032 99.3811 166.512 99.877 166.043C99.5995 167.015 99.5995 168.046 99.877 169.019C100.214 170.311 100.819 171.521 101.119 172.822C101.488 174.401 101.406 176.103 102.075 177.582C102.408 178.301 102.905 178.933 103.524 179.427C104.144 179.922 104.871 180.265 105.646 180.43C106.216 180.584 106.823 180.51 107.339 180.225C107.556 180.07 107.716 179.848 107.794 179.593C108.132 180.296 108.54 180.962 109.013 181.581C109.541 182.268 110.201 183.019 110.055 183.856C109.969 184.206 109.782 184.522 109.516 184.765C109.251 185.008 108.919 185.167 108.563 185.221C107.852 185.323 107.128 185.264 106.443 185.048C104.936 184.722 103.498 184.135 102.193 183.315C100.882 182.479 99.9226 181.192 99.4948 179.698C99.3399 178.973 99.2848 178.23 99.331 177.491C99.3537 176.726 99.4174 175.962 99.3856 175.216C99.3703 174.728 99.2955 174.243 99.1626 173.773C98.8032 172.554 97.9478 171.476 97.7976 170.224C97.7976 170.156 97.7749 170.088 97.7703 170.02C97.7621 169.149 98.0349 168.298 98.5484 167.595Z" fill="#EE512C"/>
<path d="M105.665 180.43C104.889 180.265 104.163 179.922 103.543 179.428C102.923 178.933 102.426 178.301 102.093 177.582C101.424 176.103 101.506 174.397 101.137 172.823C100.837 171.522 100.227 170.311 99.8952 169.019C99.6178 168.047 99.6178 167.016 99.8952 166.043L100.282 165.661C102.197 166.658 104.377 167.481 106.124 168.746C106.083 170.983 106.224 173.22 106.547 175.435C106.785 176.874 107.222 178.274 107.844 179.593C107.766 179.848 107.606 180.071 107.389 180.226C106.864 180.519 106.244 180.593 105.665 180.43Z" fill="#AD5755"/>
<path d="M112.171 174.529C112.489 176.381 113.905 180.148 113.905 180.148C113.905 180.148 107.262 180.417 107.116 180.112L105.164 177.095L112.171 174.529Z" fill="#C77371"/>
<path d="M92.2876 130.503L109.227 139.944C110.763 140.799 111.991 142.114 112.739 143.705C113.486 145.295 113.716 147.08 113.395 148.808L110.11 166.53L112.804 175.097C110.478 178.219 105.137 178.378 105.137 178.378C102.161 172.399 99.9725 169.86 98.2799 164.855C96.5873 159.85 95.4589 156.397 95.4589 156.397L81.3903 152.548C78.1735 151.673 75.2926 149.855 73.1198 147.327C70.9469 144.798 69.5819 141.677 69.2009 138.365C68.9597 136.236 68.9506 134.784 68.9506 134.784L92.2876 130.503Z" fill="#37474F"/>
<path opacity="0.2" d="M92.1601 135.263C92.1578 137.154 91.4856 138.984 90.2628 140.427L102.22 147.912C103.967 149.012 105.259 150.705 105.86 152.68L110.11 166.53L106.292 151.124C105.854 149.351 104.739 147.82 103.185 146.861L92.1465 140.036C93.2749 137.206 92.1601 135.263 92.1601 135.263Z" fill="black"/>
<path d="M110.301 188.734L110.146 191.223C108.108 190.495 107.375 189.521 107.375 189.521C107.134 187.647 106.957 185.708 106.875 184.767C107.507 185.859 108.718 186.514 109.532 187.497C109.838 187.876 110.096 188.292 110.301 188.734Z" fill="#EE512C"/>
<path d="M111.152 190.854L110.146 191.223L110.301 188.734C110.629 189.412 110.874 190.14 111.152 190.854Z" fill="#EE512C"/>
<path opacity="0.3" d="M111.152 190.854L110.146 191.223L110.301 188.734C110.629 189.412 110.874 190.14 111.152 190.854Z" fill="black"/>
<path d="M106.506 182.064C106.641 181.394 106.845 180.739 107.116 180.112C107.249 181.115 107.661 182.061 108.304 182.842C109.123 183.902 110.155 184.776 110.943 185.849C111.903 187.16 112.494 188.757 113.673 189.853C114.262 190.384 114.967 190.771 115.731 190.982C116.496 191.192 117.299 191.222 118.077 191.068C118.372 191.029 118.657 190.931 118.914 190.78C119.171 190.629 119.395 190.429 119.574 190.19C119.715 189.961 119.779 189.693 119.756 189.426C120.341 189.945 120.979 190.402 121.658 190.791C122.413 191.209 123.314 191.642 123.519 192.483C123.574 192.839 123.525 193.202 123.376 193.53C123.227 193.857 122.986 194.134 122.682 194.326C122.067 194.698 121.377 194.929 120.661 194.999C119.147 195.293 117.593 195.319 116.07 195.077C114.536 194.822 113.148 194.013 112.171 192.802C111.743 192.198 111.4 191.538 111.152 190.841C110.874 190.126 110.629 189.398 110.301 188.72C110.097 188.276 109.838 187.859 109.532 187.478C108.718 186.5 107.507 185.845 106.875 184.748C106.843 184.689 106.802 184.635 106.77 184.575C106.42 183.787 106.327 182.908 106.506 182.064Z" fill="#EE512C"/>
<path opacity="0.2" d="M106.506 182.064C106.641 181.394 106.845 180.739 107.116 180.112C107.249 181.115 107.661 182.061 108.304 182.842C109.123 183.902 110.155 184.776 110.943 185.849C111.903 187.16 112.494 188.757 113.673 189.853C114.262 190.384 114.967 190.771 115.731 190.982C116.496 191.192 117.299 191.222 118.077 191.068C118.372 191.029 118.657 190.931 118.914 190.78C119.171 190.629 119.395 190.429 119.574 190.19C119.715 189.961 119.779 189.693 119.756 189.426C120.341 189.945 120.979 190.402 121.658 190.791C122.413 191.209 123.314 191.642 123.519 192.483C123.574 192.839 123.525 193.202 123.376 193.53C123.227 193.857 122.986 194.134 122.682 194.326C122.067 194.698 121.377 194.929 120.661 194.999C119.147 195.293 117.593 195.319 116.07 195.077C114.536 194.822 113.148 194.013 112.171 192.802C111.743 192.198 111.4 191.538 111.152 190.841C110.874 190.126 110.629 189.398 110.301 188.72C110.097 188.276 109.838 187.859 109.532 187.478C108.718 186.5 107.507 185.845 106.875 184.748C106.843 184.689 106.802 184.635 106.77 184.575C106.42 183.787 106.327 182.908 106.506 182.064Z" fill="white"/>
<path d="M118.095 191.064C117.317 191.218 116.514 191.188 115.749 190.977C114.985 190.766 114.28 190.38 113.691 189.849C112.494 188.752 111.903 187.155 110.961 185.845C110.174 184.771 109.141 183.898 108.322 182.837C107.679 182.056 107.267 181.11 107.134 180.107L107.339 179.607C109.491 179.766 111.821 179.662 113.923 180.144C114.763 182.216 115.771 184.217 116.935 186.127C117.718 187.36 118.671 188.477 119.765 189.444C119.788 189.712 119.724 189.98 119.583 190.208C119.22 190.68 118.685 190.987 118.095 191.064Z" fill="#C77371"/>
<path d="M110.078 66.33C110.188 66.7546 110.212 67.1967 110.15 67.6308C110.087 68.0648 109.94 68.4822 109.715 68.8588C109.49 69.2354 109.193 69.5637 108.841 69.8247C108.488 70.0857 108.088 70.2743 107.662 70.3795C106.714 69.0262 105.958 67.5487 105.414 65.9887C105.63 65.3981 105.792 64.7889 105.897 64.1687C107.562 64.055 109.655 64.7147 110.078 66.33Z" fill="#AD5755"/>
<path d="M105.246 65.4837C105.246 64.9832 105.246 64.4827 105.246 63.9776C105.215 63.5729 105.284 63.1668 105.446 62.7946C105.542 62.6179 105.68 62.4669 105.847 62.3547C106.014 62.2424 106.206 62.1721 106.406 62.1498C106.606 62.1275 106.809 62.1538 106.996 62.2264C107.184 62.2991 107.352 62.4159 107.485 62.5671C107.623 62.4514 107.791 62.3771 107.97 62.3529C108.149 62.3288 108.331 62.3557 108.495 62.4306C108.654 62.5073 108.787 62.6286 108.878 62.7796C108.969 62.9307 109.015 63.1051 109.009 63.2815C109.138 63.1734 109.294 63.1017 109.46 63.0737C109.627 63.0457 109.798 63.0625 109.955 63.1222C110.103 63.1764 110.231 63.2715 110.327 63.3965C110.422 63.5214 110.479 63.671 110.492 63.8275C110.645 63.8441 110.791 63.8992 110.917 63.9875C111.042 64.0758 111.144 64.1945 111.211 64.3325C111.321 64.5842 111.353 64.8633 111.302 65.1333C111.222 65.6877 110.965 66.2014 110.569 66.5984C110.443 66.7339 110.288 66.8382 110.114 66.9033C110.026 66.9341 109.932 66.9423 109.84 66.9272C109.747 66.9121 109.66 66.8742 109.587 66.8168C109.516 66.7559 109.471 66.6712 109.459 66.5788C109.447 66.4864 109.47 66.3929 109.523 66.3163C109.352 66.4445 109.14 66.5045 108.927 66.4847C108.844 66.4564 108.768 66.4086 108.708 66.3452C108.647 66.2819 108.602 66.2049 108.577 66.1207C108.527 65.9509 108.507 65.7739 108.517 65.5974C108.441 65.7484 108.314 65.8681 108.159 65.9361C108.004 66.0041 107.83 66.0163 107.667 65.9705C107.512 65.9079 107.384 65.7929 107.306 65.6456C107.228 65.4984 107.204 65.3283 107.239 65.1652C107.153 65.3107 107.054 65.4478 106.943 65.5747C106.887 65.6294 106.82 65.6706 106.745 65.695C106.671 65.7194 106.592 65.7264 106.515 65.7154C106.437 65.7044 106.363 65.6757 106.299 65.6316C106.234 65.5875 106.181 65.5291 106.142 65.4609C106.051 65.3154 105.991 65.1528 105.965 64.9832C105.756 65.1606 105.46 65.3062 105.246 65.4837Z" fill="#C77371"/>
<path d="M103.567 72.2084L104.65 69.1599V66.2479C104.651 66.0511 104.704 65.8582 104.805 65.6893C104.906 65.5204 105.05 65.3817 105.223 65.2878L105.651 65.0603C105.813 64.9699 105.995 64.9224 106.181 64.9224C106.367 64.9224 106.549 64.9699 106.711 65.0603L108.749 66.2342C108.587 66.5337 108.319 66.7618 107.998 66.8738C107.676 66.9857 107.324 66.9734 107.011 66.8394L106.47 66.6119C108.799 68.6912 107.921 70.17 107.921 70.17L106.52 73.6234L103.567 72.2084Z" fill="#C77371"/>
<path d="M89.867 100.555L102.83 71.0121C106.256 70.4388 107.589 72.4499 107.876 73.7421L94.6809 109.419L89.867 100.555Z" fill="#EE512C"/>
<path opacity="0.3" d="M89.867 100.555L102.83 71.0121C106.256 70.4388 107.589 72.4499 107.876 73.7421L94.6809 109.419L89.867 100.555Z" fill="white"/>
<path d="M72.8272 117.44C70.4566 116.207 68.1043 114.833 66.3707 112.89C64.6372 110.947 63.5952 108.286 64.2277 105.81C64.8055 103.535 66.6483 101.77 68.5138 100.228C70.3793 98.6852 72.3995 97.1928 73.5461 95.1225C74.9111 92.6428 74.8337 89.7126 75.0157 86.9325C75.1977 84.1525 75.8438 81.1085 78.1461 79.3386C79.9388 77.9736 82.4459 77.6278 84.73 77.9736C87.0141 78.3194 89.1344 79.2931 91.1955 80.285C92.6333 80.9766 95.0448 82.1459 96.2005 83.2015C97.3562 84.2571 98.2298 85.6949 98.198 87.2146C98.1808 87.9981 97.903 88.7536 97.4087 89.3616C96.9143 89.9697 96.2315 90.3958 95.468 90.5725C95.923 93.5391 94.6217 97.0199 91.464 99.2175C88.9751 100.937 90.1536 104.436 88.4155 106.953C86.6774 109.469 84.9211 111.994 82.5551 113.996C80.1891 115.998 75.6163 118.887 72.8272 117.44Z" fill="#263238"/>
<path d="M90.231 98.8127C93.2886 99.2995 94.8447 109.182 95.8366 112.117C96.8649 115.147 95.468 117.345 93.9165 119.178C93.6353 119.511 93.4266 119.898 93.3036 120.316C93.1806 120.733 93.146 121.172 93.2021 121.604L96.4144 133.543C87.642 140.054 72.9364 136.896 68.9506 134.771C68.9055 130.602 69.785 126.475 71.5259 122.687C72.7027 120.24 73.364 117.578 73.4688 114.865L73.6189 110.483L73.1639 97.6934L80.1755 101.11L86.8867 100.81C86.8867 100.81 89.2345 98.658 90.231 98.8127Z" fill="#EE512C"/>
<path opacity="0.1" d="M90.231 98.8127C93.2886 99.2995 94.8447 109.182 95.8366 112.117C96.8649 115.147 95.468 117.345 93.9165 119.178C93.6353 119.511 93.4266 119.898 93.3036 120.316C93.1806 120.733 93.146 121.172 93.2021 121.604L96.4144 133.543C87.642 140.054 72.9364 136.896 68.9506 134.771C68.9055 130.602 69.785 126.475 71.5259 122.687C72.7027 120.24 73.364 117.578 73.4688 114.865L73.6189 110.483L73.1639 97.6934L80.1755 101.11L86.8867 100.81C86.8867 100.81 89.2345 98.658 90.231 98.8127Z" fill="white"/>
<path d="M86.9049 97.8249V103.826L87.6784 106.925C87.7202 107.097 87.704 107.278 87.6324 107.44C87.5607 107.603 87.4376 107.736 87.2821 107.821C87.1266 107.907 86.9473 107.938 86.7722 107.911C86.5971 107.883 86.4358 107.799 86.3134 107.671L80.18 101.105V94.7036L86.9049 97.8249Z" fill="#C77371"/>
<path d="M80.4439 94.8223C81.0127 99.0629 84.9621 102.025 86.8913 102.489V97.8253L80.4439 94.8223Z" fill="#AD5755"/>
<path d="M82.4322 90.0038C82.3681 90.5395 82.2382 91.0652 82.0455 91.5691C81.8753 91.9442 81.5879 92.254 81.2265 92.4518C81.0525 92.5457 80.8578 92.5949 80.66 92.5949C80.4622 92.5949 80.2676 92.5457 80.0935 92.4518C80.3741 91.9691 80.4514 91.3947 80.3085 90.855C80.1656 90.3153 79.8141 89.8544 79.3314 89.5739C78.8487 89.2933 78.2743 89.216 77.7346 89.3589C77.1949 89.5018 76.7341 89.8533 76.4535 90.336C76.2598 90.6698 76.1414 91.0419 76.1069 91.4263C76.0723 91.8107 76.1223 92.198 76.2533 92.5609C76.5227 93.2839 76.9556 93.9349 77.5182 94.4629C77.8605 94.7015 78.2755 94.8125 78.6911 94.7768C79.1068 94.741 79.4968 94.5607 79.7932 94.2672C81.0126 97.3384 83.8882 100.219 87.1642 100.901C88.0567 101.114 88.9915 101.067 89.8578 100.765C91.3502 100.187 91.8598 98.799 92.4286 97.4431C93.1791 95.7414 93.6964 93.9461 93.9665 92.1059C94.2941 89.5534 93.921 86.8371 92.5014 84.6895C89.8396 89.6581 84.4069 90.1631 82.4322 90.0038Z" fill="#C77371"/>
<path d="M89.1299 92.8154L90.5222 96.1733L88.2745 96.2689L89.1299 92.8154Z" fill="#AD5755"/>
<path d="M89.1435 97.9888L86.3179 96.915C86.0763 97.3264 85.9831 97.8082 86.054 98.28C86.0931 98.5133 86.1891 98.7334 86.3335 98.9207C86.478 99.108 86.6664 99.2568 86.8821 99.3538C87.1103 99.4363 87.3545 99.4644 87.5954 99.4359C87.8363 99.4075 88.0672 99.3233 88.2699 99.19C88.6571 98.8691 88.9574 98.4561 89.1435 97.9888Z" fill="#AD5755"/>
<path opacity="0.3" d="M89.1435 97.9888L86.3179 96.915C86.0763 97.3264 85.9831 97.8082 86.054 98.28C86.0931 98.5133 86.1891 98.7334 86.3335 98.9207C86.478 99.108 86.6664 99.2568 86.8821 99.3538C87.1103 99.4363 87.3545 99.4644 87.5954 99.4359C87.8363 99.4075 88.0672 99.3233 88.2699 99.19C88.6571 98.8691 88.9574 98.4561 89.1435 97.9888Z" fill="black"/>
<path d="M85.9403 92.4836C85.9081 92.6056 85.913 92.7344 85.9542 92.8537C85.9953 92.973 86.071 93.0774 86.1716 93.1536C86.2722 93.2298 86.3932 93.2744 86.5192 93.2817C86.6451 93.2891 86.7705 93.2588 86.8792 93.1948C86.988 93.1309 87.0753 93.036 87.1301 92.9223C87.1849 92.8086 87.2047 92.6813 87.187 92.5563C87.1692 92.4314 87.1148 92.3145 87.0305 92.2206C86.9463 92.1266 86.836 92.0598 86.7138 92.0286C86.5509 91.987 86.3782 92.0115 86.2333 92.0967C86.0884 92.182 85.9831 92.321 85.9403 92.4836Z" fill="#263238"/>
<path d="M91.1683 93.571C91.142 93.7292 91.1763 93.8915 91.2644 94.0256C91.3526 94.1596 91.4881 94.2554 91.6438 94.2939C91.7995 94.3324 91.964 94.3107 92.1044 94.2332C92.2449 94.1557 92.3509 94.0281 92.4013 93.8758C92.4277 93.7176 92.3933 93.5553 92.3052 93.4212C92.217 93.2872 92.0816 93.1914 91.9259 93.1529C91.7701 93.1144 91.6056 93.1361 91.4652 93.2136C91.3248 93.2911 91.2187 93.4187 91.1683 93.571Z" fill="#263238"/>
<path d="M91.9644 90.6362L93.4796 91.4324C93.5199 91.2516 93.504 91.0628 93.434 90.8912C93.3641 90.7197 93.2435 90.5736 93.0883 90.4724C92.9044 90.3919 92.7016 90.3646 92.5029 90.3936C92.3043 90.4225 92.1177 90.5066 91.9644 90.6362Z" fill="#263238"/>
<path d="M87.4054 89.735L85.7128 89.9944C85.734 89.8107 85.8107 89.6379 85.9326 89.4989C86.0546 89.3599 86.2159 89.2613 86.3953 89.2163C86.5952 89.2003 86.7957 89.2403 86.9741 89.332C87.1526 89.4236 87.3019 89.5632 87.4054 89.735Z" fill="#263238"/>
<path d="M86.0313 97.8979C86.0179 98.025 86.0179 98.1531 86.0313 98.2801C86.0578 98.482 86.13 98.6751 86.2424 98.8448C86.3548 99.0146 86.5045 99.1564 86.68 99.2595C86.8555 99.3626 87.0523 99.4243 87.2553 99.4399C87.4582 99.4555 87.6621 99.4245 87.8513 99.3494C87.7571 98.9413 87.5318 98.5753 87.2097 98.3074C86.873 98.0445 86.4586 97.9005 86.0313 97.8979Z" fill="#AD5755"/>
<path d="M80.3347 142.319C80.3287 142.394 80.3364 142.47 80.3574 142.542C80.3805 142.603 80.4111 142.662 80.4484 142.715C80.4921 142.777 80.5425 142.833 80.5986 142.884C80.6681 142.946 80.7444 143.001 80.8261 143.047L93.2203 150.255C93.3342 150.319 93.4547 150.371 93.5797 150.409L93.7162 150.45L93.8937 150.496L94.1166 150.532H94.1667C94.2668 150.532 94.3714 150.532 94.4715 150.532H94.5216C94.6217 150.532 94.7218 150.532 94.8173 150.532H94.8628C94.9629 150.532 95.0585 150.505 95.154 150.482H95.2041C95.2888 150.463 95.3724 150.438 95.4543 150.409H95.4998C95.5945 150.375 95.6859 150.332 95.7728 150.282L116.248 138.452C116.329 138.415 116.407 138.371 116.48 138.32C116.5 138.301 116.519 138.279 116.534 138.256C116.576 138.221 116.612 138.182 116.644 138.138C116.66 138.114 116.674 138.088 116.685 138.061C116.708 138.025 116.728 137.986 116.744 137.947C116.746 137.918 116.746 137.889 116.744 137.86C116.748 137.823 116.748 137.784 116.744 137.747V138.47C116.748 138.509 116.748 138.549 116.744 138.588C116.746 138.616 116.746 138.643 116.744 138.67C116.728 138.711 116.708 138.751 116.685 138.789C116.685 138.789 116.685 138.839 116.644 138.866C116.611 138.909 116.574 138.948 116.534 138.984L116.48 139.048C116.407 139.108 116.329 139.163 116.248 139.212L95.7728 151.019C95.685 151.069 95.5938 151.113 95.4998 151.151H95.4543L95.2041 151.228H95.154C95.0583 151.252 94.961 151.269 94.8628 151.278H94.8173C94.7189 151.285 94.62 151.285 94.5216 151.278H94.4715C94.37 151.285 94.2682 151.285 94.1667 151.278H94.1166L93.8937 151.242L93.7162 151.196L93.5797 151.155C93.4553 151.113 93.335 151.06 93.2203 150.996L80.8261 143.794C80.7444 143.748 80.6681 143.693 80.5986 143.63C80.5424 143.578 80.492 143.52 80.4484 143.457C80.4102 143.404 80.3795 143.346 80.3574 143.284C80.3485 143.23 80.3485 143.174 80.3574 143.12V142.333L80.3347 142.319Z" fill="#E0E0E0"/>
<path opacity="0.2" d="M80.3347 142.319C80.3287 142.394 80.3364 142.47 80.3574 142.542C80.3805 142.603 80.4111 142.662 80.4484 142.715C80.4921 142.777 80.5425 142.833 80.5986 142.884C80.6681 142.946 80.7444 143.001 80.8261 143.047L93.2203 150.255C93.3342 150.319 93.4547 150.371 93.5797 150.409L93.7162 150.45L93.8937 150.496L94.1166 150.532H94.1667C94.2668 150.532 94.3714 150.532 94.4715 150.532H94.5216C94.6217 150.532 94.7218 150.532 94.8173 150.532H94.8628C94.9629 150.532 95.0585 150.505 95.154 150.482H95.2041C95.2888 150.463 95.3724 150.438 95.4543 150.409H95.4998C95.5945 150.375 95.6859 150.332 95.7728 150.282L116.248 138.452C116.329 138.415 116.407 138.371 116.48 138.32C116.5 138.301 116.519 138.279 116.534 138.256C116.576 138.221 116.612 138.182 116.644 138.138C116.66 138.114 116.674 138.088 116.685 138.061C116.708 138.025 116.728 137.986 116.744 137.947C116.746 137.918 116.746 137.889 116.744 137.86C116.748 137.823 116.748 137.784 116.744 137.747V138.47C116.748 138.509 116.748 138.549 116.744 138.588C116.746 138.616 116.746 138.643 116.744 138.67C116.728 138.711 116.708 138.751 116.685 138.789C116.685 138.789 116.685 138.839 116.644 138.866C116.611 138.909 116.574 138.948 116.534 138.984L116.48 139.048C116.407 139.108 116.329 139.163 116.248 139.212L95.7728 151.019C95.685 151.069 95.5938 151.113 95.4998 151.151H95.4543L95.2041 151.228H95.154C95.0583 151.252 94.961 151.269 94.8628 151.278H94.8173C94.7189 151.285 94.62 151.285 94.5216 151.278H94.4715C94.37 151.285 94.2682 151.285 94.1667 151.278H94.1166L93.8937 151.242L93.7162 151.196L93.5797 151.155C93.4553 151.113 93.335 151.06 93.2203 150.996L80.8261 143.794C80.7444 143.748 80.6681 143.693 80.5986 143.63C80.5424 143.578 80.492 143.52 80.4484 143.457C80.4102 143.404 80.3795 143.346 80.3574 143.284C80.3485 143.23 80.3485 143.174 80.3574 143.12V142.333L80.3347 142.319Z" fill="black"/>
<path d="M116.748 137.951C116.732 137.991 116.712 138.029 116.689 138.065C116.678 138.092 116.665 138.118 116.648 138.143C116.617 138.186 116.58 138.226 116.539 138.261C116.523 138.284 116.505 138.305 116.484 138.325C116.412 138.386 116.335 138.441 116.252 138.488L95.7774 150.318C95.6904 150.369 95.599 150.412 95.5044 150.446H95.4589C95.3769 150.475 95.2934 150.499 95.2086 150.519H95.1586C95.063 150.541 94.9675 150.555 94.8674 150.569H94.8219C94.7263 150.569 94.6262 150.569 94.5261 150.569H94.4761C94.376 150.569 94.2713 150.569 94.1712 150.569H94.1212L93.8982 150.532L93.7208 150.487L93.5843 150.446C93.4593 150.407 93.3387 150.355 93.2248 150.291L80.8306 143.084C80.749 143.038 80.6727 142.983 80.6031 142.92C80.547 142.87 80.4967 142.813 80.453 142.752C80.4156 142.698 80.3851 142.64 80.362 142.579C80.341 142.506 80.3333 142.431 80.3392 142.356C80.3606 142.205 80.4197 142.061 80.5112 141.939C80.6026 141.816 80.7234 141.719 80.8625 141.655L101.337 129.848C101.731 129.646 102.167 129.541 102.609 129.541C103.052 129.541 103.487 129.646 103.881 129.848L116.28 137.051C116.424 137.117 116.548 137.22 116.639 137.35C116.731 137.479 116.787 137.63 116.803 137.788C116.807 137.825 116.807 137.864 116.803 137.901C116.786 137.919 116.768 137.936 116.748 137.951Z" fill="#E0E0E0"/>
<path d="M115.047 137.751L95.1723 149.24L95.0949 149.281H95.054L94.8993 149.326L94.7901 149.349H94.7127C94.6476 149.353 94.5823 149.353 94.5171 149.349H94.3123L94.1804 149.326L94.0211 149.281C93.9746 149.266 93.929 149.247 93.8846 149.226L87.4919 145.509L108.017 133.656L115.047 137.751Z" fill="#E0E0E0"/>
<path d="M96.1414 134.594L99.8815 136.796C99.9381 136.829 99.985 136.877 100.018 136.934C100.05 136.991 100.067 137.056 100.067 137.121C100.067 137.187 100.05 137.252 100.018 137.309C99.985 137.366 99.9381 137.413 99.8815 137.447L94.2895 140.673C94.1951 140.728 94.0875 140.758 93.9779 140.758C93.8683 140.758 93.7607 140.728 93.6662 140.673L89.9261 138.475C89.8684 138.442 89.8205 138.394 89.7872 138.337C89.7539 138.279 89.7363 138.214 89.7363 138.147C89.7363 138.081 89.7539 138.016 89.7872 137.958C89.8205 137.901 89.8684 137.853 89.9261 137.82L95.5135 134.594C95.6086 134.538 95.717 134.508 95.8275 134.508C95.9379 134.508 96.0463 134.538 96.1414 134.594Z" fill="#E0E0E0"/>
<path opacity="0.4" d="M115.047 137.751L95.1723 149.24L95.0949 149.281H95.054L94.8993 149.326L94.7901 149.349H94.7127C94.6476 149.353 94.5823 149.353 94.5171 149.349H94.3123L94.1804 149.326L94.0211 149.281C93.9746 149.266 93.929 149.247 93.8846 149.226L87.4919 145.509L108.017 133.656L115.047 137.751Z" fill="black"/>
<path opacity="0.4" d="M96.1414 134.594L99.8815 136.796C99.9381 136.829 99.985 136.877 100.018 136.934C100.05 136.991 100.067 137.056 100.067 137.121C100.067 137.187 100.05 137.252 100.018 137.309C99.985 137.366 99.9381 137.413 99.8815 137.447L94.2895 140.673C94.1951 140.728 94.0875 140.758 93.9779 140.758C93.8683 140.758 93.7607 140.728 93.6662 140.673L89.9261 138.475C89.8684 138.442 89.8205 138.394 89.7872 138.337C89.7539 138.279 89.7363 138.214 89.7363 138.147C89.7363 138.081 89.7539 138.016 89.7872 137.958C89.8205 137.901 89.8684 137.853 89.9261 137.82L95.5135 134.594C95.6086 134.538 95.717 134.508 95.8275 134.508C95.9379 134.508 96.0463 134.538 96.1414 134.594Z" fill="black"/>
<path d="M94.6398 149.567L96.7556 136.099C96.8134 135.735 96.9516 135.388 97.1602 135.083C97.3687 134.779 97.6424 134.524 97.9613 134.339L118.559 122.363C118.641 122.315 118.733 122.287 118.828 122.281C118.923 122.274 119.018 122.29 119.105 122.327L119.597 122.568L119.433 122.631C119.487 122.745 119.504 122.872 119.483 122.995L117.39 136.463C117.332 136.828 117.194 137.175 116.986 137.48C116.777 137.785 116.503 138.039 116.184 138.224L95.5498 150.2C95.5079 150.223 95.4637 150.241 95.4179 150.255V150.45L94.9629 150.218C94.8469 150.158 94.753 150.063 94.6949 149.946C94.6368 149.829 94.6175 149.696 94.6398 149.567Z" fill="#E0E0E0"/>
<path opacity="0.3" d="M94.6398 149.567L96.7556 136.099C96.8134 135.735 96.9516 135.388 97.1602 135.083C97.3687 134.779 97.6424 134.524 97.9613 134.339L118.559 122.363C118.641 122.315 118.733 122.287 118.828 122.281C118.923 122.274 119.018 122.29 119.105 122.327L119.597 122.568L119.433 122.631C119.487 122.745 119.504 122.872 119.483 122.995L117.39 136.463C117.332 136.828 117.194 137.175 116.986 137.48C116.777 137.785 116.503 138.039 116.184 138.224L95.5498 150.2C95.5079 150.223 95.4637 150.241 95.4179 150.255V150.45L94.9629 150.218C94.8469 150.158 94.753 150.063 94.6949 149.946C94.6368 149.829 94.6175 149.696 94.6398 149.567Z" fill="black"/>
<path d="M98.38 134.544L118.978 122.572C119.079 122.517 119.193 122.491 119.308 122.497C119.423 122.503 119.534 122.541 119.629 122.607C119.723 122.672 119.798 122.763 119.843 122.869C119.889 122.975 119.905 123.091 119.888 123.205L117.772 136.668C117.715 137.034 117.577 137.382 117.369 137.687C117.16 137.993 116.886 138.248 116.566 138.434L96.0049 150.405C95.904 150.46 95.7896 150.486 95.6746 150.48C95.5596 150.474 95.4486 150.436 95.354 150.37C95.2595 150.305 95.1851 150.214 95.1393 150.108C95.0936 150.003 95.0782 149.886 95.0949 149.772L97.2107 136.309C97.2644 135.947 97.397 135.601 97.599 135.296C97.8011 134.991 98.0677 134.734 98.38 134.544Z" fill="#E0E0E0"/>
<path d="M108.363 134.894C107.841 135.221 107.39 135.65 107.039 136.156C106.688 136.663 106.443 137.235 106.32 137.838C106.183 138.889 106.879 139.28 107.876 138.702C108.398 138.376 108.848 137.946 109.199 137.44C109.55 136.934 109.795 136.362 109.919 135.759C110.055 134.708 109.355 134.321 108.363 134.894Z" fill="white"/>
<path d="M60.3374 73.6239C56.8931 71.9358 53.8355 75.544 54.8774 77.4095C55.9194 79.275 62.5942 77.1774 60.3374 73.6239Z" fill="#EE512C"/>
<path opacity="0.3" d="M60.3374 73.6239C56.8931 71.9358 53.8355 75.544 54.8774 77.4095C55.9194 79.275 62.5942 77.1774 60.3374 73.6239Z" fill="black"/>
<path d="M51.7744 68.1911C52.4296 70.8574 53.4033 72.1451 55.287 73.6284L58.7541 72.0177L57.471 65.7887L56.5974 64.9561L51.7744 68.1911Z" fill="#AD5755"/>
<path d="M56.1105 63.0766C55.9727 62.9744 55.8123 62.9069 55.6429 62.8797C55.4735 62.8525 55.3 62.8665 55.1372 62.9205C54.9743 62.9745 54.8268 63.0669 54.7072 63.1899C54.5875 63.3129 54.4993 63.4629 54.4498 63.6272C54.3068 63.5128 54.1307 63.4479 53.9478 63.4422C53.7648 63.4365 53.585 63.4902 53.4351 63.5953C53.2809 63.7076 53.1658 63.8655 53.1062 64.0468C53.0466 64.2281 53.0455 64.4235 53.103 64.6054C53.019 64.5226 52.912 64.467 52.7959 64.4459C52.6798 64.4248 52.5601 64.4392 52.4523 64.4871C52.2436 64.5936 52.0816 64.7735 51.9973 64.9922C51.9018 65.2121 51.833 65.4428 51.7926 65.6792C51.6665 65.6308 51.5291 65.6197 51.3968 65.6471C51.2645 65.6745 51.1429 65.7394 51.0464 65.8339C50.9536 65.9315 50.8902 66.0533 50.8636 66.1853C50.8371 66.3174 50.8484 66.4542 50.8962 66.5801C51.1014 67.083 51.3608 67.5621 51.6697 68.0088C51.7474 68.1739 51.8582 68.3212 51.9952 68.4417C52.1321 68.5623 52.2924 68.6534 52.466 68.7095C52.5948 68.7312 52.727 68.7163 52.8477 68.6664C52.9684 68.6165 53.0726 68.5337 53.1485 68.4274C53.2222 68.319 53.2643 68.1921 53.2699 68.0611C53.2755 67.9301 53.2445 67.8001 53.1803 67.6858C53.3292 67.8606 53.5303 67.9828 53.754 68.0344C53.9777 68.0861 54.2121 68.0643 54.4225 67.9724C54.6001 67.8553 54.731 67.6796 54.7925 67.4759C54.854 67.2723 54.8422 67.0535 54.7592 66.8577C54.8247 66.9875 54.9281 67.0944 55.0556 67.1642C55.1831 67.2341 55.3289 67.2636 55.4735 67.249C55.6147 67.2262 55.7475 67.1673 55.8591 67.078C55.9708 66.9887 56.0574 66.8721 56.1105 66.7394C56.1609 66.6061 56.1837 66.4639 56.1774 66.3216C56.1712 66.1792 56.136 66.0396 56.0741 65.9113C56.1177 66.0345 56.1926 66.1442 56.2916 66.2296C56.3905 66.315 56.51 66.3731 56.6383 66.3981C56.7626 66.424 56.8916 66.4152 57.0111 66.3726C57.1307 66.3301 57.2363 66.2555 57.3163 66.157C57.4238 65.9739 57.4838 65.7669 57.491 65.5547C57.4981 65.3426 57.4522 65.132 57.3572 64.9421C57.1641 64.1974 56.7248 63.5399 56.1105 63.0766Z" fill="#C77371"/>
<path d="M60.5149 75.5709L58.7404 72.0173L59.4366 69.5785C59.564 69.1343 59.5983 68.6686 59.5372 68.2106C59.4761 67.7525 59.3211 67.312 59.0817 66.9168L58.6631 66.2161C58.5482 66.0174 58.3624 65.8695 58.143 65.802C57.9236 65.7345 57.6868 65.7524 57.4801 65.8521L54.1722 67.3672V67.4127C54.259 67.6443 54.3921 67.8557 54.5634 68.0341C54.7346 68.2125 54.9404 68.3542 55.1682 68.4504C55.396 68.5466 55.641 68.5954 55.8883 68.5938C56.1356 68.5922 56.38 68.5402 56.6065 68.441C54.4088 70.1564 54.3315 71.5987 55.2415 73.628C56.1515 75.6573 57.5665 78.8696 57.5665 78.8696L60.5149 75.5709Z" fill="#C77371"/>
<path d="M77.0223 99.5722L60.3374 73.6372C59.6003 77.7641 54.8774 77.4228 54.8774 77.4228L73.6052 110.497C76.1032 114.66 84.5844 110.565 77.0223 99.5722Z" fill="#EE512C"/>
<path opacity="0.3" d="M77.0223 99.5722L60.3374 73.6372C59.6003 77.7641 54.8774 77.4228 54.8774 77.4228L73.6052 110.497C76.1032 114.66 84.5844 110.565 77.0223 99.5722Z" fill="white"/>
<path opacity="0.2" d="M88.0015 117.845C86.8585 118.565 85.482 118.818 84.1577 118.55C82.8334 118.283 81.6631 117.515 80.8898 116.407C80.9763 118.1 82.0137 119.729 83.6744 120.084C85.3352 120.439 87.2325 119.347 88.0015 117.845Z" fill="black"/>
</svg>
